G04 #@! TF.GenerationSoftware,KiCad,Pcbnew,(5.1.5)-2*
G04 #@! TF.CreationDate,2019-12-11T20:36:42+08:00*
G04 #@! TF.ProjectId,kicad,6b696361-642e-46b6-9963-61645f706362,rev?*
G04 #@! TF.SameCoordinates,Original*
G04 #@! TF.FileFunction,Copper,L1,Top*
G04 #@! TF.FilePolarity,Positive*
%FSLAX46Y46*%
G04 Gerber Fmt 4.6, Leading zero omitted, Abs format (unit mm)*
G04 Created by KiCad (PCBNEW (5.1.5)-2) date 2019-12-11 20:36:42*
%MOMM*%
%LPD*%
G04 APERTURE LIST*
%ADD10C,10.160000*%
%ADD11R,1.600000X1.600000*%
%ADD12O,1.600000X1.600000*%
%ADD13C,1.600000*%
%ADD14C,1.800000*%
%ADD15R,1.800000X1.800000*%
%ADD16C,1.778000*%
%ADD17C,1.270000*%
G04 APERTURE END LIST*
D10*
X144399000Y-114554000D03*
X159379000Y-114554000D03*
X129409000Y-114554000D03*
D11*
X141859000Y-94234000D03*
D12*
X149479000Y-86614000D03*
X144399000Y-94234000D03*
X146939000Y-86614000D03*
X146939000Y-94234000D03*
X144399000Y-86614000D03*
X149479000Y-94234000D03*
X141859000Y-86614000D03*
D13*
X159639000Y-89154000D03*
D12*
X159639000Y-91694000D03*
X129159000Y-101346000D03*
D13*
X131699000Y-101346000D03*
D14*
X129159000Y-89408000D03*
D15*
X131699000Y-89408000D03*
D16*
X141859000Y-86614000D03*
D17*
X144399000Y-86614000D02*
X144352802Y-86614000D01*
X144399000Y-87745370D02*
X144387370Y-87757000D01*
X144399000Y-86614000D02*
X144399000Y-87745370D01*
X143637000Y-89154000D02*
X133869000Y-89154000D01*
X133869000Y-89154000D02*
X131699000Y-89154000D01*
X144387370Y-87757000D02*
X144387370Y-88403630D01*
X144387370Y-88403630D02*
X143637000Y-89154000D01*
X129159000Y-89408000D02*
X129159000Y-101346000D01*
X159639000Y-91694000D02*
X159639000Y-98806000D01*
X159639000Y-98806000D02*
X156337000Y-102108000D01*
X156337000Y-102108000D02*
X147955000Y-102108000D01*
X144399000Y-105664000D02*
X144399000Y-114554000D01*
X147955000Y-102108000D02*
X144399000Y-105664000D01*
X131699000Y-112264000D02*
X129409000Y-114554000D01*
X131699000Y-101346000D02*
X131699000Y-112264000D01*
X141859000Y-96304000D02*
X141859000Y-94234000D01*
X136817000Y-101346000D02*
X141859000Y-96304000D01*
X131699000Y-101346000D02*
X136817000Y-101346000D01*
X146939000Y-87745370D02*
X146939000Y-88138000D01*
X146939000Y-86614000D02*
X146939000Y-87745370D01*
X147701000Y-89154000D02*
X158507630Y-89154000D01*
X158507630Y-89154000D02*
X159639000Y-89154000D01*
X146939000Y-87745370D02*
X146939000Y-88392000D01*
X146939000Y-88392000D02*
X147701000Y-89154000D01*
M02*
