G04 #@! TF.GenerationSoftware,KiCad,Pcbnew,(5.1.5)-2*
G04 #@! TF.CreationDate,2019-12-11T20:36:43+08:00*
G04 #@! TF.ProjectId,kicad,6b696361-642e-46b6-9963-61645f706362,rev?*
G04 #@! TF.SameCoordinates,Original*
G04 #@! TF.FileFunction,Soldermask,Bot*
G04 #@! TF.FilePolarity,Negative*
%FSLAX46Y46*%
G04 Gerber Fmt 4.6, Leading zero omitted, Abs format (unit mm)*
G04 Created by KiCad (PCBNEW (5.1.5)-2) date 2019-12-11 20:36:43*
%MOMM*%
%LPD*%
G04 APERTURE LIST*
%ADD10C,0.100000*%
G04 APERTURE END LIST*
D10*
G36*
X130410008Y-109521590D02*
G01*
X130905658Y-109620181D01*
X131839440Y-110006967D01*
X132679822Y-110568492D01*
X133394508Y-111283178D01*
X133956033Y-112123560D01*
X134342819Y-113057342D01*
X134540000Y-114048641D01*
X134540000Y-115059359D01*
X134342819Y-116050658D01*
X133956033Y-116984440D01*
X133394508Y-117824822D01*
X132679822Y-118539508D01*
X131839440Y-119101033D01*
X130905658Y-119487819D01*
X130410009Y-119586409D01*
X129914361Y-119685000D01*
X128903639Y-119685000D01*
X128407991Y-119586409D01*
X127912342Y-119487819D01*
X126978560Y-119101033D01*
X126138178Y-118539508D01*
X125423492Y-117824822D01*
X124861967Y-116984440D01*
X124475181Y-116050658D01*
X124278000Y-115059359D01*
X124278000Y-114048641D01*
X124475181Y-113057342D01*
X124861967Y-112123560D01*
X125423492Y-111283178D01*
X126138178Y-110568492D01*
X126978560Y-110006967D01*
X127912342Y-109620181D01*
X128407992Y-109521590D01*
X128903639Y-109423000D01*
X129914361Y-109423000D01*
X130410008Y-109521590D01*
G37*
G36*
X160380008Y-109521590D02*
G01*
X160875658Y-109620181D01*
X161809440Y-110006967D01*
X162649822Y-110568492D01*
X163364508Y-111283178D01*
X163926033Y-112123560D01*
X164312819Y-113057342D01*
X164510000Y-114048641D01*
X164510000Y-115059359D01*
X164312819Y-116050658D01*
X163926033Y-116984440D01*
X163364508Y-117824822D01*
X162649822Y-118539508D01*
X161809440Y-119101033D01*
X160875658Y-119487819D01*
X160380009Y-119586409D01*
X159884361Y-119685000D01*
X158873639Y-119685000D01*
X158377991Y-119586409D01*
X157882342Y-119487819D01*
X156948560Y-119101033D01*
X156108178Y-118539508D01*
X155393492Y-117824822D01*
X154831967Y-116984440D01*
X154445181Y-116050658D01*
X154248000Y-115059359D01*
X154248000Y-114048641D01*
X154445181Y-113057342D01*
X154831967Y-112123560D01*
X155393492Y-111283178D01*
X156108178Y-110568492D01*
X156948560Y-110006967D01*
X157882342Y-109620181D01*
X158377992Y-109521590D01*
X158873639Y-109423000D01*
X159884361Y-109423000D01*
X160380008Y-109521590D01*
G37*
G36*
X145400008Y-109521590D02*
G01*
X145895658Y-109620181D01*
X146829440Y-110006967D01*
X147669822Y-110568492D01*
X148384508Y-111283178D01*
X148946033Y-112123560D01*
X149332819Y-113057342D01*
X149530000Y-114048641D01*
X149530000Y-115059359D01*
X149332819Y-116050658D01*
X148946033Y-116984440D01*
X148384508Y-117824822D01*
X147669822Y-118539508D01*
X146829440Y-119101033D01*
X145895658Y-119487819D01*
X145400009Y-119586409D01*
X144904361Y-119685000D01*
X143893639Y-119685000D01*
X143397991Y-119586409D01*
X142902342Y-119487819D01*
X141968560Y-119101033D01*
X141128178Y-118539508D01*
X140413492Y-117824822D01*
X139851967Y-116984440D01*
X139465181Y-116050658D01*
X139268000Y-115059359D01*
X139268000Y-114048641D01*
X139465181Y-113057342D01*
X139851967Y-112123560D01*
X140413492Y-111283178D01*
X141128178Y-110568492D01*
X141968560Y-110006967D01*
X142902342Y-109620181D01*
X143397992Y-109521590D01*
X143893639Y-109423000D01*
X144904361Y-109423000D01*
X145400008Y-109521590D01*
G37*
G36*
X129407228Y-100527703D02*
G01*
X129562100Y-100591853D01*
X129701481Y-100684985D01*
X129820015Y-100803519D01*
X129913147Y-100942900D01*
X129977297Y-101097772D01*
X130010000Y-101262184D01*
X130010000Y-101429816D01*
X129977297Y-101594228D01*
X129913147Y-101749100D01*
X129820015Y-101888481D01*
X129701481Y-102007015D01*
X129562100Y-102100147D01*
X129407228Y-102164297D01*
X129242816Y-102197000D01*
X129075184Y-102197000D01*
X128910772Y-102164297D01*
X128755900Y-102100147D01*
X128616519Y-102007015D01*
X128497985Y-101888481D01*
X128404853Y-101749100D01*
X128340703Y-101594228D01*
X128308000Y-101429816D01*
X128308000Y-101262184D01*
X128340703Y-101097772D01*
X128404853Y-100942900D01*
X128497985Y-100803519D01*
X128616519Y-100684985D01*
X128755900Y-100591853D01*
X128910772Y-100527703D01*
X129075184Y-100495000D01*
X129242816Y-100495000D01*
X129407228Y-100527703D01*
G37*
G36*
X131947228Y-100527703D02*
G01*
X132102100Y-100591853D01*
X132241481Y-100684985D01*
X132360015Y-100803519D01*
X132453147Y-100942900D01*
X132517297Y-101097772D01*
X132550000Y-101262184D01*
X132550000Y-101429816D01*
X132517297Y-101594228D01*
X132453147Y-101749100D01*
X132360015Y-101888481D01*
X132241481Y-102007015D01*
X132102100Y-102100147D01*
X131947228Y-102164297D01*
X131782816Y-102197000D01*
X131615184Y-102197000D01*
X131450772Y-102164297D01*
X131295900Y-102100147D01*
X131156519Y-102007015D01*
X131037985Y-101888481D01*
X130944853Y-101749100D01*
X130880703Y-101594228D01*
X130848000Y-101429816D01*
X130848000Y-101262184D01*
X130880703Y-101097772D01*
X130944853Y-100942900D01*
X131037985Y-100803519D01*
X131156519Y-100684985D01*
X131295900Y-100591853D01*
X131450772Y-100527703D01*
X131615184Y-100495000D01*
X131782816Y-100495000D01*
X131947228Y-100527703D01*
G37*
G36*
X142710000Y-95085000D02*
G01*
X141008000Y-95085000D01*
X141008000Y-93383000D01*
X142710000Y-93383000D01*
X142710000Y-95085000D01*
G37*
G36*
X144647228Y-93415703D02*
G01*
X144802100Y-93479853D01*
X144941481Y-93572985D01*
X145060015Y-93691519D01*
X145153147Y-93830900D01*
X145217297Y-93985772D01*
X145250000Y-94150184D01*
X145250000Y-94317816D01*
X145217297Y-94482228D01*
X145153147Y-94637100D01*
X145060015Y-94776481D01*
X144941481Y-94895015D01*
X144802100Y-94988147D01*
X144647228Y-95052297D01*
X144482816Y-95085000D01*
X144315184Y-95085000D01*
X144150772Y-95052297D01*
X143995900Y-94988147D01*
X143856519Y-94895015D01*
X143737985Y-94776481D01*
X143644853Y-94637100D01*
X143580703Y-94482228D01*
X143548000Y-94317816D01*
X143548000Y-94150184D01*
X143580703Y-93985772D01*
X143644853Y-93830900D01*
X143737985Y-93691519D01*
X143856519Y-93572985D01*
X143995900Y-93479853D01*
X144150772Y-93415703D01*
X144315184Y-93383000D01*
X144482816Y-93383000D01*
X144647228Y-93415703D01*
G37*
G36*
X147187228Y-93415703D02*
G01*
X147342100Y-93479853D01*
X147481481Y-93572985D01*
X147600015Y-93691519D01*
X147693147Y-93830900D01*
X147757297Y-93985772D01*
X147790000Y-94150184D01*
X147790000Y-94317816D01*
X147757297Y-94482228D01*
X147693147Y-94637100D01*
X147600015Y-94776481D01*
X147481481Y-94895015D01*
X147342100Y-94988147D01*
X147187228Y-95052297D01*
X147022816Y-95085000D01*
X146855184Y-95085000D01*
X146690772Y-95052297D01*
X146535900Y-94988147D01*
X146396519Y-94895015D01*
X146277985Y-94776481D01*
X146184853Y-94637100D01*
X146120703Y-94482228D01*
X146088000Y-94317816D01*
X146088000Y-94150184D01*
X146120703Y-93985772D01*
X146184853Y-93830900D01*
X146277985Y-93691519D01*
X146396519Y-93572985D01*
X146535900Y-93479853D01*
X146690772Y-93415703D01*
X146855184Y-93383000D01*
X147022816Y-93383000D01*
X147187228Y-93415703D01*
G37*
G36*
X149727228Y-93415703D02*
G01*
X149882100Y-93479853D01*
X150021481Y-93572985D01*
X150140015Y-93691519D01*
X150233147Y-93830900D01*
X150297297Y-93985772D01*
X150330000Y-94150184D01*
X150330000Y-94317816D01*
X150297297Y-94482228D01*
X150233147Y-94637100D01*
X150140015Y-94776481D01*
X150021481Y-94895015D01*
X149882100Y-94988147D01*
X149727228Y-95052297D01*
X149562816Y-95085000D01*
X149395184Y-95085000D01*
X149230772Y-95052297D01*
X149075900Y-94988147D01*
X148936519Y-94895015D01*
X148817985Y-94776481D01*
X148724853Y-94637100D01*
X148660703Y-94482228D01*
X148628000Y-94317816D01*
X148628000Y-94150184D01*
X148660703Y-93985772D01*
X148724853Y-93830900D01*
X148817985Y-93691519D01*
X148936519Y-93572985D01*
X149075900Y-93479853D01*
X149230772Y-93415703D01*
X149395184Y-93383000D01*
X149562816Y-93383000D01*
X149727228Y-93415703D01*
G37*
G36*
X159887228Y-90875703D02*
G01*
X160042100Y-90939853D01*
X160181481Y-91032985D01*
X160300015Y-91151519D01*
X160393147Y-91290900D01*
X160457297Y-91445772D01*
X160490000Y-91610184D01*
X160490000Y-91777816D01*
X160457297Y-91942228D01*
X160393147Y-92097100D01*
X160300015Y-92236481D01*
X160181481Y-92355015D01*
X160042100Y-92448147D01*
X159887228Y-92512297D01*
X159722816Y-92545000D01*
X159555184Y-92545000D01*
X159390772Y-92512297D01*
X159235900Y-92448147D01*
X159096519Y-92355015D01*
X158977985Y-92236481D01*
X158884853Y-92097100D01*
X158820703Y-91942228D01*
X158788000Y-91777816D01*
X158788000Y-91610184D01*
X158820703Y-91445772D01*
X158884853Y-91290900D01*
X158977985Y-91151519D01*
X159096519Y-91032985D01*
X159235900Y-90939853D01*
X159390772Y-90875703D01*
X159555184Y-90843000D01*
X159722816Y-90843000D01*
X159887228Y-90875703D01*
G37*
G36*
X132650000Y-90359000D02*
G01*
X130748000Y-90359000D01*
X130748000Y-88457000D01*
X132650000Y-88457000D01*
X132650000Y-90359000D01*
G37*
G36*
X129436395Y-88493546D02*
G01*
X129609466Y-88565234D01*
X129609467Y-88565235D01*
X129765227Y-88669310D01*
X129897690Y-88801773D01*
X129897691Y-88801775D01*
X130001766Y-88957534D01*
X130073454Y-89130605D01*
X130110000Y-89314333D01*
X130110000Y-89501667D01*
X130073454Y-89685395D01*
X130001766Y-89858466D01*
X130001765Y-89858467D01*
X129897690Y-90014227D01*
X129765227Y-90146690D01*
X129686818Y-90199081D01*
X129609466Y-90250766D01*
X129436395Y-90322454D01*
X129252667Y-90359000D01*
X129065333Y-90359000D01*
X128881605Y-90322454D01*
X128708534Y-90250766D01*
X128631182Y-90199081D01*
X128552773Y-90146690D01*
X128420310Y-90014227D01*
X128316235Y-89858467D01*
X128316234Y-89858466D01*
X128244546Y-89685395D01*
X128208000Y-89501667D01*
X128208000Y-89314333D01*
X128244546Y-89130605D01*
X128316234Y-88957534D01*
X128420309Y-88801775D01*
X128420310Y-88801773D01*
X128552773Y-88669310D01*
X128708533Y-88565235D01*
X128708534Y-88565234D01*
X128881605Y-88493546D01*
X129065333Y-88457000D01*
X129252667Y-88457000D01*
X129436395Y-88493546D01*
G37*
G36*
X159887228Y-88335703D02*
G01*
X160042100Y-88399853D01*
X160181481Y-88492985D01*
X160300015Y-88611519D01*
X160393147Y-88750900D01*
X160457297Y-88905772D01*
X160490000Y-89070184D01*
X160490000Y-89237816D01*
X160457297Y-89402228D01*
X160393147Y-89557100D01*
X160300015Y-89696481D01*
X160181481Y-89815015D01*
X160042100Y-89908147D01*
X159887228Y-89972297D01*
X159722816Y-90005000D01*
X159555184Y-90005000D01*
X159390772Y-89972297D01*
X159235900Y-89908147D01*
X159096519Y-89815015D01*
X158977985Y-89696481D01*
X158884853Y-89557100D01*
X158820703Y-89402228D01*
X158788000Y-89237816D01*
X158788000Y-89070184D01*
X158820703Y-88905772D01*
X158884853Y-88750900D01*
X158977985Y-88611519D01*
X159096519Y-88492985D01*
X159235900Y-88399853D01*
X159390772Y-88335703D01*
X159555184Y-88303000D01*
X159722816Y-88303000D01*
X159887228Y-88335703D01*
G37*
G36*
X147187228Y-85795703D02*
G01*
X147342100Y-85859853D01*
X147481481Y-85952985D01*
X147600015Y-86071519D01*
X147693147Y-86210900D01*
X147757297Y-86365772D01*
X147790000Y-86530184D01*
X147790000Y-86697816D01*
X147757297Y-86862228D01*
X147693147Y-87017100D01*
X147600015Y-87156481D01*
X147481481Y-87275015D01*
X147342100Y-87368147D01*
X147187228Y-87432297D01*
X147022816Y-87465000D01*
X146855184Y-87465000D01*
X146690772Y-87432297D01*
X146535900Y-87368147D01*
X146396519Y-87275015D01*
X146277985Y-87156481D01*
X146184853Y-87017100D01*
X146120703Y-86862228D01*
X146088000Y-86697816D01*
X146088000Y-86530184D01*
X146120703Y-86365772D01*
X146184853Y-86210900D01*
X146277985Y-86071519D01*
X146396519Y-85952985D01*
X146535900Y-85859853D01*
X146690772Y-85795703D01*
X146855184Y-85763000D01*
X147022816Y-85763000D01*
X147187228Y-85795703D01*
G37*
G36*
X149727228Y-85795703D02*
G01*
X149882100Y-85859853D01*
X150021481Y-85952985D01*
X150140015Y-86071519D01*
X150233147Y-86210900D01*
X150297297Y-86365772D01*
X150330000Y-86530184D01*
X150330000Y-86697816D01*
X150297297Y-86862228D01*
X150233147Y-87017100D01*
X150140015Y-87156481D01*
X150021481Y-87275015D01*
X149882100Y-87368147D01*
X149727228Y-87432297D01*
X149562816Y-87465000D01*
X149395184Y-87465000D01*
X149230772Y-87432297D01*
X149075900Y-87368147D01*
X148936519Y-87275015D01*
X148817985Y-87156481D01*
X148724853Y-87017100D01*
X148660703Y-86862228D01*
X148628000Y-86697816D01*
X148628000Y-86530184D01*
X148660703Y-86365772D01*
X148724853Y-86210900D01*
X148817985Y-86071519D01*
X148936519Y-85952985D01*
X149075900Y-85859853D01*
X149230772Y-85795703D01*
X149395184Y-85763000D01*
X149562816Y-85763000D01*
X149727228Y-85795703D01*
G37*
G36*
X144647228Y-85795703D02*
G01*
X144802100Y-85859853D01*
X144941481Y-85952985D01*
X145060015Y-86071519D01*
X145153147Y-86210900D01*
X145217297Y-86365772D01*
X145250000Y-86530184D01*
X145250000Y-86697816D01*
X145217297Y-86862228D01*
X145153147Y-87017100D01*
X145060015Y-87156481D01*
X144941481Y-87275015D01*
X144802100Y-87368147D01*
X144647228Y-87432297D01*
X144482816Y-87465000D01*
X144315184Y-87465000D01*
X144150772Y-87432297D01*
X143995900Y-87368147D01*
X143856519Y-87275015D01*
X143737985Y-87156481D01*
X143644853Y-87017100D01*
X143580703Y-86862228D01*
X143548000Y-86697816D01*
X143548000Y-86530184D01*
X143580703Y-86365772D01*
X143644853Y-86210900D01*
X143737985Y-86071519D01*
X143856519Y-85952985D01*
X143995900Y-85859853D01*
X144150772Y-85795703D01*
X144315184Y-85763000D01*
X144482816Y-85763000D01*
X144647228Y-85795703D01*
G37*
G36*
X142107228Y-85795703D02*
G01*
X142262100Y-85859853D01*
X142401481Y-85952985D01*
X142520015Y-86071519D01*
X142613147Y-86210900D01*
X142677297Y-86365772D01*
X142710000Y-86530184D01*
X142710000Y-86697816D01*
X142677297Y-86862228D01*
X142613147Y-87017100D01*
X142520015Y-87156481D01*
X142401481Y-87275015D01*
X142262100Y-87368147D01*
X142107228Y-87432297D01*
X141942816Y-87465000D01*
X141775184Y-87465000D01*
X141610772Y-87432297D01*
X141455900Y-87368147D01*
X141316519Y-87275015D01*
X141197985Y-87156481D01*
X141104853Y-87017100D01*
X141040703Y-86862228D01*
X141008000Y-86697816D01*
X141008000Y-86530184D01*
X141040703Y-86365772D01*
X141104853Y-86210900D01*
X141197985Y-86071519D01*
X141316519Y-85952985D01*
X141455900Y-85859853D01*
X141610772Y-85795703D01*
X141775184Y-85763000D01*
X141942816Y-85763000D01*
X142107228Y-85795703D01*
G37*
M02*
