G04 #@! TF.GenerationSoftware,KiCad,Pcbnew,(5.1.5)-2*
G04 #@! TF.CreationDate,2019-12-11T20:36:42+08:00*
G04 #@! TF.ProjectId,kicad,6b696361-642e-46b6-9963-61645f706362,rev?*
G04 #@! TF.SameCoordinates,Original*
G04 #@! TF.FileFunction,Copper,L2,Bot*
G04 #@! TF.FilePolarity,Positive*
%FSLAX46Y46*%
G04 Gerber Fmt 4.6, Leading zero omitted, Abs format (unit mm)*
G04 Created by KiCad (PCBNEW (5.1.5)-2) date 2019-12-11 20:36:42*
%MOMM*%
%LPD*%
G04 APERTURE LIST*
%ADD10C,10.160000*%
%ADD11R,1.600000X1.600000*%
%ADD12O,1.600000X1.600000*%
%ADD13C,1.600000*%
%ADD14C,1.800000*%
%ADD15R,1.800000X1.800000*%
%ADD16C,1.778000*%
%ADD17C,1.270000*%
%ADD18C,0.254000*%
G04 APERTURE END LIST*
D10*
X144399000Y-114554000D03*
X159379000Y-114554000D03*
X129409000Y-114554000D03*
D11*
X141859000Y-94234000D03*
D12*
X149479000Y-86614000D03*
X144399000Y-94234000D03*
X146939000Y-86614000D03*
X146939000Y-94234000D03*
X144399000Y-86614000D03*
X149479000Y-94234000D03*
X141859000Y-86614000D03*
D13*
X159639000Y-89154000D03*
D12*
X159639000Y-91694000D03*
X129159000Y-101346000D03*
D13*
X131699000Y-101346000D03*
D14*
X129159000Y-89408000D03*
D15*
X131699000Y-89408000D03*
D16*
X141859000Y-86614000D03*
D17*
X159379000Y-107369796D02*
X159379000Y-114554000D01*
X158308204Y-106299000D02*
X159379000Y-107369796D01*
X141859000Y-86614000D02*
X138176000Y-86614000D01*
X136906000Y-87884000D02*
X136906000Y-100838000D01*
X138176000Y-86614000D02*
X136906000Y-87884000D01*
X136906000Y-100838000D02*
X142367000Y-106299000D01*
X142367000Y-106299000D02*
X158308204Y-106299000D01*
D18*
G36*
X166091001Y-121514000D02*
G01*
X122961000Y-121514000D01*
X122961000Y-113991122D01*
X123694000Y-113991122D01*
X123694000Y-115116878D01*
X123913625Y-116221004D01*
X124344433Y-117261067D01*
X124969870Y-118197100D01*
X125765900Y-118993130D01*
X126701933Y-119618567D01*
X127741996Y-120049375D01*
X128846122Y-120269000D01*
X129971878Y-120269000D01*
X131076004Y-120049375D01*
X132116067Y-119618567D01*
X133052100Y-118993130D01*
X133848130Y-118197100D01*
X134473567Y-117261067D01*
X134904375Y-116221004D01*
X135124000Y-115116878D01*
X135124000Y-113991122D01*
X138684000Y-113991122D01*
X138684000Y-115116878D01*
X138903625Y-116221004D01*
X139334433Y-117261067D01*
X139959870Y-118197100D01*
X140755900Y-118993130D01*
X141691933Y-119618567D01*
X142731996Y-120049375D01*
X143836122Y-120269000D01*
X144961878Y-120269000D01*
X146066004Y-120049375D01*
X147106067Y-119618567D01*
X148042100Y-118993130D01*
X148444034Y-118591196D01*
X155521409Y-118591196D01*
X156107124Y-119273416D01*
X157090704Y-119821045D01*
X158162223Y-120166265D01*
X159280501Y-120295808D01*
X160402565Y-120204697D01*
X161485294Y-119896433D01*
X162487079Y-119382863D01*
X162650876Y-119273416D01*
X163236591Y-118591196D01*
X159379000Y-114733605D01*
X155521409Y-118591196D01*
X148444034Y-118591196D01*
X148838130Y-118197100D01*
X149463567Y-117261067D01*
X149894375Y-116221004D01*
X150114000Y-115116878D01*
X150114000Y-114455501D01*
X153637192Y-114455501D01*
X153728303Y-115577565D01*
X154036567Y-116660294D01*
X154550137Y-117662079D01*
X154659584Y-117825876D01*
X155341804Y-118411591D01*
X159199395Y-114554000D01*
X159558605Y-114554000D01*
X163416196Y-118411591D01*
X164098416Y-117825876D01*
X164646045Y-116842296D01*
X164991265Y-115770777D01*
X165120808Y-114652499D01*
X165029697Y-113530435D01*
X164721433Y-112447706D01*
X164207863Y-111445921D01*
X164098416Y-111282124D01*
X163416196Y-110696409D01*
X159558605Y-114554000D01*
X159199395Y-114554000D01*
X155341804Y-110696409D01*
X154659584Y-111282124D01*
X154111955Y-112265704D01*
X153766735Y-113337223D01*
X153637192Y-114455501D01*
X150114000Y-114455501D01*
X150114000Y-113991122D01*
X149894375Y-112886996D01*
X149463567Y-111846933D01*
X148838130Y-110910900D01*
X148444034Y-110516804D01*
X155521409Y-110516804D01*
X159379000Y-114374395D01*
X163236591Y-110516804D01*
X162650876Y-109834584D01*
X161667296Y-109286955D01*
X160595777Y-108941735D01*
X159477499Y-108812192D01*
X158355435Y-108903303D01*
X157272706Y-109211567D01*
X156270921Y-109725137D01*
X156107124Y-109834584D01*
X155521409Y-110516804D01*
X148444034Y-110516804D01*
X148042100Y-110114870D01*
X147106067Y-109489433D01*
X146066004Y-109058625D01*
X144961878Y-108839000D01*
X143836122Y-108839000D01*
X142731996Y-109058625D01*
X141691933Y-109489433D01*
X140755900Y-110114870D01*
X139959870Y-110910900D01*
X139334433Y-111846933D01*
X138903625Y-112886996D01*
X138684000Y-113991122D01*
X135124000Y-113991122D01*
X134904375Y-112886996D01*
X134473567Y-111846933D01*
X133848130Y-110910900D01*
X133052100Y-110114870D01*
X132116067Y-109489433D01*
X131076004Y-109058625D01*
X129971878Y-108839000D01*
X128846122Y-108839000D01*
X127741996Y-109058625D01*
X126701933Y-109489433D01*
X125765900Y-110114870D01*
X124969870Y-110910900D01*
X124344433Y-111846933D01*
X123913625Y-112886996D01*
X123694000Y-113991122D01*
X122961000Y-113991122D01*
X122961000Y-101204665D01*
X127724000Y-101204665D01*
X127724000Y-101487335D01*
X127779147Y-101764574D01*
X127887320Y-102025727D01*
X128044363Y-102260759D01*
X128244241Y-102460637D01*
X128479273Y-102617680D01*
X128740426Y-102725853D01*
X129017665Y-102781000D01*
X129300335Y-102781000D01*
X129577574Y-102725853D01*
X129838727Y-102617680D01*
X130073759Y-102460637D01*
X130273637Y-102260759D01*
X130429000Y-102028241D01*
X130584363Y-102260759D01*
X130784241Y-102460637D01*
X131019273Y-102617680D01*
X131280426Y-102725853D01*
X131557665Y-102781000D01*
X131840335Y-102781000D01*
X132117574Y-102725853D01*
X132378727Y-102617680D01*
X132613759Y-102460637D01*
X132813637Y-102260759D01*
X132970680Y-102025727D01*
X133078853Y-101764574D01*
X133134000Y-101487335D01*
X133134000Y-101204665D01*
X133078853Y-100927426D01*
X132970680Y-100666273D01*
X132813637Y-100431241D01*
X132613759Y-100231363D01*
X132378727Y-100074320D01*
X132117574Y-99966147D01*
X131840335Y-99911000D01*
X131557665Y-99911000D01*
X131280426Y-99966147D01*
X131019273Y-100074320D01*
X130784241Y-100231363D01*
X130584363Y-100431241D01*
X130429000Y-100663759D01*
X130273637Y-100431241D01*
X130073759Y-100231363D01*
X129838727Y-100074320D01*
X129577574Y-99966147D01*
X129300335Y-99911000D01*
X129017665Y-99911000D01*
X128740426Y-99966147D01*
X128479273Y-100074320D01*
X128244241Y-100231363D01*
X128044363Y-100431241D01*
X127887320Y-100666273D01*
X127779147Y-100927426D01*
X127724000Y-101204665D01*
X122961000Y-101204665D01*
X122961000Y-93434000D01*
X140420928Y-93434000D01*
X140420928Y-95034000D01*
X140433188Y-95158482D01*
X140469498Y-95278180D01*
X140528463Y-95388494D01*
X140607815Y-95485185D01*
X140704506Y-95564537D01*
X140814820Y-95623502D01*
X140934518Y-95659812D01*
X141059000Y-95672072D01*
X142659000Y-95672072D01*
X142783482Y-95659812D01*
X142903180Y-95623502D01*
X143013494Y-95564537D01*
X143110185Y-95485185D01*
X143189537Y-95388494D01*
X143248502Y-95278180D01*
X143284812Y-95158482D01*
X143285643Y-95150039D01*
X143484241Y-95348637D01*
X143719273Y-95505680D01*
X143980426Y-95613853D01*
X144257665Y-95669000D01*
X144540335Y-95669000D01*
X144817574Y-95613853D01*
X145078727Y-95505680D01*
X145313759Y-95348637D01*
X145513637Y-95148759D01*
X145669000Y-94916241D01*
X145824363Y-95148759D01*
X146024241Y-95348637D01*
X146259273Y-95505680D01*
X146520426Y-95613853D01*
X146797665Y-95669000D01*
X147080335Y-95669000D01*
X147357574Y-95613853D01*
X147618727Y-95505680D01*
X147853759Y-95348637D01*
X148053637Y-95148759D01*
X148209000Y-94916241D01*
X148364363Y-95148759D01*
X148564241Y-95348637D01*
X148799273Y-95505680D01*
X149060426Y-95613853D01*
X149337665Y-95669000D01*
X149620335Y-95669000D01*
X149897574Y-95613853D01*
X150158727Y-95505680D01*
X150393759Y-95348637D01*
X150593637Y-95148759D01*
X150750680Y-94913727D01*
X150858853Y-94652574D01*
X150914000Y-94375335D01*
X150914000Y-94092665D01*
X150858853Y-93815426D01*
X150750680Y-93554273D01*
X150593637Y-93319241D01*
X150393759Y-93119363D01*
X150158727Y-92962320D01*
X149897574Y-92854147D01*
X149620335Y-92799000D01*
X149337665Y-92799000D01*
X149060426Y-92854147D01*
X148799273Y-92962320D01*
X148564241Y-93119363D01*
X148364363Y-93319241D01*
X148209000Y-93551759D01*
X148053637Y-93319241D01*
X147853759Y-93119363D01*
X147618727Y-92962320D01*
X147357574Y-92854147D01*
X147080335Y-92799000D01*
X146797665Y-92799000D01*
X146520426Y-92854147D01*
X146259273Y-92962320D01*
X146024241Y-93119363D01*
X145824363Y-93319241D01*
X145669000Y-93551759D01*
X145513637Y-93319241D01*
X145313759Y-93119363D01*
X145078727Y-92962320D01*
X144817574Y-92854147D01*
X144540335Y-92799000D01*
X144257665Y-92799000D01*
X143980426Y-92854147D01*
X143719273Y-92962320D01*
X143484241Y-93119363D01*
X143285643Y-93317961D01*
X143284812Y-93309518D01*
X143248502Y-93189820D01*
X143189537Y-93079506D01*
X143110185Y-92982815D01*
X143013494Y-92903463D01*
X142903180Y-92844498D01*
X142783482Y-92808188D01*
X142659000Y-92795928D01*
X141059000Y-92795928D01*
X140934518Y-92808188D01*
X140814820Y-92844498D01*
X140704506Y-92903463D01*
X140607815Y-92982815D01*
X140528463Y-93079506D01*
X140469498Y-93189820D01*
X140433188Y-93309518D01*
X140420928Y-93434000D01*
X122961000Y-93434000D01*
X122961000Y-89256816D01*
X127624000Y-89256816D01*
X127624000Y-89559184D01*
X127682989Y-89855743D01*
X127798701Y-90135095D01*
X127966688Y-90386505D01*
X128180495Y-90600312D01*
X128431905Y-90768299D01*
X128711257Y-90884011D01*
X129007816Y-90943000D01*
X129310184Y-90943000D01*
X129606743Y-90884011D01*
X129886095Y-90768299D01*
X130137505Y-90600312D01*
X130203944Y-90533873D01*
X130209498Y-90552180D01*
X130268463Y-90662494D01*
X130347815Y-90759185D01*
X130444506Y-90838537D01*
X130554820Y-90897502D01*
X130674518Y-90933812D01*
X130799000Y-90946072D01*
X132599000Y-90946072D01*
X132723482Y-90933812D01*
X132843180Y-90897502D01*
X132953494Y-90838537D01*
X133050185Y-90759185D01*
X133129537Y-90662494D01*
X133188502Y-90552180D01*
X133224812Y-90432482D01*
X133237072Y-90308000D01*
X133237072Y-89012665D01*
X158204000Y-89012665D01*
X158204000Y-89295335D01*
X158259147Y-89572574D01*
X158367320Y-89833727D01*
X158524363Y-90068759D01*
X158724241Y-90268637D01*
X158956759Y-90424000D01*
X158724241Y-90579363D01*
X158524363Y-90779241D01*
X158367320Y-91014273D01*
X158259147Y-91275426D01*
X158204000Y-91552665D01*
X158204000Y-91835335D01*
X158259147Y-92112574D01*
X158367320Y-92373727D01*
X158524363Y-92608759D01*
X158724241Y-92808637D01*
X158959273Y-92965680D01*
X159220426Y-93073853D01*
X159497665Y-93129000D01*
X159780335Y-93129000D01*
X160057574Y-93073853D01*
X160318727Y-92965680D01*
X160553759Y-92808637D01*
X160753637Y-92608759D01*
X160910680Y-92373727D01*
X161018853Y-92112574D01*
X161074000Y-91835335D01*
X161074000Y-91552665D01*
X161018853Y-91275426D01*
X160910680Y-91014273D01*
X160753637Y-90779241D01*
X160553759Y-90579363D01*
X160321241Y-90424000D01*
X160553759Y-90268637D01*
X160753637Y-90068759D01*
X160910680Y-89833727D01*
X161018853Y-89572574D01*
X161074000Y-89295335D01*
X161074000Y-89012665D01*
X161018853Y-88735426D01*
X160910680Y-88474273D01*
X160753637Y-88239241D01*
X160553759Y-88039363D01*
X160318727Y-87882320D01*
X160057574Y-87774147D01*
X159780335Y-87719000D01*
X159497665Y-87719000D01*
X159220426Y-87774147D01*
X158959273Y-87882320D01*
X158724241Y-88039363D01*
X158524363Y-88239241D01*
X158367320Y-88474273D01*
X158259147Y-88735426D01*
X158204000Y-89012665D01*
X133237072Y-89012665D01*
X133237072Y-88508000D01*
X133224812Y-88383518D01*
X133188502Y-88263820D01*
X133129537Y-88153506D01*
X133050185Y-88056815D01*
X132953494Y-87977463D01*
X132843180Y-87918498D01*
X132723482Y-87882188D01*
X132599000Y-87869928D01*
X130799000Y-87869928D01*
X130674518Y-87882188D01*
X130554820Y-87918498D01*
X130444506Y-87977463D01*
X130347815Y-88056815D01*
X130268463Y-88153506D01*
X130209498Y-88263820D01*
X130203944Y-88282127D01*
X130137505Y-88215688D01*
X129886095Y-88047701D01*
X129606743Y-87931989D01*
X129310184Y-87873000D01*
X129007816Y-87873000D01*
X128711257Y-87931989D01*
X128431905Y-88047701D01*
X128180495Y-88215688D01*
X127966688Y-88429495D01*
X127798701Y-88680905D01*
X127682989Y-88960257D01*
X127624000Y-89256816D01*
X122961000Y-89256816D01*
X122961000Y-86963040D01*
X140467091Y-86963040D01*
X140561930Y-87227881D01*
X140706615Y-87469131D01*
X140895586Y-87677519D01*
X141121580Y-87845037D01*
X141375913Y-87965246D01*
X141509961Y-88005904D01*
X141732000Y-87883915D01*
X141732000Y-86741000D01*
X140588376Y-86741000D01*
X140467091Y-86963040D01*
X122961000Y-86963040D01*
X122961000Y-86264960D01*
X140467091Y-86264960D01*
X140588376Y-86487000D01*
X141732000Y-86487000D01*
X141732000Y-85344085D01*
X141986000Y-85344085D01*
X141986000Y-86487000D01*
X142006000Y-86487000D01*
X142006000Y-86741000D01*
X141986000Y-86741000D01*
X141986000Y-87883915D01*
X142208039Y-88005904D01*
X142342087Y-87965246D01*
X142596420Y-87845037D01*
X142822414Y-87677519D01*
X143011385Y-87469131D01*
X143122933Y-87283135D01*
X143127320Y-87293727D01*
X143284363Y-87528759D01*
X143484241Y-87728637D01*
X143719273Y-87885680D01*
X143980426Y-87993853D01*
X144257665Y-88049000D01*
X144540335Y-88049000D01*
X144817574Y-87993853D01*
X145078727Y-87885680D01*
X145313759Y-87728637D01*
X145513637Y-87528759D01*
X145669000Y-87296241D01*
X145824363Y-87528759D01*
X146024241Y-87728637D01*
X146259273Y-87885680D01*
X146520426Y-87993853D01*
X146797665Y-88049000D01*
X147080335Y-88049000D01*
X147357574Y-87993853D01*
X147618727Y-87885680D01*
X147853759Y-87728637D01*
X148053637Y-87528759D01*
X148209000Y-87296241D01*
X148364363Y-87528759D01*
X148564241Y-87728637D01*
X148799273Y-87885680D01*
X149060426Y-87993853D01*
X149337665Y-88049000D01*
X149620335Y-88049000D01*
X149897574Y-87993853D01*
X150158727Y-87885680D01*
X150393759Y-87728637D01*
X150593637Y-87528759D01*
X150750680Y-87293727D01*
X150858853Y-87032574D01*
X150914000Y-86755335D01*
X150914000Y-86472665D01*
X150858853Y-86195426D01*
X150750680Y-85934273D01*
X150593637Y-85699241D01*
X150393759Y-85499363D01*
X150158727Y-85342320D01*
X149897574Y-85234147D01*
X149620335Y-85179000D01*
X149337665Y-85179000D01*
X149060426Y-85234147D01*
X148799273Y-85342320D01*
X148564241Y-85499363D01*
X148364363Y-85699241D01*
X148209000Y-85931759D01*
X148053637Y-85699241D01*
X147853759Y-85499363D01*
X147618727Y-85342320D01*
X147357574Y-85234147D01*
X147080335Y-85179000D01*
X146797665Y-85179000D01*
X146520426Y-85234147D01*
X146259273Y-85342320D01*
X146024241Y-85499363D01*
X145824363Y-85699241D01*
X145669000Y-85931759D01*
X145513637Y-85699241D01*
X145313759Y-85499363D01*
X145078727Y-85342320D01*
X144817574Y-85234147D01*
X144540335Y-85179000D01*
X144257665Y-85179000D01*
X143980426Y-85234147D01*
X143719273Y-85342320D01*
X143484241Y-85499363D01*
X143284363Y-85699241D01*
X143127320Y-85934273D01*
X143122933Y-85944865D01*
X143011385Y-85758869D01*
X142822414Y-85550481D01*
X142596420Y-85382963D01*
X142342087Y-85262754D01*
X142208039Y-85222096D01*
X141986000Y-85344085D01*
X141732000Y-85344085D01*
X141509961Y-85222096D01*
X141375913Y-85262754D01*
X141121580Y-85382963D01*
X140895586Y-85550481D01*
X140706615Y-85758869D01*
X140561930Y-86000119D01*
X140467091Y-86264960D01*
X122961000Y-86264960D01*
X122961000Y-84480000D01*
X166091000Y-84480000D01*
X166091001Y-121514000D01*
G37*
X166091001Y-121514000D02*
X122961000Y-121514000D01*
X122961000Y-113991122D01*
X123694000Y-113991122D01*
X123694000Y-115116878D01*
X123913625Y-116221004D01*
X124344433Y-117261067D01*
X124969870Y-118197100D01*
X125765900Y-118993130D01*
X126701933Y-119618567D01*
X127741996Y-120049375D01*
X128846122Y-120269000D01*
X129971878Y-120269000D01*
X131076004Y-120049375D01*
X132116067Y-119618567D01*
X133052100Y-118993130D01*
X133848130Y-118197100D01*
X134473567Y-117261067D01*
X134904375Y-116221004D01*
X135124000Y-115116878D01*
X135124000Y-113991122D01*
X138684000Y-113991122D01*
X138684000Y-115116878D01*
X138903625Y-116221004D01*
X139334433Y-117261067D01*
X139959870Y-118197100D01*
X140755900Y-118993130D01*
X141691933Y-119618567D01*
X142731996Y-120049375D01*
X143836122Y-120269000D01*
X144961878Y-120269000D01*
X146066004Y-120049375D01*
X147106067Y-119618567D01*
X148042100Y-118993130D01*
X148444034Y-118591196D01*
X155521409Y-118591196D01*
X156107124Y-119273416D01*
X157090704Y-119821045D01*
X158162223Y-120166265D01*
X159280501Y-120295808D01*
X160402565Y-120204697D01*
X161485294Y-119896433D01*
X162487079Y-119382863D01*
X162650876Y-119273416D01*
X163236591Y-118591196D01*
X159379000Y-114733605D01*
X155521409Y-118591196D01*
X148444034Y-118591196D01*
X148838130Y-118197100D01*
X149463567Y-117261067D01*
X149894375Y-116221004D01*
X150114000Y-115116878D01*
X150114000Y-114455501D01*
X153637192Y-114455501D01*
X153728303Y-115577565D01*
X154036567Y-116660294D01*
X154550137Y-117662079D01*
X154659584Y-117825876D01*
X155341804Y-118411591D01*
X159199395Y-114554000D01*
X159558605Y-114554000D01*
X163416196Y-118411591D01*
X164098416Y-117825876D01*
X164646045Y-116842296D01*
X164991265Y-115770777D01*
X165120808Y-114652499D01*
X165029697Y-113530435D01*
X164721433Y-112447706D01*
X164207863Y-111445921D01*
X164098416Y-111282124D01*
X163416196Y-110696409D01*
X159558605Y-114554000D01*
X159199395Y-114554000D01*
X155341804Y-110696409D01*
X154659584Y-111282124D01*
X154111955Y-112265704D01*
X153766735Y-113337223D01*
X153637192Y-114455501D01*
X150114000Y-114455501D01*
X150114000Y-113991122D01*
X149894375Y-112886996D01*
X149463567Y-111846933D01*
X148838130Y-110910900D01*
X148444034Y-110516804D01*
X155521409Y-110516804D01*
X159379000Y-114374395D01*
X163236591Y-110516804D01*
X162650876Y-109834584D01*
X161667296Y-109286955D01*
X160595777Y-108941735D01*
X159477499Y-108812192D01*
X158355435Y-108903303D01*
X157272706Y-109211567D01*
X156270921Y-109725137D01*
X156107124Y-109834584D01*
X155521409Y-110516804D01*
X148444034Y-110516804D01*
X148042100Y-110114870D01*
X147106067Y-109489433D01*
X146066004Y-109058625D01*
X144961878Y-108839000D01*
X143836122Y-108839000D01*
X142731996Y-109058625D01*
X141691933Y-109489433D01*
X140755900Y-110114870D01*
X139959870Y-110910900D01*
X139334433Y-111846933D01*
X138903625Y-112886996D01*
X138684000Y-113991122D01*
X135124000Y-113991122D01*
X134904375Y-112886996D01*
X134473567Y-111846933D01*
X133848130Y-110910900D01*
X133052100Y-110114870D01*
X132116067Y-109489433D01*
X131076004Y-109058625D01*
X129971878Y-108839000D01*
X128846122Y-108839000D01*
X127741996Y-109058625D01*
X126701933Y-109489433D01*
X125765900Y-110114870D01*
X124969870Y-110910900D01*
X124344433Y-111846933D01*
X123913625Y-112886996D01*
X123694000Y-113991122D01*
X122961000Y-113991122D01*
X122961000Y-101204665D01*
X127724000Y-101204665D01*
X127724000Y-101487335D01*
X127779147Y-101764574D01*
X127887320Y-102025727D01*
X128044363Y-102260759D01*
X128244241Y-102460637D01*
X128479273Y-102617680D01*
X128740426Y-102725853D01*
X129017665Y-102781000D01*
X129300335Y-102781000D01*
X129577574Y-102725853D01*
X129838727Y-102617680D01*
X130073759Y-102460637D01*
X130273637Y-102260759D01*
X130429000Y-102028241D01*
X130584363Y-102260759D01*
X130784241Y-102460637D01*
X131019273Y-102617680D01*
X131280426Y-102725853D01*
X131557665Y-102781000D01*
X131840335Y-102781000D01*
X132117574Y-102725853D01*
X132378727Y-102617680D01*
X132613759Y-102460637D01*
X132813637Y-102260759D01*
X132970680Y-102025727D01*
X133078853Y-101764574D01*
X133134000Y-101487335D01*
X133134000Y-101204665D01*
X133078853Y-100927426D01*
X132970680Y-100666273D01*
X132813637Y-100431241D01*
X132613759Y-100231363D01*
X132378727Y-100074320D01*
X132117574Y-99966147D01*
X131840335Y-99911000D01*
X131557665Y-99911000D01*
X131280426Y-99966147D01*
X131019273Y-100074320D01*
X130784241Y-100231363D01*
X130584363Y-100431241D01*
X130429000Y-100663759D01*
X130273637Y-100431241D01*
X130073759Y-100231363D01*
X129838727Y-100074320D01*
X129577574Y-99966147D01*
X129300335Y-99911000D01*
X129017665Y-99911000D01*
X128740426Y-99966147D01*
X128479273Y-100074320D01*
X128244241Y-100231363D01*
X128044363Y-100431241D01*
X127887320Y-100666273D01*
X127779147Y-100927426D01*
X127724000Y-101204665D01*
X122961000Y-101204665D01*
X122961000Y-93434000D01*
X140420928Y-93434000D01*
X140420928Y-95034000D01*
X140433188Y-95158482D01*
X140469498Y-95278180D01*
X140528463Y-95388494D01*
X140607815Y-95485185D01*
X140704506Y-95564537D01*
X140814820Y-95623502D01*
X140934518Y-95659812D01*
X141059000Y-95672072D01*
X142659000Y-95672072D01*
X142783482Y-95659812D01*
X142903180Y-95623502D01*
X143013494Y-95564537D01*
X143110185Y-95485185D01*
X143189537Y-95388494D01*
X143248502Y-95278180D01*
X143284812Y-95158482D01*
X143285643Y-95150039D01*
X143484241Y-95348637D01*
X143719273Y-95505680D01*
X143980426Y-95613853D01*
X144257665Y-95669000D01*
X144540335Y-95669000D01*
X144817574Y-95613853D01*
X145078727Y-95505680D01*
X145313759Y-95348637D01*
X145513637Y-95148759D01*
X145669000Y-94916241D01*
X145824363Y-95148759D01*
X146024241Y-95348637D01*
X146259273Y-95505680D01*
X146520426Y-95613853D01*
X146797665Y-95669000D01*
X147080335Y-95669000D01*
X147357574Y-95613853D01*
X147618727Y-95505680D01*
X147853759Y-95348637D01*
X148053637Y-95148759D01*
X148209000Y-94916241D01*
X148364363Y-95148759D01*
X148564241Y-95348637D01*
X148799273Y-95505680D01*
X149060426Y-95613853D01*
X149337665Y-95669000D01*
X149620335Y-95669000D01*
X149897574Y-95613853D01*
X150158727Y-95505680D01*
X150393759Y-95348637D01*
X150593637Y-95148759D01*
X150750680Y-94913727D01*
X150858853Y-94652574D01*
X150914000Y-94375335D01*
X150914000Y-94092665D01*
X150858853Y-93815426D01*
X150750680Y-93554273D01*
X150593637Y-93319241D01*
X150393759Y-93119363D01*
X150158727Y-92962320D01*
X149897574Y-92854147D01*
X149620335Y-92799000D01*
X149337665Y-92799000D01*
X149060426Y-92854147D01*
X148799273Y-92962320D01*
X148564241Y-93119363D01*
X148364363Y-93319241D01*
X148209000Y-93551759D01*
X148053637Y-93319241D01*
X147853759Y-93119363D01*
X147618727Y-92962320D01*
X147357574Y-92854147D01*
X147080335Y-92799000D01*
X146797665Y-92799000D01*
X146520426Y-92854147D01*
X146259273Y-92962320D01*
X146024241Y-93119363D01*
X145824363Y-93319241D01*
X145669000Y-93551759D01*
X145513637Y-93319241D01*
X145313759Y-93119363D01*
X145078727Y-92962320D01*
X144817574Y-92854147D01*
X144540335Y-92799000D01*
X144257665Y-92799000D01*
X143980426Y-92854147D01*
X143719273Y-92962320D01*
X143484241Y-93119363D01*
X143285643Y-93317961D01*
X143284812Y-93309518D01*
X143248502Y-93189820D01*
X143189537Y-93079506D01*
X143110185Y-92982815D01*
X143013494Y-92903463D01*
X142903180Y-92844498D01*
X142783482Y-92808188D01*
X142659000Y-92795928D01*
X141059000Y-92795928D01*
X140934518Y-92808188D01*
X140814820Y-92844498D01*
X140704506Y-92903463D01*
X140607815Y-92982815D01*
X140528463Y-93079506D01*
X140469498Y-93189820D01*
X140433188Y-93309518D01*
X140420928Y-93434000D01*
X122961000Y-93434000D01*
X122961000Y-89256816D01*
X127624000Y-89256816D01*
X127624000Y-89559184D01*
X127682989Y-89855743D01*
X127798701Y-90135095D01*
X127966688Y-90386505D01*
X128180495Y-90600312D01*
X128431905Y-90768299D01*
X128711257Y-90884011D01*
X129007816Y-90943000D01*
X129310184Y-90943000D01*
X129606743Y-90884011D01*
X129886095Y-90768299D01*
X130137505Y-90600312D01*
X130203944Y-90533873D01*
X130209498Y-90552180D01*
X130268463Y-90662494D01*
X130347815Y-90759185D01*
X130444506Y-90838537D01*
X130554820Y-90897502D01*
X130674518Y-90933812D01*
X130799000Y-90946072D01*
X132599000Y-90946072D01*
X132723482Y-90933812D01*
X132843180Y-90897502D01*
X132953494Y-90838537D01*
X133050185Y-90759185D01*
X133129537Y-90662494D01*
X133188502Y-90552180D01*
X133224812Y-90432482D01*
X133237072Y-90308000D01*
X133237072Y-89012665D01*
X158204000Y-89012665D01*
X158204000Y-89295335D01*
X158259147Y-89572574D01*
X158367320Y-89833727D01*
X158524363Y-90068759D01*
X158724241Y-90268637D01*
X158956759Y-90424000D01*
X158724241Y-90579363D01*
X158524363Y-90779241D01*
X158367320Y-91014273D01*
X158259147Y-91275426D01*
X158204000Y-91552665D01*
X158204000Y-91835335D01*
X158259147Y-92112574D01*
X158367320Y-92373727D01*
X158524363Y-92608759D01*
X158724241Y-92808637D01*
X158959273Y-92965680D01*
X159220426Y-93073853D01*
X159497665Y-93129000D01*
X159780335Y-93129000D01*
X160057574Y-93073853D01*
X160318727Y-92965680D01*
X160553759Y-92808637D01*
X160753637Y-92608759D01*
X160910680Y-92373727D01*
X161018853Y-92112574D01*
X161074000Y-91835335D01*
X161074000Y-91552665D01*
X161018853Y-91275426D01*
X160910680Y-91014273D01*
X160753637Y-90779241D01*
X160553759Y-90579363D01*
X160321241Y-90424000D01*
X160553759Y-90268637D01*
X160753637Y-90068759D01*
X160910680Y-89833727D01*
X161018853Y-89572574D01*
X161074000Y-89295335D01*
X161074000Y-89012665D01*
X161018853Y-88735426D01*
X160910680Y-88474273D01*
X160753637Y-88239241D01*
X160553759Y-88039363D01*
X160318727Y-87882320D01*
X160057574Y-87774147D01*
X159780335Y-87719000D01*
X159497665Y-87719000D01*
X159220426Y-87774147D01*
X158959273Y-87882320D01*
X158724241Y-88039363D01*
X158524363Y-88239241D01*
X158367320Y-88474273D01*
X158259147Y-88735426D01*
X158204000Y-89012665D01*
X133237072Y-89012665D01*
X133237072Y-88508000D01*
X133224812Y-88383518D01*
X133188502Y-88263820D01*
X133129537Y-88153506D01*
X133050185Y-88056815D01*
X132953494Y-87977463D01*
X132843180Y-87918498D01*
X132723482Y-87882188D01*
X132599000Y-87869928D01*
X130799000Y-87869928D01*
X130674518Y-87882188D01*
X130554820Y-87918498D01*
X130444506Y-87977463D01*
X130347815Y-88056815D01*
X130268463Y-88153506D01*
X130209498Y-88263820D01*
X130203944Y-88282127D01*
X130137505Y-88215688D01*
X129886095Y-88047701D01*
X129606743Y-87931989D01*
X129310184Y-87873000D01*
X129007816Y-87873000D01*
X128711257Y-87931989D01*
X128431905Y-88047701D01*
X128180495Y-88215688D01*
X127966688Y-88429495D01*
X127798701Y-88680905D01*
X127682989Y-88960257D01*
X127624000Y-89256816D01*
X122961000Y-89256816D01*
X122961000Y-86963040D01*
X140467091Y-86963040D01*
X140561930Y-87227881D01*
X140706615Y-87469131D01*
X140895586Y-87677519D01*
X141121580Y-87845037D01*
X141375913Y-87965246D01*
X141509961Y-88005904D01*
X141732000Y-87883915D01*
X141732000Y-86741000D01*
X140588376Y-86741000D01*
X140467091Y-86963040D01*
X122961000Y-86963040D01*
X122961000Y-86264960D01*
X140467091Y-86264960D01*
X140588376Y-86487000D01*
X141732000Y-86487000D01*
X141732000Y-85344085D01*
X141986000Y-85344085D01*
X141986000Y-86487000D01*
X142006000Y-86487000D01*
X142006000Y-86741000D01*
X141986000Y-86741000D01*
X141986000Y-87883915D01*
X142208039Y-88005904D01*
X142342087Y-87965246D01*
X142596420Y-87845037D01*
X142822414Y-87677519D01*
X143011385Y-87469131D01*
X143122933Y-87283135D01*
X143127320Y-87293727D01*
X143284363Y-87528759D01*
X143484241Y-87728637D01*
X143719273Y-87885680D01*
X143980426Y-87993853D01*
X144257665Y-88049000D01*
X144540335Y-88049000D01*
X144817574Y-87993853D01*
X145078727Y-87885680D01*
X145313759Y-87728637D01*
X145513637Y-87528759D01*
X145669000Y-87296241D01*
X145824363Y-87528759D01*
X146024241Y-87728637D01*
X146259273Y-87885680D01*
X146520426Y-87993853D01*
X146797665Y-88049000D01*
X147080335Y-88049000D01*
X147357574Y-87993853D01*
X147618727Y-87885680D01*
X147853759Y-87728637D01*
X148053637Y-87528759D01*
X148209000Y-87296241D01*
X148364363Y-87528759D01*
X148564241Y-87728637D01*
X148799273Y-87885680D01*
X149060426Y-87993853D01*
X149337665Y-88049000D01*
X149620335Y-88049000D01*
X149897574Y-87993853D01*
X150158727Y-87885680D01*
X150393759Y-87728637D01*
X150593637Y-87528759D01*
X150750680Y-87293727D01*
X150858853Y-87032574D01*
X150914000Y-86755335D01*
X150914000Y-86472665D01*
X150858853Y-86195426D01*
X150750680Y-85934273D01*
X150593637Y-85699241D01*
X150393759Y-85499363D01*
X150158727Y-85342320D01*
X149897574Y-85234147D01*
X149620335Y-85179000D01*
X149337665Y-85179000D01*
X149060426Y-85234147D01*
X148799273Y-85342320D01*
X148564241Y-85499363D01*
X148364363Y-85699241D01*
X148209000Y-85931759D01*
X148053637Y-85699241D01*
X147853759Y-85499363D01*
X147618727Y-85342320D01*
X147357574Y-85234147D01*
X147080335Y-85179000D01*
X146797665Y-85179000D01*
X146520426Y-85234147D01*
X146259273Y-85342320D01*
X146024241Y-85499363D01*
X145824363Y-85699241D01*
X145669000Y-85931759D01*
X145513637Y-85699241D01*
X145313759Y-85499363D01*
X145078727Y-85342320D01*
X144817574Y-85234147D01*
X144540335Y-85179000D01*
X144257665Y-85179000D01*
X143980426Y-85234147D01*
X143719273Y-85342320D01*
X143484241Y-85499363D01*
X143284363Y-85699241D01*
X143127320Y-85934273D01*
X143122933Y-85944865D01*
X143011385Y-85758869D01*
X142822414Y-85550481D01*
X142596420Y-85382963D01*
X142342087Y-85262754D01*
X142208039Y-85222096D01*
X141986000Y-85344085D01*
X141732000Y-85344085D01*
X141509961Y-85222096D01*
X141375913Y-85262754D01*
X141121580Y-85382963D01*
X140895586Y-85550481D01*
X140706615Y-85758869D01*
X140561930Y-86000119D01*
X140467091Y-86264960D01*
X122961000Y-86264960D01*
X122961000Y-84480000D01*
X166091000Y-84480000D01*
X166091001Y-121514000D01*
M02*
