G04 #@! TF.GenerationSoftware,KiCad,Pcbnew,(5.1.5)-2*
G04 #@! TF.CreationDate,2019-12-11T20:36:42+08:00*
G04 #@! TF.ProjectId,kicad,6b696361-642e-46b6-9963-61645f706362,rev?*
G04 #@! TF.SameCoordinates,Original*
G04 #@! TF.FileFunction,Legend,Top*
G04 #@! TF.FilePolarity,Positive*
%FSLAX46Y46*%
G04 Gerber Fmt 4.6, Leading zero omitted, Abs format (unit mm)*
G04 Created by KiCad (PCBNEW (5.1.5)-2) date 2019-12-11 20:36:42*
%MOMM*%
%LPD*%
G04 APERTURE LIST*
%ADD10C,0.120000*%
%ADD11C,0.150000*%
G04 APERTURE END LIST*
D10*
X129409000Y-109304000D02*
G75*
G03X129409000Y-119804000I0J-5250000D01*
G01*
X159409000Y-119804000D02*
G75*
G03X159409000Y-109304000I0J5250000D01*
G01*
X159409000Y-109304000D02*
X129409000Y-109304000D01*
X129409000Y-119804000D02*
X159409000Y-119804000D01*
X140529000Y-89424000D02*
G75*
G02X140529000Y-91424000I0J-1000000D01*
G01*
X140529000Y-91424000D02*
X140529000Y-93074000D01*
X140529000Y-93074000D02*
X150809000Y-93074000D01*
X150809000Y-93074000D02*
X150809000Y-87774000D01*
X150809000Y-87774000D02*
X140529000Y-87774000D01*
X140529000Y-87774000D02*
X140529000Y-89424000D01*
X161009000Y-89154000D02*
G75*
G03X161009000Y-89154000I-1370000J0D01*
G01*
X159639000Y-90524000D02*
X159639000Y-90594000D01*
X130329000Y-101346000D02*
X130259000Y-101346000D01*
X133069000Y-101346000D02*
G75*
G03X133069000Y-101346000I-1370000J0D01*
G01*
X132989000Y-90953000D02*
X132989000Y-87863000D01*
X132929000Y-89408000D02*
G75*
G03X132929000Y-89408000I-2500000J0D01*
G01*
X127439000Y-89408462D02*
G75*
G02X132989000Y-87863170I2990000J462D01*
G01*
X127439000Y-89407538D02*
G75*
G03X132989000Y-90952830I2990000J-462D01*
G01*
D11*
X136825666Y-107756380D02*
X136825666Y-108470666D01*
X136778047Y-108613523D01*
X136682809Y-108708761D01*
X136539952Y-108756380D01*
X136444714Y-108756380D01*
X137825666Y-108756380D02*
X137254238Y-108756380D01*
X137539952Y-108756380D02*
X137539952Y-107756380D01*
X137444714Y-107899238D01*
X137349476Y-107994476D01*
X137254238Y-108042095D01*
X138767095Y-89876380D02*
X138767095Y-90685904D01*
X138814714Y-90781142D01*
X138862333Y-90828761D01*
X138957571Y-90876380D01*
X139148047Y-90876380D01*
X139243285Y-90828761D01*
X139290904Y-90781142D01*
X139338523Y-90685904D01*
X139338523Y-89876380D01*
X140338523Y-90876380D02*
X139767095Y-90876380D01*
X140052809Y-90876380D02*
X140052809Y-89876380D01*
X139957571Y-90019238D01*
X139862333Y-90114476D01*
X139767095Y-90162095D01*
X161842333Y-90876380D02*
X161509000Y-90400190D01*
X161270904Y-90876380D02*
X161270904Y-89876380D01*
X161651857Y-89876380D01*
X161747095Y-89924000D01*
X161794714Y-89971619D01*
X161842333Y-90066857D01*
X161842333Y-90209714D01*
X161794714Y-90304952D01*
X161747095Y-90352571D01*
X161651857Y-90400190D01*
X161270904Y-90400190D01*
X162223285Y-89971619D02*
X162270904Y-89924000D01*
X162366142Y-89876380D01*
X162604238Y-89876380D01*
X162699476Y-89924000D01*
X162747095Y-89971619D01*
X162794714Y-90066857D01*
X162794714Y-90162095D01*
X162747095Y-90304952D01*
X162175666Y-90876380D01*
X162794714Y-90876380D01*
X130262333Y-104168380D02*
X129929000Y-103692190D01*
X129690904Y-104168380D02*
X129690904Y-103168380D01*
X130071857Y-103168380D01*
X130167095Y-103216000D01*
X130214714Y-103263619D01*
X130262333Y-103358857D01*
X130262333Y-103501714D01*
X130214714Y-103596952D01*
X130167095Y-103644571D01*
X130071857Y-103692190D01*
X129690904Y-103692190D01*
X131214714Y-104168380D02*
X130643285Y-104168380D01*
X130929000Y-104168380D02*
X130929000Y-103168380D01*
X130833761Y-103311238D01*
X130738523Y-103406476D01*
X130643285Y-103454095D01*
X125499904Y-89860380D02*
X125499904Y-88860380D01*
X125738000Y-88860380D01*
X125880857Y-88908000D01*
X125976095Y-89003238D01*
X126023714Y-89098476D01*
X126071333Y-89288952D01*
X126071333Y-89431809D01*
X126023714Y-89622285D01*
X125976095Y-89717523D01*
X125880857Y-89812761D01*
X125738000Y-89860380D01*
X125499904Y-89860380D01*
X127023714Y-89860380D02*
X126452285Y-89860380D01*
X126738000Y-89860380D02*
X126738000Y-88860380D01*
X126642761Y-89003238D01*
X126547523Y-89098476D01*
X126452285Y-89146095D01*
M02*
