%TF.GenerationSoftware,KiCad,Pcbnew,(6.0.5)*%
%TF.CreationDate,2022-05-26T18:09:24+08:00*%
%TF.ProjectId,Dot_Board,446f745f-426f-4617-9264-2e6b69636164,rev?*%
%TF.SameCoordinates,Original*%
%TF.FileFunction,Soldermask,Top*%
%TF.FilePolarity,Negative*%
%FSLAX46Y46*%
G04 Gerber Fmt 4.6, Leading zero omitted, Abs format (unit mm)*
G04 Created by KiCad (PCBNEW (6.0.5)) date 2022-05-26 18:09:24*
%MOMM*%
%LPD*%
G01*
G04 APERTURE LIST*
%ADD10C,2.000000*%
%ADD11C,5.000000*%
G04 APERTURE END LIST*
D10*
X193160000Y-149840000D03*
X190620000Y-149840000D03*
X193160000Y-147300000D03*
X190620000Y-147300000D03*
X198120000Y-147320000D03*
X134800000Y-149810000D03*
X132260000Y-149810000D03*
X134800000Y-147270000D03*
X132260000Y-147270000D03*
X183000000Y-149840000D03*
X180460000Y-149840000D03*
X188080000Y-149840000D03*
X185540000Y-149840000D03*
X183000000Y-147300000D03*
X180460000Y-147300000D03*
X188080000Y-147300000D03*
X185540000Y-147300000D03*
X172840000Y-149840000D03*
X170300000Y-149840000D03*
X177920000Y-149840000D03*
X175380000Y-149840000D03*
X172840000Y-147300000D03*
X170300000Y-147300000D03*
X177920000Y-147300000D03*
X175380000Y-147300000D03*
X124640000Y-147270000D03*
X122100000Y-147270000D03*
X129720000Y-147270000D03*
X127180000Y-147270000D03*
X124640000Y-149810000D03*
X122100000Y-149810000D03*
X129720000Y-149810000D03*
X127180000Y-149810000D03*
X114480000Y-149810000D03*
X111940000Y-149810000D03*
X119560000Y-149810000D03*
X117020000Y-149810000D03*
X119560000Y-147270000D03*
X117020000Y-147270000D03*
X114480000Y-147270000D03*
X111940000Y-147270000D03*
X106830000Y-142210000D03*
X106830000Y-139670000D03*
X106830000Y-137130000D03*
D11*
X107593355Y-56299014D03*
D10*
X185550000Y-53290000D03*
X193170000Y-53290000D03*
X190630000Y-53290000D03*
X188090000Y-53290000D03*
X175390000Y-53290000D03*
X183010000Y-53290000D03*
X177930000Y-53290000D03*
X180470000Y-53290000D03*
X165230000Y-53290000D03*
X172850000Y-53290000D03*
X167770000Y-53290000D03*
X170310000Y-53290000D03*
X162690000Y-53290000D03*
X160150000Y-53290000D03*
X149990000Y-53290000D03*
X142370000Y-53290000D03*
X157610000Y-53290000D03*
X147450000Y-53290000D03*
X144910000Y-53290000D03*
X137290000Y-53290000D03*
X134750000Y-53290000D03*
X139830000Y-53290000D03*
X155070000Y-53290000D03*
X152530000Y-53290000D03*
X119510000Y-53290000D03*
X111890000Y-53290000D03*
X124590000Y-53290000D03*
X114430000Y-53290000D03*
X129670000Y-53290000D03*
X122050000Y-53290000D03*
X132210000Y-53290000D03*
X127130000Y-53290000D03*
X116970000Y-53290000D03*
X198120000Y-55880000D03*
X188070000Y-55750000D03*
X193150000Y-55750000D03*
X190610000Y-55750000D03*
X177910000Y-55750000D03*
X185530000Y-55750000D03*
X180450000Y-55750000D03*
X182990000Y-55750000D03*
X167750000Y-55750000D03*
X175370000Y-55750000D03*
X170290000Y-55750000D03*
X172830000Y-55750000D03*
X165210000Y-55750000D03*
X162670000Y-55750000D03*
X152510000Y-55750000D03*
X144890000Y-55750000D03*
X160130000Y-55750000D03*
X149970000Y-55750000D03*
X147430000Y-55750000D03*
X139810000Y-55750000D03*
X137270000Y-55750000D03*
X142350000Y-55750000D03*
X157590000Y-55750000D03*
X155050000Y-55750000D03*
X122030000Y-55750000D03*
X114410000Y-55750000D03*
X111870000Y-55750000D03*
X127110000Y-55750000D03*
X116950000Y-55750000D03*
X132190000Y-55750000D03*
X124570000Y-55750000D03*
X134730000Y-55750000D03*
X129650000Y-55750000D03*
X119490000Y-55750000D03*
X200810000Y-134590000D03*
X200810000Y-142210000D03*
X200810000Y-139670000D03*
X200810000Y-137130000D03*
X200810000Y-124430000D03*
X200810000Y-132050000D03*
X200810000Y-126970000D03*
X200810000Y-129510000D03*
X200810000Y-114270000D03*
X200810000Y-121890000D03*
X200810000Y-116810000D03*
X200810000Y-119350000D03*
X200810000Y-111730000D03*
X200810000Y-109190000D03*
X200810000Y-99030000D03*
X200810000Y-91410000D03*
X200810000Y-106650000D03*
X200810000Y-96490000D03*
X200810000Y-93950000D03*
X200810000Y-86330000D03*
X200810000Y-83790000D03*
X200810000Y-88870000D03*
X200810000Y-104110000D03*
X200810000Y-101570000D03*
X200810000Y-68550000D03*
X200810000Y-60930000D03*
X200810000Y-73630000D03*
X200810000Y-63470000D03*
X200810000Y-78710000D03*
X200810000Y-71090000D03*
X200810000Y-81250000D03*
X200810000Y-76170000D03*
X200810000Y-66010000D03*
X198120000Y-147320000D03*
X198270000Y-137130000D03*
X198270000Y-142210000D03*
X198270000Y-139670000D03*
X198270000Y-126970000D03*
X198270000Y-134590000D03*
X198270000Y-129510000D03*
X198270000Y-132050000D03*
X198270000Y-116810000D03*
X198270000Y-124430000D03*
X198270000Y-119350000D03*
X198270000Y-121890000D03*
X198270000Y-114270000D03*
X198270000Y-111730000D03*
X198270000Y-101570000D03*
X198270000Y-93950000D03*
X198270000Y-109190000D03*
X198270000Y-99030000D03*
X198270000Y-96490000D03*
X198270000Y-88870000D03*
X198270000Y-86330000D03*
X198270000Y-91410000D03*
X198270000Y-106650000D03*
X198270000Y-104110000D03*
X198270000Y-71090000D03*
X198270000Y-63470000D03*
X198270000Y-60930000D03*
X198270000Y-76170000D03*
X198270000Y-66010000D03*
X198270000Y-81250000D03*
X198270000Y-73630000D03*
X198270000Y-83790000D03*
X198270000Y-78710000D03*
X198270000Y-68550000D03*
X195730000Y-137130000D03*
X195730000Y-142210000D03*
X195730000Y-139670000D03*
X195730000Y-126970000D03*
X195730000Y-134590000D03*
X195730000Y-129510000D03*
X195730000Y-132050000D03*
X195730000Y-116810000D03*
X195730000Y-124430000D03*
X195730000Y-119350000D03*
X195730000Y-121890000D03*
X195730000Y-114270000D03*
X195730000Y-111730000D03*
X195730000Y-101570000D03*
X195730000Y-93950000D03*
X195730000Y-109190000D03*
X195730000Y-99030000D03*
X195730000Y-96490000D03*
X195730000Y-88870000D03*
X195730000Y-86330000D03*
X195730000Y-91410000D03*
X195730000Y-106650000D03*
X195730000Y-104110000D03*
X195730000Y-71090000D03*
X195730000Y-63470000D03*
X195730000Y-60930000D03*
X195730000Y-76170000D03*
X195730000Y-66010000D03*
X195730000Y-81250000D03*
X195730000Y-73630000D03*
X195730000Y-83790000D03*
X195730000Y-78710000D03*
X195730000Y-68550000D03*
X109370000Y-137130000D03*
X109370000Y-142210000D03*
X109370000Y-139670000D03*
X109370000Y-126970000D03*
X109370000Y-134590000D03*
X109370000Y-129510000D03*
X109370000Y-132050000D03*
X109370000Y-116810000D03*
X109370000Y-124430000D03*
X109370000Y-119350000D03*
X109370000Y-121890000D03*
X109370000Y-114270000D03*
X109370000Y-111730000D03*
X109370000Y-101570000D03*
X109370000Y-93950000D03*
X109370000Y-109190000D03*
X109370000Y-99030000D03*
X109370000Y-96490000D03*
X109370000Y-88870000D03*
X109370000Y-86330000D03*
X109370000Y-91410000D03*
X109370000Y-106650000D03*
X109370000Y-104110000D03*
X109370000Y-71090000D03*
X109370000Y-63470000D03*
X109370000Y-60930000D03*
X109370000Y-76170000D03*
X109370000Y-66010000D03*
X109370000Y-81250000D03*
X109370000Y-73630000D03*
X109370000Y-83790000D03*
X109370000Y-78710000D03*
X109370000Y-68550000D03*
X111907742Y-144686769D03*
X111910000Y-134590000D03*
X111910000Y-142210000D03*
X111910000Y-139670000D03*
X111910000Y-137130000D03*
X111910000Y-124430000D03*
X111910000Y-132050000D03*
X111910000Y-126970000D03*
X111910000Y-129510000D03*
X111910000Y-114270000D03*
X111910000Y-121890000D03*
X111910000Y-116810000D03*
X111910000Y-119350000D03*
X111910000Y-111730000D03*
X111910000Y-109190000D03*
X111910000Y-99030000D03*
X111910000Y-91410000D03*
X111910000Y-106650000D03*
X111910000Y-96490000D03*
X111910000Y-93950000D03*
X111910000Y-86330000D03*
X111910000Y-83790000D03*
X111910000Y-88870000D03*
X111910000Y-104110000D03*
X111910000Y-101570000D03*
X111910000Y-68550000D03*
X111910000Y-60930000D03*
X111923268Y-58296769D03*
X111910000Y-73630000D03*
X111910000Y-63470000D03*
X111910000Y-78710000D03*
X111910000Y-71090000D03*
X111910000Y-81250000D03*
X111910000Y-76170000D03*
X111910000Y-66010000D03*
X193154474Y-144680000D03*
X193156732Y-134583231D03*
X193156732Y-142203231D03*
X193156732Y-139663231D03*
X193156732Y-137123231D03*
X193156732Y-124423231D03*
X193156732Y-132043231D03*
X193156732Y-126963231D03*
X193156732Y-129503231D03*
X193156732Y-114263231D03*
X193156732Y-121883231D03*
X193156732Y-116803231D03*
X193156732Y-119343231D03*
X193156732Y-111723231D03*
X193156732Y-109183231D03*
X193156732Y-99023231D03*
X193156732Y-91403231D03*
X193156732Y-106643231D03*
X193156732Y-96483231D03*
X193156732Y-93943231D03*
X193156732Y-86323231D03*
X193156732Y-83783231D03*
X193156732Y-88863231D03*
X193156732Y-104103231D03*
X193156732Y-101563231D03*
X193156732Y-68543231D03*
X193156732Y-60923231D03*
X193170000Y-58290000D03*
X193156732Y-73623231D03*
X193156732Y-63463231D03*
X193156732Y-78703231D03*
X193156732Y-71083231D03*
X193156732Y-81243231D03*
X193156732Y-76163231D03*
X193156732Y-66003231D03*
X190600000Y-144680000D03*
X190602258Y-134583231D03*
X190602258Y-142203231D03*
X190602258Y-139663231D03*
X190602258Y-137123231D03*
X190602258Y-124423231D03*
X190602258Y-132043231D03*
X190602258Y-126963231D03*
X190602258Y-129503231D03*
X190602258Y-114263231D03*
X190602258Y-121883231D03*
X190602258Y-116803231D03*
X190602258Y-119343231D03*
X190602258Y-111723231D03*
X190602258Y-109183231D03*
X190602258Y-99023231D03*
X190602258Y-91403231D03*
X190602258Y-106643231D03*
X190602258Y-96483231D03*
X190602258Y-93943231D03*
X190602258Y-86323231D03*
X190602258Y-83783231D03*
X190602258Y-88863231D03*
X190602258Y-104103231D03*
X190602258Y-101563231D03*
X190602258Y-68543231D03*
X190602258Y-60923231D03*
X190615526Y-58290000D03*
X190602258Y-73623231D03*
X190602258Y-63463231D03*
X190602258Y-78703231D03*
X190602258Y-71083231D03*
X190602258Y-81243231D03*
X190602258Y-76163231D03*
X190602258Y-66003231D03*
X188045527Y-144680000D03*
X188047785Y-134583231D03*
X188047785Y-142203231D03*
X188047785Y-139663231D03*
X188047785Y-137123231D03*
X188047785Y-124423231D03*
X188047785Y-132043231D03*
X188047785Y-126963231D03*
X188047785Y-129503231D03*
X188047785Y-114263231D03*
X188047785Y-121883231D03*
X188047785Y-116803231D03*
X188047785Y-119343231D03*
X188047785Y-111723231D03*
X188047785Y-109183231D03*
X188047785Y-99023231D03*
X188047785Y-91403231D03*
X188047785Y-106643231D03*
X188047785Y-96483231D03*
X188047785Y-93943231D03*
X188047785Y-86323231D03*
X188047785Y-83783231D03*
X188047785Y-88863231D03*
X188047785Y-104103231D03*
X188047785Y-101563231D03*
X188047785Y-68543231D03*
X188047785Y-60923231D03*
X188061053Y-58290000D03*
X188047785Y-73623231D03*
X188047785Y-63463231D03*
X188047785Y-78703231D03*
X188047785Y-71083231D03*
X188047785Y-81243231D03*
X188047785Y-76163231D03*
X188047785Y-66003231D03*
X185491053Y-144680000D03*
X185493311Y-134583231D03*
X185493311Y-142203231D03*
X185493311Y-139663231D03*
X185493311Y-137123231D03*
X185493311Y-124423231D03*
X185493311Y-132043231D03*
X185493311Y-126963231D03*
X185493311Y-129503231D03*
X185493311Y-114263231D03*
X185493311Y-121883231D03*
X185493311Y-116803231D03*
X185493311Y-119343231D03*
X185493311Y-111723231D03*
X185493311Y-109183231D03*
X185493311Y-99023231D03*
X185493311Y-91403231D03*
X185493311Y-106643231D03*
X185493311Y-96483231D03*
X185493311Y-93943231D03*
X185493311Y-86323231D03*
X185493311Y-83783231D03*
X185493311Y-88863231D03*
X185493311Y-104103231D03*
X185493311Y-101563231D03*
X185493311Y-68543231D03*
X185493311Y-60923231D03*
X185506579Y-58290000D03*
X185493311Y-73623231D03*
X185493311Y-63463231D03*
X185493311Y-78703231D03*
X185493311Y-71083231D03*
X185493311Y-81243231D03*
X185493311Y-76163231D03*
X185493311Y-66003231D03*
X183027742Y-144686769D03*
X183030000Y-134590000D03*
X183030000Y-142210000D03*
X183030000Y-139670000D03*
X183030000Y-137130000D03*
X183030000Y-124430000D03*
X183030000Y-132050000D03*
X183030000Y-126970000D03*
X183030000Y-129510000D03*
X183030000Y-114270000D03*
X183030000Y-121890000D03*
X183030000Y-116810000D03*
X183030000Y-119350000D03*
X183030000Y-111730000D03*
X183030000Y-109190000D03*
X183030000Y-99030000D03*
X183030000Y-91410000D03*
X183030000Y-106650000D03*
X183030000Y-96490000D03*
X183030000Y-93950000D03*
X183030000Y-86330000D03*
X183030000Y-83790000D03*
X183030000Y-88870000D03*
X183030000Y-104110000D03*
X183030000Y-101570000D03*
X183030000Y-68550000D03*
X183030000Y-60930000D03*
X183043268Y-58296769D03*
X183030000Y-73630000D03*
X183030000Y-63470000D03*
X183030000Y-78710000D03*
X183030000Y-71090000D03*
X183030000Y-81250000D03*
X183030000Y-76170000D03*
X183030000Y-66010000D03*
X180487742Y-144686769D03*
X180490000Y-134590000D03*
X180490000Y-142210000D03*
X180490000Y-139670000D03*
X180490000Y-137130000D03*
X180490000Y-124430000D03*
X180490000Y-132050000D03*
X180490000Y-126970000D03*
X180490000Y-129510000D03*
X180490000Y-114270000D03*
X180490000Y-121890000D03*
X180490000Y-116810000D03*
X180490000Y-119350000D03*
X180490000Y-111730000D03*
X180490000Y-109190000D03*
X180490000Y-99030000D03*
X180490000Y-91410000D03*
X180490000Y-106650000D03*
X180490000Y-96490000D03*
X180490000Y-93950000D03*
X180490000Y-86330000D03*
X180490000Y-83790000D03*
X180490000Y-88870000D03*
X180490000Y-104110000D03*
X180490000Y-101570000D03*
X180490000Y-68550000D03*
X180490000Y-60930000D03*
X180503268Y-58296769D03*
X180490000Y-73630000D03*
X180490000Y-63470000D03*
X180490000Y-78710000D03*
X180490000Y-71090000D03*
X180490000Y-81250000D03*
X180490000Y-76170000D03*
X180490000Y-66010000D03*
X177947742Y-144686769D03*
X177950000Y-134590000D03*
X177950000Y-142210000D03*
X177950000Y-139670000D03*
X177950000Y-137130000D03*
X177950000Y-124430000D03*
X177950000Y-132050000D03*
X177950000Y-126970000D03*
X177950000Y-129510000D03*
X177950000Y-114270000D03*
X177950000Y-121890000D03*
X177950000Y-116810000D03*
X177950000Y-119350000D03*
X177950000Y-111730000D03*
X177950000Y-109190000D03*
X177950000Y-99030000D03*
X177950000Y-91410000D03*
X177950000Y-106650000D03*
X177950000Y-96490000D03*
X177950000Y-93950000D03*
X177950000Y-86330000D03*
X177950000Y-83790000D03*
X177950000Y-88870000D03*
X177950000Y-104110000D03*
X177950000Y-101570000D03*
X177950000Y-68550000D03*
X177950000Y-60930000D03*
X177963268Y-58296769D03*
X177950000Y-73630000D03*
X177950000Y-63470000D03*
X177950000Y-78710000D03*
X177950000Y-71090000D03*
X177950000Y-81250000D03*
X177950000Y-76170000D03*
X177950000Y-66010000D03*
X175407742Y-144686769D03*
X175410000Y-134590000D03*
X175410000Y-142210000D03*
X175410000Y-139670000D03*
X175410000Y-137130000D03*
X175410000Y-124430000D03*
X175410000Y-132050000D03*
X175410000Y-126970000D03*
X175410000Y-129510000D03*
X175410000Y-114270000D03*
X175410000Y-121890000D03*
X175410000Y-116810000D03*
X175410000Y-119350000D03*
X175410000Y-111730000D03*
X175410000Y-109190000D03*
X175410000Y-99030000D03*
X175410000Y-91410000D03*
X175410000Y-106650000D03*
X175410000Y-96490000D03*
X175410000Y-93950000D03*
X175410000Y-86330000D03*
X175410000Y-83790000D03*
X175410000Y-88870000D03*
X175410000Y-104110000D03*
X175410000Y-101570000D03*
X175410000Y-68550000D03*
X175410000Y-60930000D03*
X175423268Y-58296769D03*
X175410000Y-73630000D03*
X175410000Y-63470000D03*
X175410000Y-78710000D03*
X175410000Y-71090000D03*
X175410000Y-81250000D03*
X175410000Y-76170000D03*
X175410000Y-66010000D03*
X172867742Y-144686769D03*
X172870000Y-134590000D03*
X172870000Y-142210000D03*
X172870000Y-139670000D03*
X172870000Y-137130000D03*
X172870000Y-124430000D03*
X172870000Y-132050000D03*
X172870000Y-126970000D03*
X172870000Y-129510000D03*
X172870000Y-114270000D03*
X172870000Y-121890000D03*
X172870000Y-116810000D03*
X172870000Y-119350000D03*
X172870000Y-111730000D03*
X172870000Y-109190000D03*
X172870000Y-99030000D03*
X172870000Y-91410000D03*
X172870000Y-106650000D03*
X172870000Y-96490000D03*
X172870000Y-93950000D03*
X172870000Y-86330000D03*
X172870000Y-83790000D03*
X172870000Y-88870000D03*
X172870000Y-104110000D03*
X172870000Y-101570000D03*
X172870000Y-68550000D03*
X172870000Y-60930000D03*
X172883268Y-58296769D03*
X172870000Y-73630000D03*
X172870000Y-63470000D03*
X172870000Y-78710000D03*
X172870000Y-71090000D03*
X172870000Y-81250000D03*
X172870000Y-76170000D03*
X172870000Y-66010000D03*
X170327742Y-144686769D03*
X170330000Y-134590000D03*
X170330000Y-142210000D03*
X170330000Y-139670000D03*
X170330000Y-137130000D03*
X170330000Y-124430000D03*
X170330000Y-132050000D03*
X170330000Y-126970000D03*
X170330000Y-129510000D03*
X170330000Y-114270000D03*
X170330000Y-121890000D03*
X170330000Y-116810000D03*
X170330000Y-119350000D03*
X170330000Y-111730000D03*
X170330000Y-109190000D03*
X170330000Y-99030000D03*
X170330000Y-91410000D03*
X170330000Y-106650000D03*
X170330000Y-96490000D03*
X170330000Y-93950000D03*
X170330000Y-86330000D03*
X170330000Y-83790000D03*
X170330000Y-88870000D03*
X170330000Y-104110000D03*
X170330000Y-101570000D03*
X170330000Y-68550000D03*
X170330000Y-60930000D03*
X170343268Y-58296769D03*
X170330000Y-73630000D03*
X170330000Y-63470000D03*
X170330000Y-78710000D03*
X170330000Y-71090000D03*
X170330000Y-81250000D03*
X170330000Y-76170000D03*
X170330000Y-66010000D03*
X167787742Y-144686769D03*
X167790000Y-134590000D03*
X167790000Y-142210000D03*
X167790000Y-139670000D03*
X167790000Y-137130000D03*
X167790000Y-124430000D03*
X167790000Y-132050000D03*
X167790000Y-126970000D03*
X167790000Y-129510000D03*
X167790000Y-114270000D03*
X167790000Y-121890000D03*
X167790000Y-116810000D03*
X167790000Y-119350000D03*
X167790000Y-111730000D03*
X167790000Y-109190000D03*
X167790000Y-99030000D03*
X167790000Y-91410000D03*
X167790000Y-106650000D03*
X167790000Y-96490000D03*
X167790000Y-93950000D03*
X167790000Y-86330000D03*
X167790000Y-83790000D03*
X167790000Y-88870000D03*
X167790000Y-104110000D03*
X167790000Y-101570000D03*
X167790000Y-68550000D03*
X167790000Y-60930000D03*
X167803268Y-58296769D03*
X167790000Y-73630000D03*
X167790000Y-63470000D03*
X167790000Y-78710000D03*
X167790000Y-71090000D03*
X167790000Y-81250000D03*
X167790000Y-76170000D03*
X167790000Y-66010000D03*
X165247742Y-144686769D03*
X165250000Y-134590000D03*
X165250000Y-142210000D03*
X165250000Y-139670000D03*
X165250000Y-137130000D03*
X165250000Y-124430000D03*
X165250000Y-132050000D03*
X165250000Y-126970000D03*
X165250000Y-129510000D03*
X165250000Y-114270000D03*
X165250000Y-121890000D03*
X165250000Y-116810000D03*
X165250000Y-119350000D03*
X165250000Y-111730000D03*
X165250000Y-109190000D03*
X165250000Y-99030000D03*
X165250000Y-91410000D03*
X165250000Y-106650000D03*
X165250000Y-96490000D03*
X165250000Y-93950000D03*
X165250000Y-86330000D03*
X165250000Y-83790000D03*
X165250000Y-88870000D03*
X165250000Y-104110000D03*
X165250000Y-101570000D03*
X165250000Y-68550000D03*
X165250000Y-60930000D03*
X165263268Y-58296769D03*
X165250000Y-73630000D03*
X165250000Y-63470000D03*
X165250000Y-78710000D03*
X165250000Y-71090000D03*
X165250000Y-81250000D03*
X165250000Y-76170000D03*
X165250000Y-66010000D03*
X162707742Y-144686769D03*
X162710000Y-134590000D03*
X162710000Y-142210000D03*
X162710000Y-139670000D03*
X162710000Y-137130000D03*
X162710000Y-124430000D03*
X162710000Y-132050000D03*
X162710000Y-126970000D03*
X162710000Y-129510000D03*
X162710000Y-114270000D03*
X162710000Y-121890000D03*
X162710000Y-116810000D03*
X162710000Y-119350000D03*
X162710000Y-111730000D03*
X162710000Y-109190000D03*
X162710000Y-99030000D03*
X162710000Y-91410000D03*
X162710000Y-106650000D03*
X162710000Y-96490000D03*
X162710000Y-93950000D03*
X162710000Y-86330000D03*
X162710000Y-83790000D03*
X162710000Y-88870000D03*
X162710000Y-104110000D03*
X162710000Y-101570000D03*
X162710000Y-68550000D03*
X162710000Y-60930000D03*
X162723268Y-58296769D03*
X162710000Y-73630000D03*
X162710000Y-63470000D03*
X162710000Y-78710000D03*
X162710000Y-71090000D03*
X162710000Y-81250000D03*
X162710000Y-76170000D03*
X162710000Y-66010000D03*
X160167742Y-144686769D03*
X160170000Y-134590000D03*
X160170000Y-142210000D03*
X160170000Y-139670000D03*
X160170000Y-137130000D03*
X160170000Y-124430000D03*
X160170000Y-132050000D03*
X160170000Y-126970000D03*
X160170000Y-129510000D03*
X160170000Y-114270000D03*
X160170000Y-121890000D03*
X160170000Y-116810000D03*
X160170000Y-119350000D03*
X160170000Y-111730000D03*
X160170000Y-109190000D03*
X160170000Y-99030000D03*
X160170000Y-91410000D03*
X160170000Y-106650000D03*
X160170000Y-96490000D03*
X160170000Y-93950000D03*
X160170000Y-86330000D03*
X160170000Y-83790000D03*
X160170000Y-88870000D03*
X160170000Y-104110000D03*
X160170000Y-101570000D03*
X160170000Y-68550000D03*
X160170000Y-60930000D03*
X160183268Y-58296769D03*
X160170000Y-73630000D03*
X160170000Y-63470000D03*
X160170000Y-78710000D03*
X160170000Y-71090000D03*
X160170000Y-81250000D03*
X160170000Y-76170000D03*
X160170000Y-66010000D03*
X157627742Y-144686769D03*
X157630000Y-134590000D03*
X157630000Y-142210000D03*
X157630000Y-139670000D03*
X157630000Y-137130000D03*
X157630000Y-124430000D03*
X157630000Y-132050000D03*
X157630000Y-126970000D03*
X157630000Y-129510000D03*
X157630000Y-114270000D03*
X157630000Y-121890000D03*
X157630000Y-116810000D03*
X157630000Y-119350000D03*
X157630000Y-111730000D03*
X157630000Y-109190000D03*
X157630000Y-99030000D03*
X157630000Y-91410000D03*
X157630000Y-106650000D03*
X157630000Y-96490000D03*
X157630000Y-93950000D03*
X157630000Y-86330000D03*
X157630000Y-83790000D03*
X157630000Y-88870000D03*
X157630000Y-104110000D03*
X157630000Y-101570000D03*
X157630000Y-68550000D03*
X157630000Y-60930000D03*
X157643268Y-58296769D03*
X157630000Y-73630000D03*
X157630000Y-63470000D03*
X157630000Y-78710000D03*
X157630000Y-71090000D03*
X157630000Y-81250000D03*
X157630000Y-76170000D03*
X157630000Y-66010000D03*
X155007669Y-144680000D03*
X155009927Y-134583231D03*
X155009927Y-142203231D03*
X155009927Y-139663231D03*
X155009927Y-137123231D03*
X155009927Y-124423231D03*
X155009927Y-132043231D03*
X155009927Y-126963231D03*
X155009927Y-129503231D03*
X155009927Y-114263231D03*
X155009927Y-121883231D03*
X155009927Y-116803231D03*
X155009927Y-119343231D03*
X155009927Y-111723231D03*
X155009927Y-109183231D03*
X155009927Y-99023231D03*
X155009927Y-91403231D03*
X155009927Y-106643231D03*
X155009927Y-96483231D03*
X155009927Y-93943231D03*
X155009927Y-86323231D03*
X155009927Y-83783231D03*
X155009927Y-88863231D03*
X155009927Y-104103231D03*
X155009927Y-101563231D03*
X155009927Y-68543231D03*
X155009927Y-60923231D03*
X155023195Y-58290000D03*
X155009927Y-73623231D03*
X155009927Y-63463231D03*
X155009927Y-78703231D03*
X155009927Y-71083231D03*
X155009927Y-81243231D03*
X155009927Y-76163231D03*
X155009927Y-66003231D03*
X152547742Y-144686769D03*
X152550000Y-134590000D03*
X152550000Y-142210000D03*
X152550000Y-139670000D03*
X152550000Y-137130000D03*
X152550000Y-124430000D03*
X152550000Y-132050000D03*
X152550000Y-126970000D03*
X152550000Y-129510000D03*
X152550000Y-114270000D03*
X152550000Y-121890000D03*
X152550000Y-116810000D03*
X152550000Y-119350000D03*
X152550000Y-111730000D03*
X152550000Y-109190000D03*
X152550000Y-99030000D03*
X152550000Y-91410000D03*
X152550000Y-106650000D03*
X152550000Y-96490000D03*
X152550000Y-93950000D03*
X152550000Y-86330000D03*
X152550000Y-83790000D03*
X152550000Y-88870000D03*
X152550000Y-104110000D03*
X152550000Y-101570000D03*
X152550000Y-68550000D03*
X152550000Y-60930000D03*
X152563268Y-58296769D03*
X152550000Y-73630000D03*
X152550000Y-63470000D03*
X152550000Y-78710000D03*
X152550000Y-71090000D03*
X152550000Y-81250000D03*
X152550000Y-76170000D03*
X152550000Y-66010000D03*
X150007742Y-144686769D03*
X150010000Y-134590000D03*
X150010000Y-142210000D03*
X150010000Y-139670000D03*
X150010000Y-137130000D03*
X150010000Y-124430000D03*
X150010000Y-132050000D03*
X150010000Y-126970000D03*
X150010000Y-129510000D03*
X150010000Y-114270000D03*
X150010000Y-121890000D03*
X150010000Y-116810000D03*
X150010000Y-119350000D03*
X150010000Y-111730000D03*
X150010000Y-109190000D03*
X150010000Y-99030000D03*
X150010000Y-91410000D03*
X150010000Y-106650000D03*
X150010000Y-96490000D03*
X150010000Y-93950000D03*
X150010000Y-86330000D03*
X150010000Y-83790000D03*
X150010000Y-88870000D03*
X150010000Y-104110000D03*
X150010000Y-101570000D03*
X150010000Y-68550000D03*
X150010000Y-60930000D03*
X150023268Y-58296769D03*
X150010000Y-73630000D03*
X150010000Y-63470000D03*
X150010000Y-78710000D03*
X150010000Y-71090000D03*
X150010000Y-81250000D03*
X150010000Y-76170000D03*
X150010000Y-66010000D03*
X147467742Y-144686769D03*
X147470000Y-134590000D03*
X147470000Y-142210000D03*
X147470000Y-139670000D03*
X147470000Y-137130000D03*
X147470000Y-124430000D03*
X147470000Y-132050000D03*
X147470000Y-126970000D03*
X147470000Y-129510000D03*
X147470000Y-114270000D03*
X147470000Y-121890000D03*
X147470000Y-116810000D03*
X147470000Y-119350000D03*
X147470000Y-111730000D03*
X147470000Y-109190000D03*
X147470000Y-99030000D03*
X147470000Y-91410000D03*
X147470000Y-106650000D03*
X147470000Y-96490000D03*
X147470000Y-93950000D03*
X147470000Y-86330000D03*
X147470000Y-83790000D03*
X147470000Y-88870000D03*
X147470000Y-104110000D03*
X147470000Y-101570000D03*
X147470000Y-68550000D03*
X147470000Y-60930000D03*
X147483268Y-58296769D03*
X147470000Y-73630000D03*
X147470000Y-63470000D03*
X147470000Y-78710000D03*
X147470000Y-71090000D03*
X147470000Y-81250000D03*
X147470000Y-76170000D03*
X147470000Y-66010000D03*
X144927742Y-144686769D03*
X144930000Y-134590000D03*
X144930000Y-142210000D03*
X144930000Y-139670000D03*
X144930000Y-137130000D03*
X144930000Y-124430000D03*
X144930000Y-132050000D03*
X144930000Y-126970000D03*
X144930000Y-129510000D03*
X144930000Y-114270000D03*
X144930000Y-121890000D03*
X144930000Y-116810000D03*
X144930000Y-119350000D03*
X144930000Y-111730000D03*
X144930000Y-109190000D03*
X144930000Y-99030000D03*
X144930000Y-91410000D03*
X144930000Y-106650000D03*
X144930000Y-96490000D03*
X144930000Y-93950000D03*
X144930000Y-86330000D03*
X144930000Y-83790000D03*
X144930000Y-88870000D03*
X144930000Y-104110000D03*
X144930000Y-101570000D03*
X144930000Y-68550000D03*
X144930000Y-60930000D03*
X144943268Y-58296769D03*
X144930000Y-73630000D03*
X144930000Y-63470000D03*
X144930000Y-78710000D03*
X144930000Y-71090000D03*
X144930000Y-81250000D03*
X144930000Y-76170000D03*
X144930000Y-66010000D03*
X142387742Y-144686769D03*
X142390000Y-134590000D03*
X142390000Y-142210000D03*
X142390000Y-139670000D03*
X142390000Y-137130000D03*
X142390000Y-124430000D03*
X142390000Y-132050000D03*
X142390000Y-126970000D03*
X142390000Y-129510000D03*
X142390000Y-114270000D03*
X142390000Y-121890000D03*
X142390000Y-116810000D03*
X142390000Y-119350000D03*
X142390000Y-111730000D03*
X142390000Y-109190000D03*
X142390000Y-99030000D03*
X142390000Y-91410000D03*
X142390000Y-106650000D03*
X142390000Y-96490000D03*
X142390000Y-93950000D03*
X142390000Y-86330000D03*
X142390000Y-83790000D03*
X142390000Y-88870000D03*
X142390000Y-104110000D03*
X142390000Y-101570000D03*
X142390000Y-68550000D03*
X142390000Y-60930000D03*
X142403268Y-58296769D03*
X142390000Y-73630000D03*
X142390000Y-63470000D03*
X142390000Y-78710000D03*
X142390000Y-71090000D03*
X142390000Y-81250000D03*
X142390000Y-76170000D03*
X142390000Y-66010000D03*
X139847742Y-144686769D03*
X139850000Y-134590000D03*
X139850000Y-142210000D03*
X139850000Y-139670000D03*
X139850000Y-137130000D03*
X139850000Y-124430000D03*
X139850000Y-132050000D03*
X139850000Y-126970000D03*
X139850000Y-129510000D03*
X139850000Y-114270000D03*
X139850000Y-121890000D03*
X139850000Y-116810000D03*
X139850000Y-119350000D03*
X139850000Y-111730000D03*
X139850000Y-109190000D03*
X139850000Y-99030000D03*
X139850000Y-91410000D03*
X139850000Y-106650000D03*
X139850000Y-96490000D03*
X139850000Y-93950000D03*
X139850000Y-86330000D03*
X139850000Y-83790000D03*
X139850000Y-88870000D03*
X139850000Y-104110000D03*
X139850000Y-101570000D03*
X139850000Y-68550000D03*
X139850000Y-60930000D03*
X139863268Y-58296769D03*
X139850000Y-73630000D03*
X139850000Y-63470000D03*
X139850000Y-78710000D03*
X139850000Y-71090000D03*
X139850000Y-81250000D03*
X139850000Y-76170000D03*
X139850000Y-66010000D03*
X137307742Y-144686769D03*
X137310000Y-134590000D03*
X137310000Y-142210000D03*
X137310000Y-139670000D03*
X137310000Y-137130000D03*
X137310000Y-124430000D03*
X137310000Y-132050000D03*
X137310000Y-126970000D03*
X137310000Y-129510000D03*
X137310000Y-114270000D03*
X137310000Y-121890000D03*
X137310000Y-116810000D03*
X137310000Y-119350000D03*
X137310000Y-111730000D03*
X137310000Y-109190000D03*
X137310000Y-99030000D03*
X137310000Y-91410000D03*
X137310000Y-106650000D03*
X137310000Y-96490000D03*
X137310000Y-93950000D03*
X137310000Y-86330000D03*
X137310000Y-83790000D03*
X137310000Y-88870000D03*
X137310000Y-104110000D03*
X137310000Y-101570000D03*
X137310000Y-68550000D03*
X137310000Y-60930000D03*
X137323268Y-58296769D03*
X137310000Y-73630000D03*
X137310000Y-63470000D03*
X137310000Y-78710000D03*
X137310000Y-71090000D03*
X137310000Y-81250000D03*
X137310000Y-76170000D03*
X137310000Y-66010000D03*
X134767742Y-144686769D03*
X134770000Y-134590000D03*
X134770000Y-142210000D03*
X134770000Y-139670000D03*
X134770000Y-137130000D03*
X134770000Y-124430000D03*
X134770000Y-132050000D03*
X134770000Y-126970000D03*
X134770000Y-129510000D03*
X134770000Y-114270000D03*
X134770000Y-121890000D03*
X134770000Y-116810000D03*
X134770000Y-119350000D03*
X134770000Y-111730000D03*
X134770000Y-109190000D03*
X134770000Y-99030000D03*
X134770000Y-91410000D03*
X134770000Y-106650000D03*
X134770000Y-96490000D03*
X134770000Y-93950000D03*
X134770000Y-86330000D03*
X134770000Y-83790000D03*
X134770000Y-88870000D03*
X134770000Y-104110000D03*
X134770000Y-101570000D03*
X134770000Y-68550000D03*
X134770000Y-60930000D03*
X134783268Y-58296769D03*
X134770000Y-73630000D03*
X134770000Y-63470000D03*
X134770000Y-78710000D03*
X134770000Y-71090000D03*
X134770000Y-81250000D03*
X134770000Y-76170000D03*
X134770000Y-66010000D03*
X132227742Y-144686769D03*
X132230000Y-134590000D03*
X132230000Y-142210000D03*
X132230000Y-139670000D03*
X132230000Y-137130000D03*
X132230000Y-124430000D03*
X132230000Y-132050000D03*
X132230000Y-126970000D03*
X132230000Y-129510000D03*
X132230000Y-114270000D03*
X132230000Y-121890000D03*
X132230000Y-116810000D03*
X132230000Y-119350000D03*
X132230000Y-111730000D03*
X132230000Y-109190000D03*
X132230000Y-99030000D03*
X132230000Y-91410000D03*
X132230000Y-106650000D03*
X132230000Y-96490000D03*
X132230000Y-93950000D03*
X132230000Y-86330000D03*
X132230000Y-83790000D03*
X132230000Y-88870000D03*
X132230000Y-104110000D03*
X132230000Y-101570000D03*
X132230000Y-68550000D03*
X132230000Y-60930000D03*
X132243268Y-58296769D03*
X132230000Y-73630000D03*
X132230000Y-63470000D03*
X132230000Y-78710000D03*
X132230000Y-71090000D03*
X132230000Y-81250000D03*
X132230000Y-76170000D03*
X132230000Y-66010000D03*
X129687742Y-144686769D03*
X129690000Y-134590000D03*
X129690000Y-142210000D03*
X129690000Y-139670000D03*
X129690000Y-137130000D03*
X129690000Y-124430000D03*
X129690000Y-132050000D03*
X129690000Y-126970000D03*
X129690000Y-129510000D03*
X129690000Y-114270000D03*
X129690000Y-121890000D03*
X129690000Y-116810000D03*
X129690000Y-119350000D03*
X129690000Y-111730000D03*
X129690000Y-109190000D03*
X129690000Y-99030000D03*
X129690000Y-91410000D03*
X129690000Y-106650000D03*
X129690000Y-96490000D03*
X129690000Y-93950000D03*
X129690000Y-86330000D03*
X129690000Y-83790000D03*
X129690000Y-88870000D03*
X129690000Y-104110000D03*
X129690000Y-101570000D03*
X129690000Y-68550000D03*
X129690000Y-60930000D03*
X129703268Y-58296769D03*
X129690000Y-73630000D03*
X129690000Y-63470000D03*
X129690000Y-78710000D03*
X129690000Y-71090000D03*
X129690000Y-81250000D03*
X129690000Y-76170000D03*
X129690000Y-66010000D03*
X127147742Y-144686769D03*
X127150000Y-134590000D03*
X127150000Y-142210000D03*
X127150000Y-139670000D03*
X127150000Y-137130000D03*
X127150000Y-124430000D03*
X127150000Y-132050000D03*
X127150000Y-126970000D03*
X127150000Y-129510000D03*
X127150000Y-114270000D03*
X127150000Y-121890000D03*
X127150000Y-116810000D03*
X127150000Y-119350000D03*
X127150000Y-111730000D03*
X127150000Y-109190000D03*
X127150000Y-99030000D03*
X127150000Y-91410000D03*
X127150000Y-106650000D03*
X127150000Y-96490000D03*
X127150000Y-93950000D03*
X127150000Y-86330000D03*
X127150000Y-83790000D03*
X127150000Y-88870000D03*
X127150000Y-104110000D03*
X127150000Y-101570000D03*
X127150000Y-68550000D03*
X127150000Y-60930000D03*
X127163268Y-58296769D03*
X127150000Y-73630000D03*
X127150000Y-63470000D03*
X127150000Y-78710000D03*
X127150000Y-71090000D03*
X127150000Y-81250000D03*
X127150000Y-76170000D03*
X127150000Y-66010000D03*
X124607742Y-144686769D03*
X124610000Y-134590000D03*
X124610000Y-142210000D03*
X124610000Y-139670000D03*
X124610000Y-137130000D03*
X124610000Y-124430000D03*
X124610000Y-132050000D03*
X124610000Y-126970000D03*
X124610000Y-129510000D03*
X124610000Y-114270000D03*
X124610000Y-121890000D03*
X124610000Y-116810000D03*
X124610000Y-119350000D03*
X124610000Y-111730000D03*
X124610000Y-109190000D03*
X124610000Y-99030000D03*
X124610000Y-91410000D03*
X124610000Y-106650000D03*
X124610000Y-96490000D03*
X124610000Y-93950000D03*
X124610000Y-86330000D03*
X124610000Y-83790000D03*
X124610000Y-88870000D03*
X124610000Y-104110000D03*
X124610000Y-101570000D03*
X124610000Y-68550000D03*
X124610000Y-60930000D03*
X124623268Y-58296769D03*
X124610000Y-73630000D03*
X124610000Y-63470000D03*
X124610000Y-78710000D03*
X124610000Y-71090000D03*
X124610000Y-81250000D03*
X124610000Y-76170000D03*
X124610000Y-66010000D03*
X122067742Y-144686769D03*
X122070000Y-134590000D03*
X122070000Y-142210000D03*
X122070000Y-139670000D03*
X122070000Y-137130000D03*
X122070000Y-124430000D03*
X122070000Y-132050000D03*
X122070000Y-126970000D03*
X122070000Y-129510000D03*
X122070000Y-114270000D03*
X122070000Y-121890000D03*
X122070000Y-116810000D03*
X122070000Y-119350000D03*
X122070000Y-111730000D03*
X122070000Y-109190000D03*
X122070000Y-99030000D03*
X122070000Y-91410000D03*
X122070000Y-106650000D03*
X122070000Y-96490000D03*
X122070000Y-93950000D03*
X122070000Y-86330000D03*
X122070000Y-83790000D03*
X122070000Y-88870000D03*
X122070000Y-104110000D03*
X122070000Y-101570000D03*
X122070000Y-68550000D03*
X122070000Y-60930000D03*
X122083268Y-58296769D03*
X122070000Y-73630000D03*
X122070000Y-63470000D03*
X122070000Y-78710000D03*
X122070000Y-71090000D03*
X122070000Y-81250000D03*
X122070000Y-76170000D03*
X122070000Y-66010000D03*
X119527742Y-144686769D03*
X119530000Y-134590000D03*
X119530000Y-142210000D03*
X119530000Y-139670000D03*
X119530000Y-137130000D03*
X119530000Y-124430000D03*
X119530000Y-132050000D03*
X119530000Y-126970000D03*
X119530000Y-129510000D03*
X119530000Y-114270000D03*
X119530000Y-121890000D03*
X119530000Y-116810000D03*
X119530000Y-119350000D03*
X119530000Y-111730000D03*
X119530000Y-109190000D03*
X119530000Y-99030000D03*
X119530000Y-91410000D03*
X119530000Y-106650000D03*
X119530000Y-96490000D03*
X119530000Y-93950000D03*
X119530000Y-86330000D03*
X119530000Y-83790000D03*
X119530000Y-88870000D03*
X119530000Y-104110000D03*
X119530000Y-101570000D03*
X119530000Y-68550000D03*
X119530000Y-60930000D03*
X119543268Y-58296769D03*
X119530000Y-73630000D03*
X119530000Y-63470000D03*
X119530000Y-78710000D03*
X119530000Y-71090000D03*
X119530000Y-81250000D03*
X119530000Y-76170000D03*
X119530000Y-66010000D03*
X116987742Y-144686769D03*
X116990000Y-134590000D03*
X116990000Y-142210000D03*
X116990000Y-139670000D03*
X116990000Y-137130000D03*
X116990000Y-124430000D03*
X116990000Y-132050000D03*
X116990000Y-126970000D03*
X116990000Y-129510000D03*
X116990000Y-114270000D03*
X116990000Y-121890000D03*
X116990000Y-116810000D03*
X116990000Y-119350000D03*
X116990000Y-111730000D03*
X116990000Y-109190000D03*
X116990000Y-99030000D03*
X116990000Y-91410000D03*
X116990000Y-106650000D03*
X116990000Y-96490000D03*
X116990000Y-93950000D03*
X116990000Y-86330000D03*
X116990000Y-83790000D03*
X116990000Y-88870000D03*
X116990000Y-104110000D03*
X116990000Y-101570000D03*
X116990000Y-68550000D03*
X116990000Y-60930000D03*
X117003268Y-58296769D03*
X116990000Y-73630000D03*
X116990000Y-63470000D03*
X116990000Y-78710000D03*
X116990000Y-71090000D03*
X116990000Y-81250000D03*
X116990000Y-76170000D03*
X116990000Y-66010000D03*
X114447742Y-144686769D03*
X114450000Y-142210000D03*
X114450000Y-139670000D03*
X114450000Y-137130000D03*
X114450000Y-134590000D03*
X114450000Y-132050000D03*
X114450000Y-129510000D03*
X114450000Y-126970000D03*
X114450000Y-124430000D03*
X114450000Y-121890000D03*
X114450000Y-119350000D03*
X114450000Y-116810000D03*
X114450000Y-114270000D03*
X114450000Y-111730000D03*
X114450000Y-109190000D03*
X114450000Y-106650000D03*
X114450000Y-104110000D03*
X114450000Y-101570000D03*
X114450000Y-99030000D03*
X114450000Y-96490000D03*
X114450000Y-93950000D03*
X114450000Y-91410000D03*
X114450000Y-88870000D03*
X114450000Y-86330000D03*
X114450000Y-83790000D03*
X114450000Y-81250000D03*
X114450000Y-78710000D03*
X114450000Y-76170000D03*
X114450000Y-73630000D03*
X114450000Y-71090000D03*
X114450000Y-68550000D03*
X114450000Y-66010000D03*
X114450000Y-63470000D03*
X114450000Y-60930000D03*
X114463268Y-58296769D03*
X106815526Y-134561052D03*
X106815526Y-132021052D03*
X106815526Y-129481052D03*
X106815526Y-126941052D03*
X106815526Y-124401052D03*
X106815526Y-121861052D03*
X106815526Y-119321052D03*
X106815526Y-116781052D03*
X106815526Y-114241052D03*
X106815526Y-111701052D03*
X106830000Y-109190000D03*
X106830000Y-106650000D03*
X106830000Y-104110000D03*
X106830000Y-101570000D03*
X106830000Y-99030000D03*
X106830000Y-96490000D03*
X106830000Y-93950000D03*
X106830000Y-91410000D03*
X106830000Y-88870000D03*
X106830000Y-86330000D03*
X106830000Y-83790000D03*
X106830000Y-81250000D03*
X104290000Y-142210000D03*
X104290000Y-134590000D03*
X104290000Y-126970000D03*
X104290000Y-124430000D03*
X104290000Y-132050000D03*
X104290000Y-139670000D03*
X104265501Y-137103309D03*
X104290000Y-121890000D03*
X104265501Y-129307434D03*
X104290000Y-114270000D03*
X104290000Y-106650000D03*
X104290000Y-104110000D03*
X104290000Y-111730000D03*
X104290000Y-119350000D03*
X104265501Y-116783309D03*
X104290000Y-101570000D03*
X104265501Y-108987434D03*
X104290000Y-93950000D03*
X104290000Y-86330000D03*
X104290000Y-83790000D03*
X104290000Y-91410000D03*
X104290000Y-99030000D03*
X104265501Y-96463309D03*
X104290000Y-81250000D03*
X104265501Y-88667434D03*
X104290000Y-60930000D03*
X104290000Y-63470000D03*
X104290000Y-66010000D03*
X104265501Y-68347434D03*
X104290000Y-71090000D03*
X104290000Y-73630000D03*
X104265501Y-76143309D03*
X104290000Y-78710000D03*
X106830000Y-60930000D03*
X106830000Y-78710000D03*
X106830000Y-76170000D03*
X106830000Y-73630000D03*
X106830000Y-71090000D03*
X106830000Y-68550000D03*
X106830000Y-66010000D03*
X106830000Y-63470000D03*
D11*
X107600000Y-146300000D03*
X197600000Y-146300000D03*
X197600000Y-56300000D03*
M02*
