M48
; DRILL file {KiCad (6.0.5)} date Thu May 26 18:09:40 2022
; FORMAT={-:-/ absolute / metric / decimal}
; #@! TF.CreationDate,2022-05-26T18:09:40+08:00
; #@! TF.GenerationSoftware,Kicad,Pcbnew,(6.0.5)
; #@! TF.FileFunction,MixedPlating,1,2
FMAT,2
METRIC
; #@! TA.AperFunction,Plated,PTH,ViaDrill
T1C1.000
; #@! TA.AperFunction,Plated,PTH,ViaDrill
T2C3.000
%
G90
G05
T1
X104.266Y-68.347
X104.266Y-76.143
X104.266Y-88.667
X104.266Y-96.463
X104.266Y-108.987
X104.266Y-116.783
X104.266Y-129.307
X104.266Y-137.103
X104.29Y-60.93
X104.29Y-63.47
X104.29Y-66.01
X104.29Y-71.09
X104.29Y-73.63
X104.29Y-78.71
X104.29Y-81.25
X104.29Y-83.79
X104.29Y-86.33
X104.29Y-91.41
X104.29Y-93.95
X104.29Y-99.03
X104.29Y-101.57
X104.29Y-104.11
X104.29Y-106.65
X104.29Y-111.73
X104.29Y-114.27
X104.29Y-119.35
X104.29Y-121.89
X104.29Y-124.43
X104.29Y-126.97
X104.29Y-132.05
X104.29Y-134.59
X104.29Y-139.67
X104.29Y-142.21
X106.816Y-111.701
X106.816Y-114.241
X106.816Y-116.781
X106.816Y-119.321
X106.816Y-121.861
X106.816Y-124.401
X106.816Y-126.941
X106.816Y-129.481
X106.816Y-132.021
X106.816Y-134.561
X106.83Y-60.93
X106.83Y-63.47
X106.83Y-66.01
X106.83Y-68.55
X106.83Y-71.09
X106.83Y-73.63
X106.83Y-76.17
X106.83Y-78.71
X106.83Y-81.25
X106.83Y-83.79
X106.83Y-86.33
X106.83Y-88.87
X106.83Y-91.41
X106.83Y-93.95
X106.83Y-96.49
X106.83Y-99.03
X106.83Y-101.57
X106.83Y-104.11
X106.83Y-106.65
X106.83Y-109.19
X106.83Y-137.13
X106.83Y-139.67
X106.83Y-142.21
X109.37Y-60.93
X109.37Y-63.47
X109.37Y-66.01
X109.37Y-68.55
X109.37Y-71.09
X109.37Y-73.63
X109.37Y-76.17
X109.37Y-78.71
X109.37Y-81.25
X109.37Y-83.79
X109.37Y-86.33
X109.37Y-88.87
X109.37Y-91.41
X109.37Y-93.95
X109.37Y-96.49
X109.37Y-99.03
X109.37Y-101.57
X109.37Y-104.11
X109.37Y-106.65
X109.37Y-109.19
X109.37Y-111.73
X109.37Y-114.27
X109.37Y-116.81
X109.37Y-119.35
X109.37Y-121.89
X109.37Y-124.43
X109.37Y-126.97
X109.37Y-129.51
X109.37Y-132.05
X109.37Y-134.59
X109.37Y-137.13
X109.37Y-139.67
X109.37Y-142.21
X111.87Y-55.75
X111.89Y-53.29
X111.908Y-144.687
X111.91Y-60.93
X111.91Y-63.47
X111.91Y-66.01
X111.91Y-68.55
X111.91Y-71.09
X111.91Y-73.63
X111.91Y-76.17
X111.91Y-78.71
X111.91Y-81.25
X111.91Y-83.79
X111.91Y-86.33
X111.91Y-88.87
X111.91Y-91.41
X111.91Y-93.95
X111.91Y-96.49
X111.91Y-99.03
X111.91Y-101.57
X111.91Y-104.11
X111.91Y-106.65
X111.91Y-109.19
X111.91Y-111.73
X111.91Y-114.27
X111.91Y-116.81
X111.91Y-119.35
X111.91Y-121.89
X111.91Y-124.43
X111.91Y-126.97
X111.91Y-129.51
X111.91Y-132.05
X111.91Y-134.59
X111.91Y-137.13
X111.91Y-139.67
X111.91Y-142.21
X111.923Y-58.297
X111.94Y-147.27
X111.94Y-149.81
X114.41Y-55.75
X114.43Y-53.29
X114.448Y-144.687
X114.45Y-60.93
X114.45Y-63.47
X114.45Y-66.01
X114.45Y-68.55
X114.45Y-71.09
X114.45Y-73.63
X114.45Y-76.17
X114.45Y-78.71
X114.45Y-81.25
X114.45Y-83.79
X114.45Y-86.33
X114.45Y-88.87
X114.45Y-91.41
X114.45Y-93.95
X114.45Y-96.49
X114.45Y-99.03
X114.45Y-101.57
X114.45Y-104.11
X114.45Y-106.65
X114.45Y-109.19
X114.45Y-111.73
X114.45Y-114.27
X114.45Y-116.81
X114.45Y-119.35
X114.45Y-121.89
X114.45Y-124.43
X114.45Y-126.97
X114.45Y-129.51
X114.45Y-132.05
X114.45Y-134.59
X114.45Y-137.13
X114.45Y-139.67
X114.45Y-142.21
X114.463Y-58.297
X114.48Y-147.27
X114.48Y-149.81
X116.95Y-55.75
X116.97Y-53.29
X116.988Y-144.687
X116.99Y-60.93
X116.99Y-63.47
X116.99Y-66.01
X116.99Y-68.55
X116.99Y-71.09
X116.99Y-73.63
X116.99Y-76.17
X116.99Y-78.71
X116.99Y-81.25
X116.99Y-83.79
X116.99Y-86.33
X116.99Y-88.87
X116.99Y-91.41
X116.99Y-93.95
X116.99Y-96.49
X116.99Y-99.03
X116.99Y-101.57
X116.99Y-104.11
X116.99Y-106.65
X116.99Y-109.19
X116.99Y-111.73
X116.99Y-114.27
X116.99Y-116.81
X116.99Y-119.35
X116.99Y-121.89
X116.99Y-124.43
X116.99Y-126.97
X116.99Y-129.51
X116.99Y-132.05
X116.99Y-134.59
X116.99Y-137.13
X116.99Y-139.67
X116.99Y-142.21
X117.003Y-58.297
X117.02Y-147.27
X117.02Y-149.81
X119.49Y-55.75
X119.51Y-53.29
X119.528Y-144.687
X119.53Y-60.93
X119.53Y-63.47
X119.53Y-66.01
X119.53Y-68.55
X119.53Y-71.09
X119.53Y-73.63
X119.53Y-76.17
X119.53Y-78.71
X119.53Y-81.25
X119.53Y-83.79
X119.53Y-86.33
X119.53Y-88.87
X119.53Y-91.41
X119.53Y-93.95
X119.53Y-96.49
X119.53Y-99.03
X119.53Y-101.57
X119.53Y-104.11
X119.53Y-106.65
X119.53Y-109.19
X119.53Y-111.73
X119.53Y-114.27
X119.53Y-116.81
X119.53Y-119.35
X119.53Y-121.89
X119.53Y-124.43
X119.53Y-126.97
X119.53Y-129.51
X119.53Y-132.05
X119.53Y-134.59
X119.53Y-137.13
X119.53Y-139.67
X119.53Y-142.21
X119.543Y-58.297
X119.56Y-147.27
X119.56Y-149.81
X122.03Y-55.75
X122.05Y-53.29
X122.068Y-144.687
X122.07Y-60.93
X122.07Y-63.47
X122.07Y-66.01
X122.07Y-68.55
X122.07Y-71.09
X122.07Y-73.63
X122.07Y-76.17
X122.07Y-78.71
X122.07Y-81.25
X122.07Y-83.79
X122.07Y-86.33
X122.07Y-88.87
X122.07Y-91.41
X122.07Y-93.95
X122.07Y-96.49
X122.07Y-99.03
X122.07Y-101.57
X122.07Y-104.11
X122.07Y-106.65
X122.07Y-109.19
X122.07Y-111.73
X122.07Y-114.27
X122.07Y-116.81
X122.07Y-119.35
X122.07Y-121.89
X122.07Y-124.43
X122.07Y-126.97
X122.07Y-129.51
X122.07Y-132.05
X122.07Y-134.59
X122.07Y-137.13
X122.07Y-139.67
X122.07Y-142.21
X122.083Y-58.297
X122.1Y-147.27
X122.1Y-149.81
X124.57Y-55.75
X124.59Y-53.29
X124.608Y-144.687
X124.61Y-60.93
X124.61Y-63.47
X124.61Y-66.01
X124.61Y-68.55
X124.61Y-71.09
X124.61Y-73.63
X124.61Y-76.17
X124.61Y-78.71
X124.61Y-81.25
X124.61Y-83.79
X124.61Y-86.33
X124.61Y-88.87
X124.61Y-91.41
X124.61Y-93.95
X124.61Y-96.49
X124.61Y-99.03
X124.61Y-101.57
X124.61Y-104.11
X124.61Y-106.65
X124.61Y-109.19
X124.61Y-111.73
X124.61Y-114.27
X124.61Y-116.81
X124.61Y-119.35
X124.61Y-121.89
X124.61Y-124.43
X124.61Y-126.97
X124.61Y-129.51
X124.61Y-132.05
X124.61Y-134.59
X124.61Y-137.13
X124.61Y-139.67
X124.61Y-142.21
X124.623Y-58.297
X124.64Y-147.27
X124.64Y-149.81
X127.11Y-55.75
X127.13Y-53.29
X127.148Y-144.687
X127.15Y-60.93
X127.15Y-63.47
X127.15Y-66.01
X127.15Y-68.55
X127.15Y-71.09
X127.15Y-73.63
X127.15Y-76.17
X127.15Y-78.71
X127.15Y-81.25
X127.15Y-83.79
X127.15Y-86.33
X127.15Y-88.87
X127.15Y-91.41
X127.15Y-93.95
X127.15Y-96.49
X127.15Y-99.03
X127.15Y-101.57
X127.15Y-104.11
X127.15Y-106.65
X127.15Y-109.19
X127.15Y-111.73
X127.15Y-114.27
X127.15Y-116.81
X127.15Y-119.35
X127.15Y-121.89
X127.15Y-124.43
X127.15Y-126.97
X127.15Y-129.51
X127.15Y-132.05
X127.15Y-134.59
X127.15Y-137.13
X127.15Y-139.67
X127.15Y-142.21
X127.163Y-58.297
X127.18Y-147.27
X127.18Y-149.81
X129.65Y-55.75
X129.67Y-53.29
X129.688Y-144.687
X129.69Y-60.93
X129.69Y-63.47
X129.69Y-66.01
X129.69Y-68.55
X129.69Y-71.09
X129.69Y-73.63
X129.69Y-76.17
X129.69Y-78.71
X129.69Y-81.25
X129.69Y-83.79
X129.69Y-86.33
X129.69Y-88.87
X129.69Y-91.41
X129.69Y-93.95
X129.69Y-96.49
X129.69Y-99.03
X129.69Y-101.57
X129.69Y-104.11
X129.69Y-106.65
X129.69Y-109.19
X129.69Y-111.73
X129.69Y-114.27
X129.69Y-116.81
X129.69Y-119.35
X129.69Y-121.89
X129.69Y-124.43
X129.69Y-126.97
X129.69Y-129.51
X129.69Y-132.05
X129.69Y-134.59
X129.69Y-137.13
X129.69Y-139.67
X129.69Y-142.21
X129.703Y-58.297
X129.72Y-147.27
X129.72Y-149.81
X132.19Y-55.75
X132.21Y-53.29
X132.228Y-144.687
X132.23Y-60.93
X132.23Y-63.47
X132.23Y-66.01
X132.23Y-68.55
X132.23Y-71.09
X132.23Y-73.63
X132.23Y-76.17
X132.23Y-78.71
X132.23Y-81.25
X132.23Y-83.79
X132.23Y-86.33
X132.23Y-88.87
X132.23Y-91.41
X132.23Y-93.95
X132.23Y-96.49
X132.23Y-99.03
X132.23Y-101.57
X132.23Y-104.11
X132.23Y-106.65
X132.23Y-109.19
X132.23Y-111.73
X132.23Y-114.27
X132.23Y-116.81
X132.23Y-119.35
X132.23Y-121.89
X132.23Y-124.43
X132.23Y-126.97
X132.23Y-129.51
X132.23Y-132.05
X132.23Y-134.59
X132.23Y-137.13
X132.23Y-139.67
X132.23Y-142.21
X132.243Y-58.297
X132.26Y-147.27
X132.26Y-149.81
X134.73Y-55.75
X134.75Y-53.29
X134.768Y-144.687
X134.77Y-60.93
X134.77Y-63.47
X134.77Y-66.01
X134.77Y-68.55
X134.77Y-71.09
X134.77Y-73.63
X134.77Y-76.17
X134.77Y-78.71
X134.77Y-81.25
X134.77Y-83.79
X134.77Y-86.33
X134.77Y-88.87
X134.77Y-91.41
X134.77Y-93.95
X134.77Y-96.49
X134.77Y-99.03
X134.77Y-101.57
X134.77Y-104.11
X134.77Y-106.65
X134.77Y-109.19
X134.77Y-111.73
X134.77Y-114.27
X134.77Y-116.81
X134.77Y-119.35
X134.77Y-121.89
X134.77Y-124.43
X134.77Y-126.97
X134.77Y-129.51
X134.77Y-132.05
X134.77Y-134.59
X134.77Y-137.13
X134.77Y-139.67
X134.77Y-142.21
X134.783Y-58.297
X134.8Y-147.27
X134.8Y-149.81
X137.27Y-55.75
X137.29Y-53.29
X137.308Y-144.687
X137.31Y-60.93
X137.31Y-63.47
X137.31Y-66.01
X137.31Y-68.55
X137.31Y-71.09
X137.31Y-73.63
X137.31Y-76.17
X137.31Y-78.71
X137.31Y-81.25
X137.31Y-83.79
X137.31Y-86.33
X137.31Y-88.87
X137.31Y-91.41
X137.31Y-93.95
X137.31Y-96.49
X137.31Y-99.03
X137.31Y-101.57
X137.31Y-104.11
X137.31Y-106.65
X137.31Y-109.19
X137.31Y-111.73
X137.31Y-114.27
X137.31Y-116.81
X137.31Y-119.35
X137.31Y-121.89
X137.31Y-124.43
X137.31Y-126.97
X137.31Y-129.51
X137.31Y-132.05
X137.31Y-134.59
X137.31Y-137.13
X137.31Y-139.67
X137.31Y-142.21
X137.323Y-58.297
X139.81Y-55.75
X139.83Y-53.29
X139.848Y-144.687
X139.85Y-60.93
X139.85Y-63.47
X139.85Y-66.01
X139.85Y-68.55
X139.85Y-71.09
X139.85Y-73.63
X139.85Y-76.17
X139.85Y-78.71
X139.85Y-81.25
X139.85Y-83.79
X139.85Y-86.33
X139.85Y-88.87
X139.85Y-91.41
X139.85Y-93.95
X139.85Y-96.49
X139.85Y-99.03
X139.85Y-101.57
X139.85Y-104.11
X139.85Y-106.65
X139.85Y-109.19
X139.85Y-111.73
X139.85Y-114.27
X139.85Y-116.81
X139.85Y-119.35
X139.85Y-121.89
X139.85Y-124.43
X139.85Y-126.97
X139.85Y-129.51
X139.85Y-132.05
X139.85Y-134.59
X139.85Y-137.13
X139.85Y-139.67
X139.85Y-142.21
X139.863Y-58.297
X142.35Y-55.75
X142.37Y-53.29
X142.388Y-144.687
X142.39Y-60.93
X142.39Y-63.47
X142.39Y-66.01
X142.39Y-68.55
X142.39Y-71.09
X142.39Y-73.63
X142.39Y-76.17
X142.39Y-78.71
X142.39Y-81.25
X142.39Y-83.79
X142.39Y-86.33
X142.39Y-88.87
X142.39Y-91.41
X142.39Y-93.95
X142.39Y-96.49
X142.39Y-99.03
X142.39Y-101.57
X142.39Y-104.11
X142.39Y-106.65
X142.39Y-109.19
X142.39Y-111.73
X142.39Y-114.27
X142.39Y-116.81
X142.39Y-119.35
X142.39Y-121.89
X142.39Y-124.43
X142.39Y-126.97
X142.39Y-129.51
X142.39Y-132.05
X142.39Y-134.59
X142.39Y-137.13
X142.39Y-139.67
X142.39Y-142.21
X142.403Y-58.297
X144.89Y-55.75
X144.91Y-53.29
X144.928Y-144.687
X144.93Y-60.93
X144.93Y-63.47
X144.93Y-66.01
X144.93Y-68.55
X144.93Y-71.09
X144.93Y-73.63
X144.93Y-76.17
X144.93Y-78.71
X144.93Y-81.25
X144.93Y-83.79
X144.93Y-86.33
X144.93Y-88.87
X144.93Y-91.41
X144.93Y-93.95
X144.93Y-96.49
X144.93Y-99.03
X144.93Y-101.57
X144.93Y-104.11
X144.93Y-106.65
X144.93Y-109.19
X144.93Y-111.73
X144.93Y-114.27
X144.93Y-116.81
X144.93Y-119.35
X144.93Y-121.89
X144.93Y-124.43
X144.93Y-126.97
X144.93Y-129.51
X144.93Y-132.05
X144.93Y-134.59
X144.93Y-137.13
X144.93Y-139.67
X144.93Y-142.21
X144.943Y-58.297
X147.43Y-55.75
X147.45Y-53.29
X147.468Y-144.687
X147.47Y-60.93
X147.47Y-63.47
X147.47Y-66.01
X147.47Y-68.55
X147.47Y-71.09
X147.47Y-73.63
X147.47Y-76.17
X147.47Y-78.71
X147.47Y-81.25
X147.47Y-83.79
X147.47Y-86.33
X147.47Y-88.87
X147.47Y-91.41
X147.47Y-93.95
X147.47Y-96.49
X147.47Y-99.03
X147.47Y-101.57
X147.47Y-104.11
X147.47Y-106.65
X147.47Y-109.19
X147.47Y-111.73
X147.47Y-114.27
X147.47Y-116.81
X147.47Y-119.35
X147.47Y-121.89
X147.47Y-124.43
X147.47Y-126.97
X147.47Y-129.51
X147.47Y-132.05
X147.47Y-134.59
X147.47Y-137.13
X147.47Y-139.67
X147.47Y-142.21
X147.483Y-58.297
X149.97Y-55.75
X149.99Y-53.29
X150.008Y-144.687
X150.01Y-60.93
X150.01Y-63.47
X150.01Y-66.01
X150.01Y-68.55
X150.01Y-71.09
X150.01Y-73.63
X150.01Y-76.17
X150.01Y-78.71
X150.01Y-81.25
X150.01Y-83.79
X150.01Y-86.33
X150.01Y-88.87
X150.01Y-91.41
X150.01Y-93.95
X150.01Y-96.49
X150.01Y-99.03
X150.01Y-101.57
X150.01Y-104.11
X150.01Y-106.65
X150.01Y-109.19
X150.01Y-111.73
X150.01Y-114.27
X150.01Y-116.81
X150.01Y-119.35
X150.01Y-121.89
X150.01Y-124.43
X150.01Y-126.97
X150.01Y-129.51
X150.01Y-132.05
X150.01Y-134.59
X150.01Y-137.13
X150.01Y-139.67
X150.01Y-142.21
X150.023Y-58.297
X152.51Y-55.75
X152.53Y-53.29
X152.548Y-144.687
X152.55Y-60.93
X152.55Y-63.47
X152.55Y-66.01
X152.55Y-68.55
X152.55Y-71.09
X152.55Y-73.63
X152.55Y-76.17
X152.55Y-78.71
X152.55Y-81.25
X152.55Y-83.79
X152.55Y-86.33
X152.55Y-88.87
X152.55Y-91.41
X152.55Y-93.95
X152.55Y-96.49
X152.55Y-99.03
X152.55Y-101.57
X152.55Y-104.11
X152.55Y-106.65
X152.55Y-109.19
X152.55Y-111.73
X152.55Y-114.27
X152.55Y-116.81
X152.55Y-119.35
X152.55Y-121.89
X152.55Y-124.43
X152.55Y-126.97
X152.55Y-129.51
X152.55Y-132.05
X152.55Y-134.59
X152.55Y-137.13
X152.55Y-139.67
X152.55Y-142.21
X152.563Y-58.297
X155.008Y-144.68
X155.01Y-60.923
X155.01Y-63.463
X155.01Y-66.003
X155.01Y-68.543
X155.01Y-71.083
X155.01Y-73.623
X155.01Y-76.163
X155.01Y-78.703
X155.01Y-81.243
X155.01Y-83.783
X155.01Y-86.323
X155.01Y-88.863
X155.01Y-91.403
X155.01Y-93.943
X155.01Y-96.483
X155.01Y-99.023
X155.01Y-101.563
X155.01Y-104.103
X155.01Y-106.643
X155.01Y-109.183
X155.01Y-111.723
X155.01Y-114.263
X155.01Y-116.803
X155.01Y-119.343
X155.01Y-121.883
X155.01Y-124.423
X155.01Y-126.963
X155.01Y-129.503
X155.01Y-132.043
X155.01Y-134.583
X155.01Y-137.123
X155.01Y-139.663
X155.01Y-142.203
X155.023Y-58.29
X155.05Y-55.75
X155.07Y-53.29
X157.59Y-55.75
X157.61Y-53.29
X157.628Y-144.687
X157.63Y-60.93
X157.63Y-63.47
X157.63Y-66.01
X157.63Y-68.55
X157.63Y-71.09
X157.63Y-73.63
X157.63Y-76.17
X157.63Y-78.71
X157.63Y-81.25
X157.63Y-83.79
X157.63Y-86.33
X157.63Y-88.87
X157.63Y-91.41
X157.63Y-93.95
X157.63Y-96.49
X157.63Y-99.03
X157.63Y-101.57
X157.63Y-104.11
X157.63Y-106.65
X157.63Y-109.19
X157.63Y-111.73
X157.63Y-114.27
X157.63Y-116.81
X157.63Y-119.35
X157.63Y-121.89
X157.63Y-124.43
X157.63Y-126.97
X157.63Y-129.51
X157.63Y-132.05
X157.63Y-134.59
X157.63Y-137.13
X157.63Y-139.67
X157.63Y-142.21
X157.643Y-58.297
X160.13Y-55.75
X160.15Y-53.29
X160.168Y-144.687
X160.17Y-60.93
X160.17Y-63.47
X160.17Y-66.01
X160.17Y-68.55
X160.17Y-71.09
X160.17Y-73.63
X160.17Y-76.17
X160.17Y-78.71
X160.17Y-81.25
X160.17Y-83.79
X160.17Y-86.33
X160.17Y-88.87
X160.17Y-91.41
X160.17Y-93.95
X160.17Y-96.49
X160.17Y-99.03
X160.17Y-101.57
X160.17Y-104.11
X160.17Y-106.65
X160.17Y-109.19
X160.17Y-111.73
X160.17Y-114.27
X160.17Y-116.81
X160.17Y-119.35
X160.17Y-121.89
X160.17Y-124.43
X160.17Y-126.97
X160.17Y-129.51
X160.17Y-132.05
X160.17Y-134.59
X160.17Y-137.13
X160.17Y-139.67
X160.17Y-142.21
X160.183Y-58.297
X162.67Y-55.75
X162.69Y-53.29
X162.708Y-144.687
X162.71Y-60.93
X162.71Y-63.47
X162.71Y-66.01
X162.71Y-68.55
X162.71Y-71.09
X162.71Y-73.63
X162.71Y-76.17
X162.71Y-78.71
X162.71Y-81.25
X162.71Y-83.79
X162.71Y-86.33
X162.71Y-88.87
X162.71Y-91.41
X162.71Y-93.95
X162.71Y-96.49
X162.71Y-99.03
X162.71Y-101.57
X162.71Y-104.11
X162.71Y-106.65
X162.71Y-109.19
X162.71Y-111.73
X162.71Y-114.27
X162.71Y-116.81
X162.71Y-119.35
X162.71Y-121.89
X162.71Y-124.43
X162.71Y-126.97
X162.71Y-129.51
X162.71Y-132.05
X162.71Y-134.59
X162.71Y-137.13
X162.71Y-139.67
X162.71Y-142.21
X162.723Y-58.297
X165.21Y-55.75
X165.23Y-53.29
X165.248Y-144.687
X165.25Y-60.93
X165.25Y-63.47
X165.25Y-66.01
X165.25Y-68.55
X165.25Y-71.09
X165.25Y-73.63
X165.25Y-76.17
X165.25Y-78.71
X165.25Y-81.25
X165.25Y-83.79
X165.25Y-86.33
X165.25Y-88.87
X165.25Y-91.41
X165.25Y-93.95
X165.25Y-96.49
X165.25Y-99.03
X165.25Y-101.57
X165.25Y-104.11
X165.25Y-106.65
X165.25Y-109.19
X165.25Y-111.73
X165.25Y-114.27
X165.25Y-116.81
X165.25Y-119.35
X165.25Y-121.89
X165.25Y-124.43
X165.25Y-126.97
X165.25Y-129.51
X165.25Y-132.05
X165.25Y-134.59
X165.25Y-137.13
X165.25Y-139.67
X165.25Y-142.21
X165.263Y-58.297
X167.75Y-55.75
X167.77Y-53.29
X167.788Y-144.687
X167.79Y-60.93
X167.79Y-63.47
X167.79Y-66.01
X167.79Y-68.55
X167.79Y-71.09
X167.79Y-73.63
X167.79Y-76.17
X167.79Y-78.71
X167.79Y-81.25
X167.79Y-83.79
X167.79Y-86.33
X167.79Y-88.87
X167.79Y-91.41
X167.79Y-93.95
X167.79Y-96.49
X167.79Y-99.03
X167.79Y-101.57
X167.79Y-104.11
X167.79Y-106.65
X167.79Y-109.19
X167.79Y-111.73
X167.79Y-114.27
X167.79Y-116.81
X167.79Y-119.35
X167.79Y-121.89
X167.79Y-124.43
X167.79Y-126.97
X167.79Y-129.51
X167.79Y-132.05
X167.79Y-134.59
X167.79Y-137.13
X167.79Y-139.67
X167.79Y-142.21
X167.803Y-58.297
X170.29Y-55.75
X170.3Y-147.3
X170.3Y-149.84
X170.31Y-53.29
X170.328Y-144.687
X170.33Y-60.93
X170.33Y-63.47
X170.33Y-66.01
X170.33Y-68.55
X170.33Y-71.09
X170.33Y-73.63
X170.33Y-76.17
X170.33Y-78.71
X170.33Y-81.25
X170.33Y-83.79
X170.33Y-86.33
X170.33Y-88.87
X170.33Y-91.41
X170.33Y-93.95
X170.33Y-96.49
X170.33Y-99.03
X170.33Y-101.57
X170.33Y-104.11
X170.33Y-106.65
X170.33Y-109.19
X170.33Y-111.73
X170.33Y-114.27
X170.33Y-116.81
X170.33Y-119.35
X170.33Y-121.89
X170.33Y-124.43
X170.33Y-126.97
X170.33Y-129.51
X170.33Y-132.05
X170.33Y-134.59
X170.33Y-137.13
X170.33Y-139.67
X170.33Y-142.21
X170.343Y-58.297
X172.83Y-55.75
X172.84Y-147.3
X172.84Y-149.84
X172.85Y-53.29
X172.868Y-144.687
X172.87Y-60.93
X172.87Y-63.47
X172.87Y-66.01
X172.87Y-68.55
X172.87Y-71.09
X172.87Y-73.63
X172.87Y-76.17
X172.87Y-78.71
X172.87Y-81.25
X172.87Y-83.79
X172.87Y-86.33
X172.87Y-88.87
X172.87Y-91.41
X172.87Y-93.95
X172.87Y-96.49
X172.87Y-99.03
X172.87Y-101.57
X172.87Y-104.11
X172.87Y-106.65
X172.87Y-109.19
X172.87Y-111.73
X172.87Y-114.27
X172.87Y-116.81
X172.87Y-119.35
X172.87Y-121.89
X172.87Y-124.43
X172.87Y-126.97
X172.87Y-129.51
X172.87Y-132.05
X172.87Y-134.59
X172.87Y-137.13
X172.87Y-139.67
X172.87Y-142.21
X172.883Y-58.297
X175.37Y-55.75
X175.38Y-147.3
X175.38Y-149.84
X175.39Y-53.29
X175.408Y-144.687
X175.41Y-60.93
X175.41Y-63.47
X175.41Y-66.01
X175.41Y-68.55
X175.41Y-71.09
X175.41Y-73.63
X175.41Y-76.17
X175.41Y-78.71
X175.41Y-81.25
X175.41Y-83.79
X175.41Y-86.33
X175.41Y-88.87
X175.41Y-91.41
X175.41Y-93.95
X175.41Y-96.49
X175.41Y-99.03
X175.41Y-101.57
X175.41Y-104.11
X175.41Y-106.65
X175.41Y-109.19
X175.41Y-111.73
X175.41Y-114.27
X175.41Y-116.81
X175.41Y-119.35
X175.41Y-121.89
X175.41Y-124.43
X175.41Y-126.97
X175.41Y-129.51
X175.41Y-132.05
X175.41Y-134.59
X175.41Y-137.13
X175.41Y-139.67
X175.41Y-142.21
X175.423Y-58.297
X177.91Y-55.75
X177.92Y-147.3
X177.92Y-149.84
X177.93Y-53.29
X177.948Y-144.687
X177.95Y-60.93
X177.95Y-63.47
X177.95Y-66.01
X177.95Y-68.55
X177.95Y-71.09
X177.95Y-73.63
X177.95Y-76.17
X177.95Y-78.71
X177.95Y-81.25
X177.95Y-83.79
X177.95Y-86.33
X177.95Y-88.87
X177.95Y-91.41
X177.95Y-93.95
X177.95Y-96.49
X177.95Y-99.03
X177.95Y-101.57
X177.95Y-104.11
X177.95Y-106.65
X177.95Y-109.19
X177.95Y-111.73
X177.95Y-114.27
X177.95Y-116.81
X177.95Y-119.35
X177.95Y-121.89
X177.95Y-124.43
X177.95Y-126.97
X177.95Y-129.51
X177.95Y-132.05
X177.95Y-134.59
X177.95Y-137.13
X177.95Y-139.67
X177.95Y-142.21
X177.963Y-58.297
X180.45Y-55.75
X180.46Y-147.3
X180.46Y-149.84
X180.47Y-53.29
X180.488Y-144.687
X180.49Y-60.93
X180.49Y-63.47
X180.49Y-66.01
X180.49Y-68.55
X180.49Y-71.09
X180.49Y-73.63
X180.49Y-76.17
X180.49Y-78.71
X180.49Y-81.25
X180.49Y-83.79
X180.49Y-86.33
X180.49Y-88.87
X180.49Y-91.41
X180.49Y-93.95
X180.49Y-96.49
X180.49Y-99.03
X180.49Y-101.57
X180.49Y-104.11
X180.49Y-106.65
X180.49Y-109.19
X180.49Y-111.73
X180.49Y-114.27
X180.49Y-116.81
X180.49Y-119.35
X180.49Y-121.89
X180.49Y-124.43
X180.49Y-126.97
X180.49Y-129.51
X180.49Y-132.05
X180.49Y-134.59
X180.49Y-137.13
X180.49Y-139.67
X180.49Y-142.21
X180.503Y-58.297
X182.99Y-55.75
X183.0Y-147.3
X183.0Y-149.84
X183.01Y-53.29
X183.028Y-144.687
X183.03Y-60.93
X183.03Y-63.47
X183.03Y-66.01
X183.03Y-68.55
X183.03Y-71.09
X183.03Y-73.63
X183.03Y-76.17
X183.03Y-78.71
X183.03Y-81.25
X183.03Y-83.79
X183.03Y-86.33
X183.03Y-88.87
X183.03Y-91.41
X183.03Y-93.95
X183.03Y-96.49
X183.03Y-99.03
X183.03Y-101.57
X183.03Y-104.11
X183.03Y-106.65
X183.03Y-109.19
X183.03Y-111.73
X183.03Y-114.27
X183.03Y-116.81
X183.03Y-119.35
X183.03Y-121.89
X183.03Y-124.43
X183.03Y-126.97
X183.03Y-129.51
X183.03Y-132.05
X183.03Y-134.59
X183.03Y-137.13
X183.03Y-139.67
X183.03Y-142.21
X183.043Y-58.297
X185.491Y-144.68
X185.493Y-60.923
X185.493Y-63.463
X185.493Y-66.003
X185.493Y-68.543
X185.493Y-71.083
X185.493Y-73.623
X185.493Y-76.163
X185.493Y-78.703
X185.493Y-81.243
X185.493Y-83.783
X185.493Y-86.323
X185.493Y-88.863
X185.493Y-91.403
X185.493Y-93.943
X185.493Y-96.483
X185.493Y-99.023
X185.493Y-101.563
X185.493Y-104.103
X185.493Y-106.643
X185.493Y-109.183
X185.493Y-111.723
X185.493Y-114.263
X185.493Y-116.803
X185.493Y-119.343
X185.493Y-121.883
X185.493Y-124.423
X185.493Y-126.963
X185.493Y-129.503
X185.493Y-132.043
X185.493Y-134.583
X185.493Y-137.123
X185.493Y-139.663
X185.493Y-142.203
X185.507Y-58.29
X185.53Y-55.75
X185.54Y-147.3
X185.54Y-149.84
X185.55Y-53.29
X188.046Y-144.68
X188.048Y-60.923
X188.048Y-63.463
X188.048Y-66.003
X188.048Y-68.543
X188.048Y-71.083
X188.048Y-73.623
X188.048Y-76.163
X188.048Y-78.703
X188.048Y-81.243
X188.048Y-83.783
X188.048Y-86.323
X188.048Y-88.863
X188.048Y-91.403
X188.048Y-93.943
X188.048Y-96.483
X188.048Y-99.023
X188.048Y-101.563
X188.048Y-104.103
X188.048Y-106.643
X188.048Y-109.183
X188.048Y-111.723
X188.048Y-114.263
X188.048Y-116.803
X188.048Y-119.343
X188.048Y-121.883
X188.048Y-124.423
X188.048Y-126.963
X188.048Y-129.503
X188.048Y-132.043
X188.048Y-134.583
X188.048Y-137.123
X188.048Y-139.663
X188.048Y-142.203
X188.061Y-58.29
X188.07Y-55.75
X188.08Y-147.3
X188.08Y-149.84
X188.09Y-53.29
X190.6Y-144.68
X190.602Y-60.923
X190.602Y-63.463
X190.602Y-66.003
X190.602Y-68.543
X190.602Y-71.083
X190.602Y-73.623
X190.602Y-76.163
X190.602Y-78.703
X190.602Y-81.243
X190.602Y-83.783
X190.602Y-86.323
X190.602Y-88.863
X190.602Y-91.403
X190.602Y-93.943
X190.602Y-96.483
X190.602Y-99.023
X190.602Y-101.563
X190.602Y-104.103
X190.602Y-106.643
X190.602Y-109.183
X190.602Y-111.723
X190.602Y-114.263
X190.602Y-116.803
X190.602Y-119.343
X190.602Y-121.883
X190.602Y-124.423
X190.602Y-126.963
X190.602Y-129.503
X190.602Y-132.043
X190.602Y-134.583
X190.602Y-137.123
X190.602Y-139.663
X190.602Y-142.203
X190.61Y-55.75
X190.616Y-58.29
X190.62Y-147.3
X190.62Y-149.84
X190.63Y-53.29
X193.15Y-55.75
X193.154Y-144.68
X193.157Y-60.923
X193.157Y-63.463
X193.157Y-66.003
X193.157Y-68.543
X193.157Y-71.083
X193.157Y-73.623
X193.157Y-76.163
X193.157Y-78.703
X193.157Y-81.243
X193.157Y-83.783
X193.157Y-86.323
X193.157Y-88.863
X193.157Y-91.403
X193.157Y-93.943
X193.157Y-96.483
X193.157Y-99.023
X193.157Y-101.563
X193.157Y-104.103
X193.157Y-106.643
X193.157Y-109.183
X193.157Y-111.723
X193.157Y-114.263
X193.157Y-116.803
X193.157Y-119.343
X193.157Y-121.883
X193.157Y-124.423
X193.157Y-126.963
X193.157Y-129.503
X193.157Y-132.043
X193.157Y-134.583
X193.157Y-137.123
X193.157Y-139.663
X193.157Y-142.203
X193.16Y-147.3
X193.16Y-149.84
X193.17Y-53.29
X193.17Y-58.29
X195.73Y-60.93
X195.73Y-63.47
X195.73Y-66.01
X195.73Y-68.55
X195.73Y-71.09
X195.73Y-73.63
X195.73Y-76.17
X195.73Y-78.71
X195.73Y-81.25
X195.73Y-83.79
X195.73Y-86.33
X195.73Y-88.87
X195.73Y-91.41
X195.73Y-93.95
X195.73Y-96.49
X195.73Y-99.03
X195.73Y-101.57
X195.73Y-104.11
X195.73Y-106.65
X195.73Y-109.19
X195.73Y-111.73
X195.73Y-114.27
X195.73Y-116.81
X195.73Y-119.35
X195.73Y-121.89
X195.73Y-124.43
X195.73Y-126.97
X195.73Y-129.51
X195.73Y-132.05
X195.73Y-134.59
X195.73Y-137.13
X195.73Y-139.67
X195.73Y-142.21
X198.12Y-55.88
X198.12Y-147.32
X198.12Y-147.32
X198.27Y-60.93
X198.27Y-63.47
X198.27Y-66.01
X198.27Y-68.55
X198.27Y-71.09
X198.27Y-73.63
X198.27Y-76.17
X198.27Y-78.71
X198.27Y-81.25
X198.27Y-83.79
X198.27Y-86.33
X198.27Y-88.87
X198.27Y-91.41
X198.27Y-93.95
X198.27Y-96.49
X198.27Y-99.03
X198.27Y-101.57
X198.27Y-104.11
X198.27Y-106.65
X198.27Y-109.19
X198.27Y-111.73
X198.27Y-114.27
X198.27Y-116.81
X198.27Y-119.35
X198.27Y-121.89
X198.27Y-124.43
X198.27Y-126.97
X198.27Y-129.51
X198.27Y-132.05
X198.27Y-134.59
X198.27Y-137.13
X198.27Y-139.67
X198.27Y-142.21
X200.81Y-60.93
X200.81Y-63.47
X200.81Y-66.01
X200.81Y-68.55
X200.81Y-71.09
X200.81Y-73.63
X200.81Y-76.17
X200.81Y-78.71
X200.81Y-81.25
X200.81Y-83.79
X200.81Y-86.33
X200.81Y-88.87
X200.81Y-91.41
X200.81Y-93.95
X200.81Y-96.49
X200.81Y-99.03
X200.81Y-101.57
X200.81Y-104.11
X200.81Y-106.65
X200.81Y-109.19
X200.81Y-111.73
X200.81Y-114.27
X200.81Y-116.81
X200.81Y-119.35
X200.81Y-121.89
X200.81Y-124.43
X200.81Y-126.97
X200.81Y-129.51
X200.81Y-132.05
X200.81Y-134.59
X200.81Y-137.13
X200.81Y-139.67
X200.81Y-142.21
T2
X107.593Y-56.299
X107.6Y-146.3
X197.6Y-56.3
X197.6Y-146.3
T0
M30
