%TF.GenerationSoftware,KiCad,Pcbnew,(6.0.5)*%
%TF.CreationDate,2022-05-26T18:09:24+08:00*%
%TF.ProjectId,Dot_Board,446f745f-426f-4617-9264-2e6b69636164,rev?*%
%TF.SameCoordinates,Original*%
%TF.FileFunction,Legend,Top*%
%TF.FilePolarity,Positive*%
%FSLAX46Y46*%
G04 Gerber Fmt 4.6, Leading zero omitted, Abs format (unit mm)*
G04 Created by KiCad (PCBNEW (6.0.5)) date 2022-05-26 18:09:24*
%MOMM*%
%LPD*%
G01*
G04 APERTURE LIST*
%ADD10C,1.000000*%
%ADD11C,2.000000*%
%ADD12C,1.500000*%
%ADD13C,0.500000*%
%ADD14C,2.000000*%
%ADD15C,5.000000*%
G04 APERTURE END LIST*
D10*
X113682380Y-121471904D02*
X116539523Y-121471904D01*
X115110952Y-126471904D02*
X115110952Y-121471904D01*
X118206190Y-126471904D02*
X118206190Y-123138571D01*
X118206190Y-121471904D02*
X117968095Y-121710000D01*
X118206190Y-121948095D01*
X118444285Y-121710000D01*
X118206190Y-121471904D01*
X118206190Y-121948095D01*
X122730000Y-126471904D02*
X122730000Y-123852857D01*
X122491904Y-123376666D01*
X122015714Y-123138571D01*
X121063333Y-123138571D01*
X120587142Y-123376666D01*
X122730000Y-126233809D02*
X122253809Y-126471904D01*
X121063333Y-126471904D01*
X120587142Y-126233809D01*
X120349047Y-125757619D01*
X120349047Y-125281428D01*
X120587142Y-124805238D01*
X121063333Y-124567142D01*
X122253809Y-124567142D01*
X122730000Y-124329047D01*
X125110952Y-123138571D02*
X125110952Y-126471904D01*
X125110952Y-123614761D02*
X125349047Y-123376666D01*
X125825238Y-123138571D01*
X126539523Y-123138571D01*
X127015714Y-123376666D01*
X127253809Y-123852857D01*
X127253809Y-126471904D01*
X128920476Y-123138571D02*
X130825238Y-123138571D01*
X129634761Y-126471904D02*
X129634761Y-122186190D01*
X129872857Y-121710000D01*
X130349047Y-121471904D01*
X130825238Y-121471904D01*
X134634761Y-123138571D02*
X134634761Y-126471904D01*
X132491904Y-123138571D02*
X132491904Y-125757619D01*
X132730000Y-126233809D01*
X133206190Y-126471904D01*
X133920476Y-126471904D01*
X134396666Y-126233809D01*
X134634761Y-125995714D01*
X140587142Y-126233809D02*
X141301428Y-126471904D01*
X142491904Y-126471904D01*
X142968095Y-126233809D01*
X143206190Y-125995714D01*
X143444285Y-125519523D01*
X143444285Y-125043333D01*
X143206190Y-124567142D01*
X142968095Y-124329047D01*
X142491904Y-124090952D01*
X141539523Y-123852857D01*
X141063333Y-123614761D01*
X140825238Y-123376666D01*
X140587142Y-122900476D01*
X140587142Y-122424285D01*
X140825238Y-121948095D01*
X141063333Y-121710000D01*
X141539523Y-121471904D01*
X142730000Y-121471904D01*
X143444285Y-121710000D01*
X146301428Y-126471904D02*
X145825238Y-126233809D01*
X145587142Y-125995714D01*
X145349047Y-125519523D01*
X145349047Y-124090952D01*
X145587142Y-123614761D01*
X145825238Y-123376666D01*
X146301428Y-123138571D01*
X147015714Y-123138571D01*
X147491904Y-123376666D01*
X147730000Y-123614761D01*
X147968095Y-124090952D01*
X147968095Y-125519523D01*
X147730000Y-125995714D01*
X147491904Y-126233809D01*
X147015714Y-126471904D01*
X146301428Y-126471904D01*
X149396666Y-123138571D02*
X151301428Y-123138571D01*
X150110952Y-126471904D02*
X150110952Y-122186190D01*
X150349047Y-121710000D01*
X150825238Y-121471904D01*
X151301428Y-121471904D01*
X152253809Y-123138571D02*
X154158571Y-123138571D01*
X152968095Y-121471904D02*
X152968095Y-125757619D01*
X153206190Y-126233809D01*
X153682380Y-126471904D01*
X154158571Y-126471904D01*
X155349047Y-123138571D02*
X156301428Y-126471904D01*
X157253809Y-124090952D01*
X158206190Y-126471904D01*
X159158571Y-123138571D01*
X163206190Y-126471904D02*
X163206190Y-123852857D01*
X162968095Y-123376666D01*
X162491904Y-123138571D01*
X161539523Y-123138571D01*
X161063333Y-123376666D01*
X163206190Y-126233809D02*
X162730000Y-126471904D01*
X161539523Y-126471904D01*
X161063333Y-126233809D01*
X160825238Y-125757619D01*
X160825238Y-125281428D01*
X161063333Y-124805238D01*
X161539523Y-124567142D01*
X162730000Y-124567142D01*
X163206190Y-124329047D01*
X165587142Y-126471904D02*
X165587142Y-123138571D01*
X165587142Y-124090952D02*
X165825238Y-123614761D01*
X166063333Y-123376666D01*
X166539523Y-123138571D01*
X167015714Y-123138571D01*
X170587142Y-126233809D02*
X170110952Y-126471904D01*
X169158571Y-126471904D01*
X168682380Y-126233809D01*
X168444285Y-125757619D01*
X168444285Y-123852857D01*
X168682380Y-123376666D01*
X169158571Y-123138571D01*
X170110952Y-123138571D01*
X170587142Y-123376666D01*
X170825238Y-123852857D01*
X170825238Y-124329047D01*
X168444285Y-124805238D01*
X176777619Y-126471904D02*
X176777619Y-121471904D01*
X178682380Y-121471904D01*
X179158571Y-121710000D01*
X179396666Y-121948095D01*
X179634761Y-122424285D01*
X179634761Y-123138571D01*
X179396666Y-123614761D01*
X179158571Y-123852857D01*
X178682380Y-124090952D01*
X176777619Y-124090952D01*
X183920476Y-126471904D02*
X183920476Y-123852857D01*
X183682380Y-123376666D01*
X183206190Y-123138571D01*
X182253809Y-123138571D01*
X181777619Y-123376666D01*
X183920476Y-126233809D02*
X183444285Y-126471904D01*
X182253809Y-126471904D01*
X181777619Y-126233809D01*
X181539523Y-125757619D01*
X181539523Y-125281428D01*
X181777619Y-124805238D01*
X182253809Y-124567142D01*
X183444285Y-124567142D01*
X183920476Y-124329047D01*
X186301428Y-126471904D02*
X186301428Y-123138571D01*
X186301428Y-124090952D02*
X186539523Y-123614761D01*
X186777619Y-123376666D01*
X187253809Y-123138571D01*
X187730000Y-123138571D01*
X189396666Y-126471904D02*
X189396666Y-121471904D01*
X189872857Y-124567142D02*
X191301428Y-126471904D01*
X191301428Y-123138571D02*
X189396666Y-125043333D01*
D11*
X132980476Y-80961904D02*
X150504285Y-80961904D01*
X136028095Y-92390476D02*
X138313809Y-92390476D01*
X132980476Y-85533333D02*
X138313809Y-85533333D01*
X138313809Y-92390476D01*
X145932857Y-77914285D02*
X149742380Y-79438095D01*
X148218571Y-84009523D02*
X145932857Y-89342857D01*
X141361428Y-93914285D01*
X138313809Y-94676190D01*
X132980476Y-80961904D02*
X132980476Y-89342857D01*
X131456666Y-94676190D01*
X142885238Y-77152380D02*
X142885238Y-81723809D01*
X145170952Y-93152380D01*
X149742380Y-95438095D01*
X150504285Y-91628571D01*
X155837619Y-80200000D02*
X162694761Y-80200000D01*
X154313809Y-84009523D02*
X165742380Y-84009523D01*
X158123333Y-90866666D02*
X164218571Y-90866666D01*
X158123333Y-93914285D02*
X164218571Y-93914285D01*
X158123333Y-87057142D02*
X158123333Y-95438095D01*
X159647142Y-77152380D02*
X159647142Y-84009523D01*
X158123333Y-87057142D02*
X164218571Y-87057142D01*
X164218571Y-95438095D01*
X167266190Y-78676190D02*
X167266190Y-95438095D01*
X170313809Y-84771428D02*
X173361428Y-87057142D01*
X174123333Y-92390476D01*
X167266190Y-78676190D02*
X174123333Y-78676190D01*
X171075714Y-84771428D01*
X164980476Y-77914285D02*
X164218571Y-80961904D01*
X158123333Y-87057142D01*
X154313809Y-88580952D01*
X174123333Y-92390476D02*
X169551904Y-92390476D01*
D12*
X117017619Y-105333809D02*
X129398571Y-105333809D01*
X117493809Y-109143333D02*
X128922380Y-109143333D01*
X123208095Y-105333809D02*
X123208095Y-109619523D01*
X124636666Y-112476666D01*
X126541428Y-114381428D01*
X129398571Y-115333809D01*
X123208095Y-109143333D02*
X121779523Y-112476666D01*
X120350952Y-113905238D01*
X117017619Y-115333809D01*
X123208095Y-107714761D02*
X122731904Y-112000476D01*
X132731904Y-105810000D02*
X144160476Y-105810000D01*
X137493809Y-108667142D02*
X144160476Y-108667142D01*
X139874761Y-115333809D02*
X142255714Y-115333809D01*
X138446190Y-103905238D02*
X138446190Y-105810000D01*
X142255714Y-106286190D02*
X142255714Y-115333809D01*
X138922380Y-111048095D02*
X139398571Y-112952857D01*
X132731904Y-105810000D02*
X132731904Y-111524285D01*
X132255714Y-115333809D01*
X136541428Y-106762380D02*
X136065238Y-108667142D01*
X134160476Y-110571904D01*
X136065238Y-108667142D02*
X136065238Y-115333809D01*
X146541428Y-105810000D02*
X152255714Y-105810000D01*
X147017619Y-109619523D02*
X152255714Y-109619523D01*
X149874761Y-107714761D02*
X149874761Y-115333809D01*
X157017619Y-113429047D02*
X158922380Y-115333809D01*
X154636666Y-112952857D02*
X152255714Y-115333809D01*
X156065238Y-110571904D02*
X157493809Y-114381428D01*
X155112857Y-110571904D02*
X153684285Y-113905238D01*
X149398571Y-104857619D02*
X147017619Y-109619523D01*
X155589047Y-109143333D02*
X157017619Y-113429047D01*
X154160476Y-106286190D02*
X158922380Y-106286190D01*
X158446190Y-109143333D01*
X154636666Y-103905238D02*
X153208095Y-108667142D01*
X155589047Y-108190952D02*
X155112857Y-112476666D01*
X151303333Y-112000476D02*
X146541428Y-112952857D01*
X166541428Y-107238571D02*
X173208095Y-107238571D01*
X165112857Y-110571904D02*
X173684285Y-110571904D01*
X163684285Y-106286190D02*
X163684285Y-115333809D01*
X169398571Y-103905238D02*
X169398571Y-115333809D01*
X167017619Y-104857619D02*
X165589047Y-108667142D01*
X164636666Y-104381428D02*
X162731904Y-107714761D01*
X161303333Y-109143333D01*
X178446190Y-106762380D02*
X186065238Y-106762380D01*
X177493809Y-109143333D02*
X187017619Y-109143333D01*
X183684285Y-113429047D02*
X187017619Y-113429047D01*
X176065238Y-114857619D02*
X188446190Y-114857619D01*
X176065238Y-104857619D02*
X176065238Y-115333809D01*
X183684285Y-109143333D02*
X183684285Y-113429047D01*
X187017619Y-112000476D02*
X187017619Y-113429047D01*
X176065238Y-104857619D02*
X188446190Y-104857619D01*
X188446190Y-115333809D01*
X179874761Y-111524285D02*
X178446190Y-113429047D01*
X180350952Y-109143333D02*
X179874761Y-112476666D01*
D13*
X138585238Y-147524761D02*
X138585238Y-149143809D01*
X138680476Y-149334285D01*
X138775714Y-149429523D01*
X138966190Y-149524761D01*
X139347142Y-149524761D01*
X139537619Y-149429523D01*
X139632857Y-149334285D01*
X139728095Y-149143809D01*
X139728095Y-147524761D01*
X140680476Y-149524761D02*
X140680476Y-148191428D01*
X140680476Y-147524761D02*
X140585238Y-147620000D01*
X140680476Y-147715238D01*
X140775714Y-147620000D01*
X140680476Y-147524761D01*
X140680476Y-147715238D01*
X141632857Y-148191428D02*
X141632857Y-149524761D01*
X141632857Y-148381904D02*
X141728095Y-148286666D01*
X141918571Y-148191428D01*
X142204285Y-148191428D01*
X142394761Y-148286666D01*
X142490000Y-148477142D01*
X142490000Y-149524761D01*
X143442380Y-149524761D02*
X143442380Y-147524761D01*
X144775714Y-147524761D02*
X145156666Y-147524761D01*
X145347142Y-147620000D01*
X145537619Y-147810476D01*
X145632857Y-148191428D01*
X145632857Y-148858095D01*
X145537619Y-149239047D01*
X145347142Y-149429523D01*
X145156666Y-149524761D01*
X144775714Y-149524761D01*
X144585238Y-149429523D01*
X144394761Y-149239047D01*
X144299523Y-148858095D01*
X144299523Y-148191428D01*
X144394761Y-147810476D01*
X144585238Y-147620000D01*
X144775714Y-147524761D01*
X146490000Y-149334285D02*
X146585238Y-149429523D01*
X146490000Y-149524761D01*
X146394761Y-149429523D01*
X146490000Y-149334285D01*
X146490000Y-149524761D01*
X148299523Y-149429523D02*
X148109047Y-149524761D01*
X147728095Y-149524761D01*
X147537619Y-149429523D01*
X147442380Y-149334285D01*
X147347142Y-149143809D01*
X147347142Y-148572380D01*
X147442380Y-148381904D01*
X147537619Y-148286666D01*
X147728095Y-148191428D01*
X148109047Y-148191428D01*
X148299523Y-148286666D01*
X149442380Y-149524761D02*
X149251904Y-149429523D01*
X149156666Y-149334285D01*
X149061428Y-149143809D01*
X149061428Y-148572380D01*
X149156666Y-148381904D01*
X149251904Y-148286666D01*
X149442380Y-148191428D01*
X149728095Y-148191428D01*
X149918571Y-148286666D01*
X150013809Y-148381904D01*
X150109047Y-148572380D01*
X150109047Y-149143809D01*
X150013809Y-149334285D01*
X149918571Y-149429523D01*
X149728095Y-149524761D01*
X149442380Y-149524761D01*
X150966190Y-149524761D02*
X150966190Y-148191428D01*
X150966190Y-148381904D02*
X151061428Y-148286666D01*
X151251904Y-148191428D01*
X151537619Y-148191428D01*
X151728095Y-148286666D01*
X151823333Y-148477142D01*
X151823333Y-149524761D01*
X151823333Y-148477142D02*
X151918571Y-148286666D01*
X152109047Y-148191428D01*
X152394761Y-148191428D01*
X152585238Y-148286666D01*
X152680476Y-148477142D01*
X152680476Y-149524761D01*
X155156666Y-149524761D02*
X155156666Y-147524761D01*
X155156666Y-148286666D02*
X155347142Y-148191428D01*
X155728095Y-148191428D01*
X155918571Y-148286666D01*
X156013809Y-148381904D01*
X156109047Y-148572380D01*
X156109047Y-149143809D01*
X156013809Y-149334285D01*
X155918571Y-149429523D01*
X155728095Y-149524761D01*
X155347142Y-149524761D01*
X155156666Y-149429523D01*
X156775714Y-148191428D02*
X157251904Y-149524761D01*
X157728095Y-148191428D02*
X157251904Y-149524761D01*
X157061428Y-150000952D01*
X156966190Y-150096190D01*
X156775714Y-150191428D01*
X160013809Y-149524761D02*
X160013809Y-147524761D01*
X160013809Y-148477142D02*
X161156666Y-148477142D01*
X161156666Y-149524761D02*
X161156666Y-147524761D01*
X162966190Y-149524761D02*
X162966190Y-148477142D01*
X162870952Y-148286666D01*
X162680476Y-148191428D01*
X162299523Y-148191428D01*
X162109047Y-148286666D01*
X162966190Y-149429523D02*
X162775714Y-149524761D01*
X162299523Y-149524761D01*
X162109047Y-149429523D01*
X162013809Y-149239047D01*
X162013809Y-149048571D01*
X162109047Y-148858095D01*
X162299523Y-148762857D01*
X162775714Y-148762857D01*
X162966190Y-148667619D01*
X163918571Y-148191428D02*
X163918571Y-149524761D01*
X163918571Y-148381904D02*
X164013809Y-148286666D01*
X164204285Y-148191428D01*
X164490000Y-148191428D01*
X164680476Y-148286666D01*
X164775714Y-148477142D01*
X164775714Y-149524761D01*
X165728095Y-149524761D02*
X165728095Y-147524761D01*
X165918571Y-148762857D02*
X166490000Y-149524761D01*
X166490000Y-148191428D02*
X165728095Y-148953333D01*
%LPC*%
D14*
X193160000Y-149840000D03*
X190620000Y-149840000D03*
X193160000Y-147300000D03*
X190620000Y-147300000D03*
X198120000Y-147320000D03*
X134800000Y-149810000D03*
X132260000Y-149810000D03*
X134800000Y-147270000D03*
X132260000Y-147270000D03*
X183000000Y-149840000D03*
X180460000Y-149840000D03*
X188080000Y-149840000D03*
X185540000Y-149840000D03*
X183000000Y-147300000D03*
X180460000Y-147300000D03*
X188080000Y-147300000D03*
X185540000Y-147300000D03*
X172840000Y-149840000D03*
X170300000Y-149840000D03*
X177920000Y-149840000D03*
X175380000Y-149840000D03*
X172840000Y-147300000D03*
X170300000Y-147300000D03*
X177920000Y-147300000D03*
X175380000Y-147300000D03*
X124640000Y-147270000D03*
X122100000Y-147270000D03*
X129720000Y-147270000D03*
X127180000Y-147270000D03*
X124640000Y-149810000D03*
X122100000Y-149810000D03*
X129720000Y-149810000D03*
X127180000Y-149810000D03*
X114480000Y-149810000D03*
X111940000Y-149810000D03*
X119560000Y-149810000D03*
X117020000Y-149810000D03*
X119560000Y-147270000D03*
X117020000Y-147270000D03*
X114480000Y-147270000D03*
X111940000Y-147270000D03*
X106830000Y-142210000D03*
X106830000Y-139670000D03*
X106830000Y-137130000D03*
D15*
X107593355Y-56299014D03*
D14*
X185550000Y-53290000D03*
X193170000Y-53290000D03*
X190630000Y-53290000D03*
X188090000Y-53290000D03*
X175390000Y-53290000D03*
X183010000Y-53290000D03*
X177930000Y-53290000D03*
X180470000Y-53290000D03*
X165230000Y-53290000D03*
X172850000Y-53290000D03*
X167770000Y-53290000D03*
X170310000Y-53290000D03*
X162690000Y-53290000D03*
X160150000Y-53290000D03*
X149990000Y-53290000D03*
X142370000Y-53290000D03*
X157610000Y-53290000D03*
X147450000Y-53290000D03*
X144910000Y-53290000D03*
X137290000Y-53290000D03*
X134750000Y-53290000D03*
X139830000Y-53290000D03*
X155070000Y-53290000D03*
X152530000Y-53290000D03*
X119510000Y-53290000D03*
X111890000Y-53290000D03*
X124590000Y-53290000D03*
X114430000Y-53290000D03*
X129670000Y-53290000D03*
X122050000Y-53290000D03*
X132210000Y-53290000D03*
X127130000Y-53290000D03*
X116970000Y-53290000D03*
X198120000Y-55880000D03*
X188070000Y-55750000D03*
X193150000Y-55750000D03*
X190610000Y-55750000D03*
X177910000Y-55750000D03*
X185530000Y-55750000D03*
X180450000Y-55750000D03*
X182990000Y-55750000D03*
X167750000Y-55750000D03*
X175370000Y-55750000D03*
X170290000Y-55750000D03*
X172830000Y-55750000D03*
X165210000Y-55750000D03*
X162670000Y-55750000D03*
X152510000Y-55750000D03*
X144890000Y-55750000D03*
X160130000Y-55750000D03*
X149970000Y-55750000D03*
X147430000Y-55750000D03*
X139810000Y-55750000D03*
X137270000Y-55750000D03*
X142350000Y-55750000D03*
X157590000Y-55750000D03*
X155050000Y-55750000D03*
X122030000Y-55750000D03*
X114410000Y-55750000D03*
X111870000Y-55750000D03*
X127110000Y-55750000D03*
X116950000Y-55750000D03*
X132190000Y-55750000D03*
X124570000Y-55750000D03*
X134730000Y-55750000D03*
X129650000Y-55750000D03*
X119490000Y-55750000D03*
X200810000Y-134590000D03*
X200810000Y-142210000D03*
X200810000Y-139670000D03*
X200810000Y-137130000D03*
X200810000Y-124430000D03*
X200810000Y-132050000D03*
X200810000Y-126970000D03*
X200810000Y-129510000D03*
X200810000Y-114270000D03*
X200810000Y-121890000D03*
X200810000Y-116810000D03*
X200810000Y-119350000D03*
X200810000Y-111730000D03*
X200810000Y-109190000D03*
X200810000Y-99030000D03*
X200810000Y-91410000D03*
X200810000Y-106650000D03*
X200810000Y-96490000D03*
X200810000Y-93950000D03*
X200810000Y-86330000D03*
X200810000Y-83790000D03*
X200810000Y-88870000D03*
X200810000Y-104110000D03*
X200810000Y-101570000D03*
X200810000Y-68550000D03*
X200810000Y-60930000D03*
X200810000Y-73630000D03*
X200810000Y-63470000D03*
X200810000Y-78710000D03*
X200810000Y-71090000D03*
X200810000Y-81250000D03*
X200810000Y-76170000D03*
X200810000Y-66010000D03*
X198120000Y-147320000D03*
X198270000Y-137130000D03*
X198270000Y-142210000D03*
X198270000Y-139670000D03*
X198270000Y-126970000D03*
X198270000Y-134590000D03*
X198270000Y-129510000D03*
X198270000Y-132050000D03*
X198270000Y-116810000D03*
X198270000Y-124430000D03*
X198270000Y-119350000D03*
X198270000Y-121890000D03*
X198270000Y-114270000D03*
X198270000Y-111730000D03*
X198270000Y-101570000D03*
X198270000Y-93950000D03*
X198270000Y-109190000D03*
X198270000Y-99030000D03*
X198270000Y-96490000D03*
X198270000Y-88870000D03*
X198270000Y-86330000D03*
X198270000Y-91410000D03*
X198270000Y-106650000D03*
X198270000Y-104110000D03*
X198270000Y-71090000D03*
X198270000Y-63470000D03*
X198270000Y-60930000D03*
X198270000Y-76170000D03*
X198270000Y-66010000D03*
X198270000Y-81250000D03*
X198270000Y-73630000D03*
X198270000Y-83790000D03*
X198270000Y-78710000D03*
X198270000Y-68550000D03*
X195730000Y-137130000D03*
X195730000Y-142210000D03*
X195730000Y-139670000D03*
X195730000Y-126970000D03*
X195730000Y-134590000D03*
X195730000Y-129510000D03*
X195730000Y-132050000D03*
X195730000Y-116810000D03*
X195730000Y-124430000D03*
X195730000Y-119350000D03*
X195730000Y-121890000D03*
X195730000Y-114270000D03*
X195730000Y-111730000D03*
X195730000Y-101570000D03*
X195730000Y-93950000D03*
X195730000Y-109190000D03*
X195730000Y-99030000D03*
X195730000Y-96490000D03*
X195730000Y-88870000D03*
X195730000Y-86330000D03*
X195730000Y-91410000D03*
X195730000Y-106650000D03*
X195730000Y-104110000D03*
X195730000Y-71090000D03*
X195730000Y-63470000D03*
X195730000Y-60930000D03*
X195730000Y-76170000D03*
X195730000Y-66010000D03*
X195730000Y-81250000D03*
X195730000Y-73630000D03*
X195730000Y-83790000D03*
X195730000Y-78710000D03*
X195730000Y-68550000D03*
X109370000Y-137130000D03*
X109370000Y-142210000D03*
X109370000Y-139670000D03*
X109370000Y-126970000D03*
X109370000Y-134590000D03*
X109370000Y-129510000D03*
X109370000Y-132050000D03*
X109370000Y-116810000D03*
X109370000Y-124430000D03*
X109370000Y-119350000D03*
X109370000Y-121890000D03*
X109370000Y-114270000D03*
X109370000Y-111730000D03*
X109370000Y-101570000D03*
X109370000Y-93950000D03*
X109370000Y-109190000D03*
X109370000Y-99030000D03*
X109370000Y-96490000D03*
X109370000Y-88870000D03*
X109370000Y-86330000D03*
X109370000Y-91410000D03*
X109370000Y-106650000D03*
X109370000Y-104110000D03*
X109370000Y-71090000D03*
X109370000Y-63470000D03*
X109370000Y-60930000D03*
X109370000Y-76170000D03*
X109370000Y-66010000D03*
X109370000Y-81250000D03*
X109370000Y-73630000D03*
X109370000Y-83790000D03*
X109370000Y-78710000D03*
X109370000Y-68550000D03*
X111907742Y-144686769D03*
X111910000Y-134590000D03*
X111910000Y-142210000D03*
X111910000Y-139670000D03*
X111910000Y-137130000D03*
X111910000Y-124430000D03*
X111910000Y-132050000D03*
X111910000Y-126970000D03*
X111910000Y-129510000D03*
X111910000Y-114270000D03*
X111910000Y-121890000D03*
X111910000Y-116810000D03*
X111910000Y-119350000D03*
X111910000Y-111730000D03*
X111910000Y-109190000D03*
X111910000Y-99030000D03*
X111910000Y-91410000D03*
X111910000Y-106650000D03*
X111910000Y-96490000D03*
X111910000Y-93950000D03*
X111910000Y-86330000D03*
X111910000Y-83790000D03*
X111910000Y-88870000D03*
X111910000Y-104110000D03*
X111910000Y-101570000D03*
X111910000Y-68550000D03*
X111910000Y-60930000D03*
X111923268Y-58296769D03*
X111910000Y-73630000D03*
X111910000Y-63470000D03*
X111910000Y-78710000D03*
X111910000Y-71090000D03*
X111910000Y-81250000D03*
X111910000Y-76170000D03*
X111910000Y-66010000D03*
X193154474Y-144680000D03*
X193156732Y-134583231D03*
X193156732Y-142203231D03*
X193156732Y-139663231D03*
X193156732Y-137123231D03*
X193156732Y-124423231D03*
X193156732Y-132043231D03*
X193156732Y-126963231D03*
X193156732Y-129503231D03*
X193156732Y-114263231D03*
X193156732Y-121883231D03*
X193156732Y-116803231D03*
X193156732Y-119343231D03*
X193156732Y-111723231D03*
X193156732Y-109183231D03*
X193156732Y-99023231D03*
X193156732Y-91403231D03*
X193156732Y-106643231D03*
X193156732Y-96483231D03*
X193156732Y-93943231D03*
X193156732Y-86323231D03*
X193156732Y-83783231D03*
X193156732Y-88863231D03*
X193156732Y-104103231D03*
X193156732Y-101563231D03*
X193156732Y-68543231D03*
X193156732Y-60923231D03*
X193170000Y-58290000D03*
X193156732Y-73623231D03*
X193156732Y-63463231D03*
X193156732Y-78703231D03*
X193156732Y-71083231D03*
X193156732Y-81243231D03*
X193156732Y-76163231D03*
X193156732Y-66003231D03*
X190600000Y-144680000D03*
X190602258Y-134583231D03*
X190602258Y-142203231D03*
X190602258Y-139663231D03*
X190602258Y-137123231D03*
X190602258Y-124423231D03*
X190602258Y-132043231D03*
X190602258Y-126963231D03*
X190602258Y-129503231D03*
X190602258Y-114263231D03*
X190602258Y-121883231D03*
X190602258Y-116803231D03*
X190602258Y-119343231D03*
X190602258Y-111723231D03*
X190602258Y-109183231D03*
X190602258Y-99023231D03*
X190602258Y-91403231D03*
X190602258Y-106643231D03*
X190602258Y-96483231D03*
X190602258Y-93943231D03*
X190602258Y-86323231D03*
X190602258Y-83783231D03*
X190602258Y-88863231D03*
X190602258Y-104103231D03*
X190602258Y-101563231D03*
X190602258Y-68543231D03*
X190602258Y-60923231D03*
X190615526Y-58290000D03*
X190602258Y-73623231D03*
X190602258Y-63463231D03*
X190602258Y-78703231D03*
X190602258Y-71083231D03*
X190602258Y-81243231D03*
X190602258Y-76163231D03*
X190602258Y-66003231D03*
X188045527Y-144680000D03*
X188047785Y-134583231D03*
X188047785Y-142203231D03*
X188047785Y-139663231D03*
X188047785Y-137123231D03*
X188047785Y-124423231D03*
X188047785Y-132043231D03*
X188047785Y-126963231D03*
X188047785Y-129503231D03*
X188047785Y-114263231D03*
X188047785Y-121883231D03*
X188047785Y-116803231D03*
X188047785Y-119343231D03*
X188047785Y-111723231D03*
X188047785Y-109183231D03*
X188047785Y-99023231D03*
X188047785Y-91403231D03*
X188047785Y-106643231D03*
X188047785Y-96483231D03*
X188047785Y-93943231D03*
X188047785Y-86323231D03*
X188047785Y-83783231D03*
X188047785Y-88863231D03*
X188047785Y-104103231D03*
X188047785Y-101563231D03*
X188047785Y-68543231D03*
X188047785Y-60923231D03*
X188061053Y-58290000D03*
X188047785Y-73623231D03*
X188047785Y-63463231D03*
X188047785Y-78703231D03*
X188047785Y-71083231D03*
X188047785Y-81243231D03*
X188047785Y-76163231D03*
X188047785Y-66003231D03*
X185491053Y-144680000D03*
X185493311Y-134583231D03*
X185493311Y-142203231D03*
X185493311Y-139663231D03*
X185493311Y-137123231D03*
X185493311Y-124423231D03*
X185493311Y-132043231D03*
X185493311Y-126963231D03*
X185493311Y-129503231D03*
X185493311Y-114263231D03*
X185493311Y-121883231D03*
X185493311Y-116803231D03*
X185493311Y-119343231D03*
X185493311Y-111723231D03*
X185493311Y-109183231D03*
X185493311Y-99023231D03*
X185493311Y-91403231D03*
X185493311Y-106643231D03*
X185493311Y-96483231D03*
X185493311Y-93943231D03*
X185493311Y-86323231D03*
X185493311Y-83783231D03*
X185493311Y-88863231D03*
X185493311Y-104103231D03*
X185493311Y-101563231D03*
X185493311Y-68543231D03*
X185493311Y-60923231D03*
X185506579Y-58290000D03*
X185493311Y-73623231D03*
X185493311Y-63463231D03*
X185493311Y-78703231D03*
X185493311Y-71083231D03*
X185493311Y-81243231D03*
X185493311Y-76163231D03*
X185493311Y-66003231D03*
X183027742Y-144686769D03*
X183030000Y-134590000D03*
X183030000Y-142210000D03*
X183030000Y-139670000D03*
X183030000Y-137130000D03*
X183030000Y-124430000D03*
X183030000Y-132050000D03*
X183030000Y-126970000D03*
X183030000Y-129510000D03*
X183030000Y-114270000D03*
X183030000Y-121890000D03*
X183030000Y-116810000D03*
X183030000Y-119350000D03*
X183030000Y-111730000D03*
X183030000Y-109190000D03*
X183030000Y-99030000D03*
X183030000Y-91410000D03*
X183030000Y-106650000D03*
X183030000Y-96490000D03*
X183030000Y-93950000D03*
X183030000Y-86330000D03*
X183030000Y-83790000D03*
X183030000Y-88870000D03*
X183030000Y-104110000D03*
X183030000Y-101570000D03*
X183030000Y-68550000D03*
X183030000Y-60930000D03*
X183043268Y-58296769D03*
X183030000Y-73630000D03*
X183030000Y-63470000D03*
X183030000Y-78710000D03*
X183030000Y-71090000D03*
X183030000Y-81250000D03*
X183030000Y-76170000D03*
X183030000Y-66010000D03*
X180487742Y-144686769D03*
X180490000Y-134590000D03*
X180490000Y-142210000D03*
X180490000Y-139670000D03*
X180490000Y-137130000D03*
X180490000Y-124430000D03*
X180490000Y-132050000D03*
X180490000Y-126970000D03*
X180490000Y-129510000D03*
X180490000Y-114270000D03*
X180490000Y-121890000D03*
X180490000Y-116810000D03*
X180490000Y-119350000D03*
X180490000Y-111730000D03*
X180490000Y-109190000D03*
X180490000Y-99030000D03*
X180490000Y-91410000D03*
X180490000Y-106650000D03*
X180490000Y-96490000D03*
X180490000Y-93950000D03*
X180490000Y-86330000D03*
X180490000Y-83790000D03*
X180490000Y-88870000D03*
X180490000Y-104110000D03*
X180490000Y-101570000D03*
X180490000Y-68550000D03*
X180490000Y-60930000D03*
X180503268Y-58296769D03*
X180490000Y-73630000D03*
X180490000Y-63470000D03*
X180490000Y-78710000D03*
X180490000Y-71090000D03*
X180490000Y-81250000D03*
X180490000Y-76170000D03*
X180490000Y-66010000D03*
X177947742Y-144686769D03*
X177950000Y-134590000D03*
X177950000Y-142210000D03*
X177950000Y-139670000D03*
X177950000Y-137130000D03*
X177950000Y-124430000D03*
X177950000Y-132050000D03*
X177950000Y-126970000D03*
X177950000Y-129510000D03*
X177950000Y-114270000D03*
X177950000Y-121890000D03*
X177950000Y-116810000D03*
X177950000Y-119350000D03*
X177950000Y-111730000D03*
X177950000Y-109190000D03*
X177950000Y-99030000D03*
X177950000Y-91410000D03*
X177950000Y-106650000D03*
X177950000Y-96490000D03*
X177950000Y-93950000D03*
X177950000Y-86330000D03*
X177950000Y-83790000D03*
X177950000Y-88870000D03*
X177950000Y-104110000D03*
X177950000Y-101570000D03*
X177950000Y-68550000D03*
X177950000Y-60930000D03*
X177963268Y-58296769D03*
X177950000Y-73630000D03*
X177950000Y-63470000D03*
X177950000Y-78710000D03*
X177950000Y-71090000D03*
X177950000Y-81250000D03*
X177950000Y-76170000D03*
X177950000Y-66010000D03*
X175407742Y-144686769D03*
X175410000Y-134590000D03*
X175410000Y-142210000D03*
X175410000Y-139670000D03*
X175410000Y-137130000D03*
X175410000Y-124430000D03*
X175410000Y-132050000D03*
X175410000Y-126970000D03*
X175410000Y-129510000D03*
X175410000Y-114270000D03*
X175410000Y-121890000D03*
X175410000Y-116810000D03*
X175410000Y-119350000D03*
X175410000Y-111730000D03*
X175410000Y-109190000D03*
X175410000Y-99030000D03*
X175410000Y-91410000D03*
X175410000Y-106650000D03*
X175410000Y-96490000D03*
X175410000Y-93950000D03*
X175410000Y-86330000D03*
X175410000Y-83790000D03*
X175410000Y-88870000D03*
X175410000Y-104110000D03*
X175410000Y-101570000D03*
X175410000Y-68550000D03*
X175410000Y-60930000D03*
X175423268Y-58296769D03*
X175410000Y-73630000D03*
X175410000Y-63470000D03*
X175410000Y-78710000D03*
X175410000Y-71090000D03*
X175410000Y-81250000D03*
X175410000Y-76170000D03*
X175410000Y-66010000D03*
X172867742Y-144686769D03*
X172870000Y-134590000D03*
X172870000Y-142210000D03*
X172870000Y-139670000D03*
X172870000Y-137130000D03*
X172870000Y-124430000D03*
X172870000Y-132050000D03*
X172870000Y-126970000D03*
X172870000Y-129510000D03*
X172870000Y-114270000D03*
X172870000Y-121890000D03*
X172870000Y-116810000D03*
X172870000Y-119350000D03*
X172870000Y-111730000D03*
X172870000Y-109190000D03*
X172870000Y-99030000D03*
X172870000Y-91410000D03*
X172870000Y-106650000D03*
X172870000Y-96490000D03*
X172870000Y-93950000D03*
X172870000Y-86330000D03*
X172870000Y-83790000D03*
X172870000Y-88870000D03*
X172870000Y-104110000D03*
X172870000Y-101570000D03*
X172870000Y-68550000D03*
X172870000Y-60930000D03*
X172883268Y-58296769D03*
X172870000Y-73630000D03*
X172870000Y-63470000D03*
X172870000Y-78710000D03*
X172870000Y-71090000D03*
X172870000Y-81250000D03*
X172870000Y-76170000D03*
X172870000Y-66010000D03*
X170327742Y-144686769D03*
X170330000Y-134590000D03*
X170330000Y-142210000D03*
X170330000Y-139670000D03*
X170330000Y-137130000D03*
X170330000Y-124430000D03*
X170330000Y-132050000D03*
X170330000Y-126970000D03*
X170330000Y-129510000D03*
X170330000Y-114270000D03*
X170330000Y-121890000D03*
X170330000Y-116810000D03*
X170330000Y-119350000D03*
X170330000Y-111730000D03*
X170330000Y-109190000D03*
X170330000Y-99030000D03*
X170330000Y-91410000D03*
X170330000Y-106650000D03*
X170330000Y-96490000D03*
X170330000Y-93950000D03*
X170330000Y-86330000D03*
X170330000Y-83790000D03*
X170330000Y-88870000D03*
X170330000Y-104110000D03*
X170330000Y-101570000D03*
X170330000Y-68550000D03*
X170330000Y-60930000D03*
X170343268Y-58296769D03*
X170330000Y-73630000D03*
X170330000Y-63470000D03*
X170330000Y-78710000D03*
X170330000Y-71090000D03*
X170330000Y-81250000D03*
X170330000Y-76170000D03*
X170330000Y-66010000D03*
X167787742Y-144686769D03*
X167790000Y-134590000D03*
X167790000Y-142210000D03*
X167790000Y-139670000D03*
X167790000Y-137130000D03*
X167790000Y-124430000D03*
X167790000Y-132050000D03*
X167790000Y-126970000D03*
X167790000Y-129510000D03*
X167790000Y-114270000D03*
X167790000Y-121890000D03*
X167790000Y-116810000D03*
X167790000Y-119350000D03*
X167790000Y-111730000D03*
X167790000Y-109190000D03*
X167790000Y-99030000D03*
X167790000Y-91410000D03*
X167790000Y-106650000D03*
X167790000Y-96490000D03*
X167790000Y-93950000D03*
X167790000Y-86330000D03*
X167790000Y-83790000D03*
X167790000Y-88870000D03*
X167790000Y-104110000D03*
X167790000Y-101570000D03*
X167790000Y-68550000D03*
X167790000Y-60930000D03*
X167803268Y-58296769D03*
X167790000Y-73630000D03*
X167790000Y-63470000D03*
X167790000Y-78710000D03*
X167790000Y-71090000D03*
X167790000Y-81250000D03*
X167790000Y-76170000D03*
X167790000Y-66010000D03*
X165247742Y-144686769D03*
X165250000Y-134590000D03*
X165250000Y-142210000D03*
X165250000Y-139670000D03*
X165250000Y-137130000D03*
X165250000Y-124430000D03*
X165250000Y-132050000D03*
X165250000Y-126970000D03*
X165250000Y-129510000D03*
X165250000Y-114270000D03*
X165250000Y-121890000D03*
X165250000Y-116810000D03*
X165250000Y-119350000D03*
X165250000Y-111730000D03*
X165250000Y-109190000D03*
X165250000Y-99030000D03*
X165250000Y-91410000D03*
X165250000Y-106650000D03*
X165250000Y-96490000D03*
X165250000Y-93950000D03*
X165250000Y-86330000D03*
X165250000Y-83790000D03*
X165250000Y-88870000D03*
X165250000Y-104110000D03*
X165250000Y-101570000D03*
X165250000Y-68550000D03*
X165250000Y-60930000D03*
X165263268Y-58296769D03*
X165250000Y-73630000D03*
X165250000Y-63470000D03*
X165250000Y-78710000D03*
X165250000Y-71090000D03*
X165250000Y-81250000D03*
X165250000Y-76170000D03*
X165250000Y-66010000D03*
X162707742Y-144686769D03*
X162710000Y-134590000D03*
X162710000Y-142210000D03*
X162710000Y-139670000D03*
X162710000Y-137130000D03*
X162710000Y-124430000D03*
X162710000Y-132050000D03*
X162710000Y-126970000D03*
X162710000Y-129510000D03*
X162710000Y-114270000D03*
X162710000Y-121890000D03*
X162710000Y-116810000D03*
X162710000Y-119350000D03*
X162710000Y-111730000D03*
X162710000Y-109190000D03*
X162710000Y-99030000D03*
X162710000Y-91410000D03*
X162710000Y-106650000D03*
X162710000Y-96490000D03*
X162710000Y-93950000D03*
X162710000Y-86330000D03*
X162710000Y-83790000D03*
X162710000Y-88870000D03*
X162710000Y-104110000D03*
X162710000Y-101570000D03*
X162710000Y-68550000D03*
X162710000Y-60930000D03*
X162723268Y-58296769D03*
X162710000Y-73630000D03*
X162710000Y-63470000D03*
X162710000Y-78710000D03*
X162710000Y-71090000D03*
X162710000Y-81250000D03*
X162710000Y-76170000D03*
X162710000Y-66010000D03*
X160167742Y-144686769D03*
X160170000Y-134590000D03*
X160170000Y-142210000D03*
X160170000Y-139670000D03*
X160170000Y-137130000D03*
X160170000Y-124430000D03*
X160170000Y-132050000D03*
X160170000Y-126970000D03*
X160170000Y-129510000D03*
X160170000Y-114270000D03*
X160170000Y-121890000D03*
X160170000Y-116810000D03*
X160170000Y-119350000D03*
X160170000Y-111730000D03*
X160170000Y-109190000D03*
X160170000Y-99030000D03*
X160170000Y-91410000D03*
X160170000Y-106650000D03*
X160170000Y-96490000D03*
X160170000Y-93950000D03*
X160170000Y-86330000D03*
X160170000Y-83790000D03*
X160170000Y-88870000D03*
X160170000Y-104110000D03*
X160170000Y-101570000D03*
X160170000Y-68550000D03*
X160170000Y-60930000D03*
X160183268Y-58296769D03*
X160170000Y-73630000D03*
X160170000Y-63470000D03*
X160170000Y-78710000D03*
X160170000Y-71090000D03*
X160170000Y-81250000D03*
X160170000Y-76170000D03*
X160170000Y-66010000D03*
X157627742Y-144686769D03*
X157630000Y-134590000D03*
X157630000Y-142210000D03*
X157630000Y-139670000D03*
X157630000Y-137130000D03*
X157630000Y-124430000D03*
X157630000Y-132050000D03*
X157630000Y-126970000D03*
X157630000Y-129510000D03*
X157630000Y-114270000D03*
X157630000Y-121890000D03*
X157630000Y-116810000D03*
X157630000Y-119350000D03*
X157630000Y-111730000D03*
X157630000Y-109190000D03*
X157630000Y-99030000D03*
X157630000Y-91410000D03*
X157630000Y-106650000D03*
X157630000Y-96490000D03*
X157630000Y-93950000D03*
X157630000Y-86330000D03*
X157630000Y-83790000D03*
X157630000Y-88870000D03*
X157630000Y-104110000D03*
X157630000Y-101570000D03*
X157630000Y-68550000D03*
X157630000Y-60930000D03*
X157643268Y-58296769D03*
X157630000Y-73630000D03*
X157630000Y-63470000D03*
X157630000Y-78710000D03*
X157630000Y-71090000D03*
X157630000Y-81250000D03*
X157630000Y-76170000D03*
X157630000Y-66010000D03*
X155007669Y-144680000D03*
X155009927Y-134583231D03*
X155009927Y-142203231D03*
X155009927Y-139663231D03*
X155009927Y-137123231D03*
X155009927Y-124423231D03*
X155009927Y-132043231D03*
X155009927Y-126963231D03*
X155009927Y-129503231D03*
X155009927Y-114263231D03*
X155009927Y-121883231D03*
X155009927Y-116803231D03*
X155009927Y-119343231D03*
X155009927Y-111723231D03*
X155009927Y-109183231D03*
X155009927Y-99023231D03*
X155009927Y-91403231D03*
X155009927Y-106643231D03*
X155009927Y-96483231D03*
X155009927Y-93943231D03*
X155009927Y-86323231D03*
X155009927Y-83783231D03*
X155009927Y-88863231D03*
X155009927Y-104103231D03*
X155009927Y-101563231D03*
X155009927Y-68543231D03*
X155009927Y-60923231D03*
X155023195Y-58290000D03*
X155009927Y-73623231D03*
X155009927Y-63463231D03*
X155009927Y-78703231D03*
X155009927Y-71083231D03*
X155009927Y-81243231D03*
X155009927Y-76163231D03*
X155009927Y-66003231D03*
X152547742Y-144686769D03*
X152550000Y-134590000D03*
X152550000Y-142210000D03*
X152550000Y-139670000D03*
X152550000Y-137130000D03*
X152550000Y-124430000D03*
X152550000Y-132050000D03*
X152550000Y-126970000D03*
X152550000Y-129510000D03*
X152550000Y-114270000D03*
X152550000Y-121890000D03*
X152550000Y-116810000D03*
X152550000Y-119350000D03*
X152550000Y-111730000D03*
X152550000Y-109190000D03*
X152550000Y-99030000D03*
X152550000Y-91410000D03*
X152550000Y-106650000D03*
X152550000Y-96490000D03*
X152550000Y-93950000D03*
X152550000Y-86330000D03*
X152550000Y-83790000D03*
X152550000Y-88870000D03*
X152550000Y-104110000D03*
X152550000Y-101570000D03*
X152550000Y-68550000D03*
X152550000Y-60930000D03*
X152563268Y-58296769D03*
X152550000Y-73630000D03*
X152550000Y-63470000D03*
X152550000Y-78710000D03*
X152550000Y-71090000D03*
X152550000Y-81250000D03*
X152550000Y-76170000D03*
X152550000Y-66010000D03*
X150007742Y-144686769D03*
X150010000Y-134590000D03*
X150010000Y-142210000D03*
X150010000Y-139670000D03*
X150010000Y-137130000D03*
X150010000Y-124430000D03*
X150010000Y-132050000D03*
X150010000Y-126970000D03*
X150010000Y-129510000D03*
X150010000Y-114270000D03*
X150010000Y-121890000D03*
X150010000Y-116810000D03*
X150010000Y-119350000D03*
X150010000Y-111730000D03*
X150010000Y-109190000D03*
X150010000Y-99030000D03*
X150010000Y-91410000D03*
X150010000Y-106650000D03*
X150010000Y-96490000D03*
X150010000Y-93950000D03*
X150010000Y-86330000D03*
X150010000Y-83790000D03*
X150010000Y-88870000D03*
X150010000Y-104110000D03*
X150010000Y-101570000D03*
X150010000Y-68550000D03*
X150010000Y-60930000D03*
X150023268Y-58296769D03*
X150010000Y-73630000D03*
X150010000Y-63470000D03*
X150010000Y-78710000D03*
X150010000Y-71090000D03*
X150010000Y-81250000D03*
X150010000Y-76170000D03*
X150010000Y-66010000D03*
X147467742Y-144686769D03*
X147470000Y-134590000D03*
X147470000Y-142210000D03*
X147470000Y-139670000D03*
X147470000Y-137130000D03*
X147470000Y-124430000D03*
X147470000Y-132050000D03*
X147470000Y-126970000D03*
X147470000Y-129510000D03*
X147470000Y-114270000D03*
X147470000Y-121890000D03*
X147470000Y-116810000D03*
X147470000Y-119350000D03*
X147470000Y-111730000D03*
X147470000Y-109190000D03*
X147470000Y-99030000D03*
X147470000Y-91410000D03*
X147470000Y-106650000D03*
X147470000Y-96490000D03*
X147470000Y-93950000D03*
X147470000Y-86330000D03*
X147470000Y-83790000D03*
X147470000Y-88870000D03*
X147470000Y-104110000D03*
X147470000Y-101570000D03*
X147470000Y-68550000D03*
X147470000Y-60930000D03*
X147483268Y-58296769D03*
X147470000Y-73630000D03*
X147470000Y-63470000D03*
X147470000Y-78710000D03*
X147470000Y-71090000D03*
X147470000Y-81250000D03*
X147470000Y-76170000D03*
X147470000Y-66010000D03*
X144927742Y-144686769D03*
X144930000Y-134590000D03*
X144930000Y-142210000D03*
X144930000Y-139670000D03*
X144930000Y-137130000D03*
X144930000Y-124430000D03*
X144930000Y-132050000D03*
X144930000Y-126970000D03*
X144930000Y-129510000D03*
X144930000Y-114270000D03*
X144930000Y-121890000D03*
X144930000Y-116810000D03*
X144930000Y-119350000D03*
X144930000Y-111730000D03*
X144930000Y-109190000D03*
X144930000Y-99030000D03*
X144930000Y-91410000D03*
X144930000Y-106650000D03*
X144930000Y-96490000D03*
X144930000Y-93950000D03*
X144930000Y-86330000D03*
X144930000Y-83790000D03*
X144930000Y-88870000D03*
X144930000Y-104110000D03*
X144930000Y-101570000D03*
X144930000Y-68550000D03*
X144930000Y-60930000D03*
X144943268Y-58296769D03*
X144930000Y-73630000D03*
X144930000Y-63470000D03*
X144930000Y-78710000D03*
X144930000Y-71090000D03*
X144930000Y-81250000D03*
X144930000Y-76170000D03*
X144930000Y-66010000D03*
X142387742Y-144686769D03*
X142390000Y-134590000D03*
X142390000Y-142210000D03*
X142390000Y-139670000D03*
X142390000Y-137130000D03*
X142390000Y-124430000D03*
X142390000Y-132050000D03*
X142390000Y-126970000D03*
X142390000Y-129510000D03*
X142390000Y-114270000D03*
X142390000Y-121890000D03*
X142390000Y-116810000D03*
X142390000Y-119350000D03*
X142390000Y-111730000D03*
X142390000Y-109190000D03*
X142390000Y-99030000D03*
X142390000Y-91410000D03*
X142390000Y-106650000D03*
X142390000Y-96490000D03*
X142390000Y-93950000D03*
X142390000Y-86330000D03*
X142390000Y-83790000D03*
X142390000Y-88870000D03*
X142390000Y-104110000D03*
X142390000Y-101570000D03*
X142390000Y-68550000D03*
X142390000Y-60930000D03*
X142403268Y-58296769D03*
X142390000Y-73630000D03*
X142390000Y-63470000D03*
X142390000Y-78710000D03*
X142390000Y-71090000D03*
X142390000Y-81250000D03*
X142390000Y-76170000D03*
X142390000Y-66010000D03*
X139847742Y-144686769D03*
X139850000Y-134590000D03*
X139850000Y-142210000D03*
X139850000Y-139670000D03*
X139850000Y-137130000D03*
X139850000Y-124430000D03*
X139850000Y-132050000D03*
X139850000Y-126970000D03*
X139850000Y-129510000D03*
X139850000Y-114270000D03*
X139850000Y-121890000D03*
X139850000Y-116810000D03*
X139850000Y-119350000D03*
X139850000Y-111730000D03*
X139850000Y-109190000D03*
X139850000Y-99030000D03*
X139850000Y-91410000D03*
X139850000Y-106650000D03*
X139850000Y-96490000D03*
X139850000Y-93950000D03*
X139850000Y-86330000D03*
X139850000Y-83790000D03*
X139850000Y-88870000D03*
X139850000Y-104110000D03*
X139850000Y-101570000D03*
X139850000Y-68550000D03*
X139850000Y-60930000D03*
X139863268Y-58296769D03*
X139850000Y-73630000D03*
X139850000Y-63470000D03*
X139850000Y-78710000D03*
X139850000Y-71090000D03*
X139850000Y-81250000D03*
X139850000Y-76170000D03*
X139850000Y-66010000D03*
X137307742Y-144686769D03*
X137310000Y-134590000D03*
X137310000Y-142210000D03*
X137310000Y-139670000D03*
X137310000Y-137130000D03*
X137310000Y-124430000D03*
X137310000Y-132050000D03*
X137310000Y-126970000D03*
X137310000Y-129510000D03*
X137310000Y-114270000D03*
X137310000Y-121890000D03*
X137310000Y-116810000D03*
X137310000Y-119350000D03*
X137310000Y-111730000D03*
X137310000Y-109190000D03*
X137310000Y-99030000D03*
X137310000Y-91410000D03*
X137310000Y-106650000D03*
X137310000Y-96490000D03*
X137310000Y-93950000D03*
X137310000Y-86330000D03*
X137310000Y-83790000D03*
X137310000Y-88870000D03*
X137310000Y-104110000D03*
X137310000Y-101570000D03*
X137310000Y-68550000D03*
X137310000Y-60930000D03*
X137323268Y-58296769D03*
X137310000Y-73630000D03*
X137310000Y-63470000D03*
X137310000Y-78710000D03*
X137310000Y-71090000D03*
X137310000Y-81250000D03*
X137310000Y-76170000D03*
X137310000Y-66010000D03*
X134767742Y-144686769D03*
X134770000Y-134590000D03*
X134770000Y-142210000D03*
X134770000Y-139670000D03*
X134770000Y-137130000D03*
X134770000Y-124430000D03*
X134770000Y-132050000D03*
X134770000Y-126970000D03*
X134770000Y-129510000D03*
X134770000Y-114270000D03*
X134770000Y-121890000D03*
X134770000Y-116810000D03*
X134770000Y-119350000D03*
X134770000Y-111730000D03*
X134770000Y-109190000D03*
X134770000Y-99030000D03*
X134770000Y-91410000D03*
X134770000Y-106650000D03*
X134770000Y-96490000D03*
X134770000Y-93950000D03*
X134770000Y-86330000D03*
X134770000Y-83790000D03*
X134770000Y-88870000D03*
X134770000Y-104110000D03*
X134770000Y-101570000D03*
X134770000Y-68550000D03*
X134770000Y-60930000D03*
X134783268Y-58296769D03*
X134770000Y-73630000D03*
X134770000Y-63470000D03*
X134770000Y-78710000D03*
X134770000Y-71090000D03*
X134770000Y-81250000D03*
X134770000Y-76170000D03*
X134770000Y-66010000D03*
X132227742Y-144686769D03*
X132230000Y-134590000D03*
X132230000Y-142210000D03*
X132230000Y-139670000D03*
X132230000Y-137130000D03*
X132230000Y-124430000D03*
X132230000Y-132050000D03*
X132230000Y-126970000D03*
X132230000Y-129510000D03*
X132230000Y-114270000D03*
X132230000Y-121890000D03*
X132230000Y-116810000D03*
X132230000Y-119350000D03*
X132230000Y-111730000D03*
X132230000Y-109190000D03*
X132230000Y-99030000D03*
X132230000Y-91410000D03*
X132230000Y-106650000D03*
X132230000Y-96490000D03*
X132230000Y-93950000D03*
X132230000Y-86330000D03*
X132230000Y-83790000D03*
X132230000Y-88870000D03*
X132230000Y-104110000D03*
X132230000Y-101570000D03*
X132230000Y-68550000D03*
X132230000Y-60930000D03*
X132243268Y-58296769D03*
X132230000Y-73630000D03*
X132230000Y-63470000D03*
X132230000Y-78710000D03*
X132230000Y-71090000D03*
X132230000Y-81250000D03*
X132230000Y-76170000D03*
X132230000Y-66010000D03*
X129687742Y-144686769D03*
X129690000Y-134590000D03*
X129690000Y-142210000D03*
X129690000Y-139670000D03*
X129690000Y-137130000D03*
X129690000Y-124430000D03*
X129690000Y-132050000D03*
X129690000Y-126970000D03*
X129690000Y-129510000D03*
X129690000Y-114270000D03*
X129690000Y-121890000D03*
X129690000Y-116810000D03*
X129690000Y-119350000D03*
X129690000Y-111730000D03*
X129690000Y-109190000D03*
X129690000Y-99030000D03*
X129690000Y-91410000D03*
X129690000Y-106650000D03*
X129690000Y-96490000D03*
X129690000Y-93950000D03*
X129690000Y-86330000D03*
X129690000Y-83790000D03*
X129690000Y-88870000D03*
X129690000Y-104110000D03*
X129690000Y-101570000D03*
X129690000Y-68550000D03*
X129690000Y-60930000D03*
X129703268Y-58296769D03*
X129690000Y-73630000D03*
X129690000Y-63470000D03*
X129690000Y-78710000D03*
X129690000Y-71090000D03*
X129690000Y-81250000D03*
X129690000Y-76170000D03*
X129690000Y-66010000D03*
X127147742Y-144686769D03*
X127150000Y-134590000D03*
X127150000Y-142210000D03*
X127150000Y-139670000D03*
X127150000Y-137130000D03*
X127150000Y-124430000D03*
X127150000Y-132050000D03*
X127150000Y-126970000D03*
X127150000Y-129510000D03*
X127150000Y-114270000D03*
X127150000Y-121890000D03*
X127150000Y-116810000D03*
X127150000Y-119350000D03*
X127150000Y-111730000D03*
X127150000Y-109190000D03*
X127150000Y-99030000D03*
X127150000Y-91410000D03*
X127150000Y-106650000D03*
X127150000Y-96490000D03*
X127150000Y-93950000D03*
X127150000Y-86330000D03*
X127150000Y-83790000D03*
X127150000Y-88870000D03*
X127150000Y-104110000D03*
X127150000Y-101570000D03*
X127150000Y-68550000D03*
X127150000Y-60930000D03*
X127163268Y-58296769D03*
X127150000Y-73630000D03*
X127150000Y-63470000D03*
X127150000Y-78710000D03*
X127150000Y-71090000D03*
X127150000Y-81250000D03*
X127150000Y-76170000D03*
X127150000Y-66010000D03*
X124607742Y-144686769D03*
X124610000Y-134590000D03*
X124610000Y-142210000D03*
X124610000Y-139670000D03*
X124610000Y-137130000D03*
X124610000Y-124430000D03*
X124610000Y-132050000D03*
X124610000Y-126970000D03*
X124610000Y-129510000D03*
X124610000Y-114270000D03*
X124610000Y-121890000D03*
X124610000Y-116810000D03*
X124610000Y-119350000D03*
X124610000Y-111730000D03*
X124610000Y-109190000D03*
X124610000Y-99030000D03*
X124610000Y-91410000D03*
X124610000Y-106650000D03*
X124610000Y-96490000D03*
X124610000Y-93950000D03*
X124610000Y-86330000D03*
X124610000Y-83790000D03*
X124610000Y-88870000D03*
X124610000Y-104110000D03*
X124610000Y-101570000D03*
X124610000Y-68550000D03*
X124610000Y-60930000D03*
X124623268Y-58296769D03*
X124610000Y-73630000D03*
X124610000Y-63470000D03*
X124610000Y-78710000D03*
X124610000Y-71090000D03*
X124610000Y-81250000D03*
X124610000Y-76170000D03*
X124610000Y-66010000D03*
X122067742Y-144686769D03*
X122070000Y-134590000D03*
X122070000Y-142210000D03*
X122070000Y-139670000D03*
X122070000Y-137130000D03*
X122070000Y-124430000D03*
X122070000Y-132050000D03*
X122070000Y-126970000D03*
X122070000Y-129510000D03*
X122070000Y-114270000D03*
X122070000Y-121890000D03*
X122070000Y-116810000D03*
X122070000Y-119350000D03*
X122070000Y-111730000D03*
X122070000Y-109190000D03*
X122070000Y-99030000D03*
X122070000Y-91410000D03*
X122070000Y-106650000D03*
X122070000Y-96490000D03*
X122070000Y-93950000D03*
X122070000Y-86330000D03*
X122070000Y-83790000D03*
X122070000Y-88870000D03*
X122070000Y-104110000D03*
X122070000Y-101570000D03*
X122070000Y-68550000D03*
X122070000Y-60930000D03*
X122083268Y-58296769D03*
X122070000Y-73630000D03*
X122070000Y-63470000D03*
X122070000Y-78710000D03*
X122070000Y-71090000D03*
X122070000Y-81250000D03*
X122070000Y-76170000D03*
X122070000Y-66010000D03*
X119527742Y-144686769D03*
X119530000Y-134590000D03*
X119530000Y-142210000D03*
X119530000Y-139670000D03*
X119530000Y-137130000D03*
X119530000Y-124430000D03*
X119530000Y-132050000D03*
X119530000Y-126970000D03*
X119530000Y-129510000D03*
X119530000Y-114270000D03*
X119530000Y-121890000D03*
X119530000Y-116810000D03*
X119530000Y-119350000D03*
X119530000Y-111730000D03*
X119530000Y-109190000D03*
X119530000Y-99030000D03*
X119530000Y-91410000D03*
X119530000Y-106650000D03*
X119530000Y-96490000D03*
X119530000Y-93950000D03*
X119530000Y-86330000D03*
X119530000Y-83790000D03*
X119530000Y-88870000D03*
X119530000Y-104110000D03*
X119530000Y-101570000D03*
X119530000Y-68550000D03*
X119530000Y-60930000D03*
X119543268Y-58296769D03*
X119530000Y-73630000D03*
X119530000Y-63470000D03*
X119530000Y-78710000D03*
X119530000Y-71090000D03*
X119530000Y-81250000D03*
X119530000Y-76170000D03*
X119530000Y-66010000D03*
X116987742Y-144686769D03*
X116990000Y-134590000D03*
X116990000Y-142210000D03*
X116990000Y-139670000D03*
X116990000Y-137130000D03*
X116990000Y-124430000D03*
X116990000Y-132050000D03*
X116990000Y-126970000D03*
X116990000Y-129510000D03*
X116990000Y-114270000D03*
X116990000Y-121890000D03*
X116990000Y-116810000D03*
X116990000Y-119350000D03*
X116990000Y-111730000D03*
X116990000Y-109190000D03*
X116990000Y-99030000D03*
X116990000Y-91410000D03*
X116990000Y-106650000D03*
X116990000Y-96490000D03*
X116990000Y-93950000D03*
X116990000Y-86330000D03*
X116990000Y-83790000D03*
X116990000Y-88870000D03*
X116990000Y-104110000D03*
X116990000Y-101570000D03*
X116990000Y-68550000D03*
X116990000Y-60930000D03*
X117003268Y-58296769D03*
X116990000Y-73630000D03*
X116990000Y-63470000D03*
X116990000Y-78710000D03*
X116990000Y-71090000D03*
X116990000Y-81250000D03*
X116990000Y-76170000D03*
X116990000Y-66010000D03*
X114447742Y-144686769D03*
X114450000Y-142210000D03*
X114450000Y-139670000D03*
X114450000Y-137130000D03*
X114450000Y-134590000D03*
X114450000Y-132050000D03*
X114450000Y-129510000D03*
X114450000Y-126970000D03*
X114450000Y-124430000D03*
X114450000Y-121890000D03*
X114450000Y-119350000D03*
X114450000Y-116810000D03*
X114450000Y-114270000D03*
X114450000Y-111730000D03*
X114450000Y-109190000D03*
X114450000Y-106650000D03*
X114450000Y-104110000D03*
X114450000Y-101570000D03*
X114450000Y-99030000D03*
X114450000Y-96490000D03*
X114450000Y-93950000D03*
X114450000Y-91410000D03*
X114450000Y-88870000D03*
X114450000Y-86330000D03*
X114450000Y-83790000D03*
X114450000Y-81250000D03*
X114450000Y-78710000D03*
X114450000Y-76170000D03*
X114450000Y-73630000D03*
X114450000Y-71090000D03*
X114450000Y-68550000D03*
X114450000Y-66010000D03*
X114450000Y-63470000D03*
X114450000Y-60930000D03*
X114463268Y-58296769D03*
X106815526Y-134561052D03*
X106815526Y-132021052D03*
X106815526Y-129481052D03*
X106815526Y-126941052D03*
X106815526Y-124401052D03*
X106815526Y-121861052D03*
X106815526Y-119321052D03*
X106815526Y-116781052D03*
X106815526Y-114241052D03*
X106815526Y-111701052D03*
X106830000Y-109190000D03*
X106830000Y-106650000D03*
X106830000Y-104110000D03*
X106830000Y-101570000D03*
X106830000Y-99030000D03*
X106830000Y-96490000D03*
X106830000Y-93950000D03*
X106830000Y-91410000D03*
X106830000Y-88870000D03*
X106830000Y-86330000D03*
X106830000Y-83790000D03*
X106830000Y-81250000D03*
X104290000Y-142210000D03*
X104290000Y-134590000D03*
X104290000Y-126970000D03*
X104290000Y-124430000D03*
X104290000Y-132050000D03*
X104290000Y-139670000D03*
X104265501Y-137103309D03*
X104290000Y-121890000D03*
X104265501Y-129307434D03*
X104290000Y-114270000D03*
X104290000Y-106650000D03*
X104290000Y-104110000D03*
X104290000Y-111730000D03*
X104290000Y-119350000D03*
X104265501Y-116783309D03*
X104290000Y-101570000D03*
X104265501Y-108987434D03*
X104290000Y-93950000D03*
X104290000Y-86330000D03*
X104290000Y-83790000D03*
X104290000Y-91410000D03*
X104290000Y-99030000D03*
X104265501Y-96463309D03*
X104290000Y-81250000D03*
X104265501Y-88667434D03*
X104290000Y-60930000D03*
X104290000Y-63470000D03*
X104290000Y-66010000D03*
X104265501Y-68347434D03*
X104290000Y-71090000D03*
X104290000Y-73630000D03*
X104265501Y-76143309D03*
X104290000Y-78710000D03*
X106830000Y-60930000D03*
X106830000Y-78710000D03*
X106830000Y-76170000D03*
X106830000Y-73630000D03*
X106830000Y-71090000D03*
X106830000Y-68550000D03*
X106830000Y-66010000D03*
X106830000Y-63470000D03*
D15*
X107600000Y-146300000D03*
X197600000Y-146300000D03*
X197600000Y-56300000D03*
M02*
