%TF.GenerationSoftware,KiCad,Pcbnew,(6.0.5)*%
%TF.CreationDate,2022-05-25T19:28:13+08:00*%
%TF.ProjectId,uinio,75696e69-6f2e-46b6-9963-61645f706362,rev?*%
%TF.SameCoordinates,Original*%
%TF.FileFunction,Legend,Bot*%
%TF.FilePolarity,Positive*%
%FSLAX46Y46*%
G04 Gerber Fmt 4.6, Leading zero omitted, Abs format (unit mm)*
G04 Created by KiCad (PCBNEW (6.0.5)) date 2022-05-25 19:28:13*
%MOMM*%
%LPD*%
G01*
G04 APERTURE LIST*
%ADD10C,0.150000*%
%ADD11C,0.120000*%
%ADD12R,1.800000X1.800000*%
%ADD13C,1.800000*%
%ADD14C,1.600000*%
%ADD15O,1.600000X1.600000*%
%ADD16R,3.510000X2.540000*%
G04 APERTURE END LIST*
D10*
%TO.C,BT1*%
X139308571Y-79714285D02*
X139356190Y-79857142D01*
X139403809Y-79904761D01*
X139499047Y-79952380D01*
X139641904Y-79952380D01*
X139737142Y-79904761D01*
X139784761Y-79857142D01*
X139832380Y-79761904D01*
X139832380Y-79380952D01*
X138832380Y-79380952D01*
X138832380Y-79714285D01*
X138880000Y-79809523D01*
X138927619Y-79857142D01*
X139022857Y-79904761D01*
X139118095Y-79904761D01*
X139213333Y-79857142D01*
X139260952Y-79809523D01*
X139308571Y-79714285D01*
X139308571Y-79380952D01*
X138832380Y-80238095D02*
X138832380Y-80809523D01*
X139832380Y-80523809D02*
X138832380Y-80523809D01*
X139832380Y-81666666D02*
X139832380Y-81095238D01*
X139832380Y-81380952D02*
X138832380Y-81380952D01*
X138975238Y-81285714D01*
X139070476Y-81190476D01*
X139118095Y-81095238D01*
D11*
X155110000Y-88347300D02*
X155110000Y-72652700D01*
X148900000Y-94810000D02*
X150610000Y-94810000D01*
X148900000Y-66190000D02*
X150610000Y-66190000D01*
X145100000Y-94810000D02*
X143390000Y-94810000D01*
X143390000Y-66190000D02*
X143390000Y-69808000D01*
X145100000Y-66190000D02*
X143390000Y-66190000D01*
X150610000Y-94810000D02*
X150610000Y-91192000D01*
X141090000Y-82160000D02*
X138890000Y-84360000D01*
X138890000Y-72652700D02*
X138890000Y-76640000D01*
X138890000Y-84360000D02*
X138890000Y-88347300D01*
X141090000Y-78840000D02*
X141090000Y-82160000D01*
X143390000Y-91192000D02*
X143390000Y-94810000D01*
X150610000Y-69808000D02*
X150610000Y-66190000D01*
X141090000Y-78840000D02*
X138890000Y-76640000D01*
X143390000Y-69808000D02*
G75*
G03*
X138888211Y-72654629I3610012J-10692020D01*
G01*
X155111789Y-72654629D02*
G75*
G03*
X150610000Y-69808000I-8111801J-7845391D01*
G01*
X138888211Y-88345371D02*
G75*
G03*
X143390000Y-91192000I8111775J7845350D01*
G01*
X150610000Y-91191999D02*
G75*
G03*
X155111789Y-88345371I-3610010J10692019D01*
G01*
%TD*%
%LPC*%
D12*
%TO.C,D1*%
X178500000Y-74225000D03*
D13*
X178500000Y-76765000D03*
%TD*%
D14*
%TO.C,R1*%
X184850000Y-88500000D03*
D15*
X172150000Y-88500000D03*
%TD*%
D16*
%TO.C,BT1*%
X147000000Y-95180000D03*
X147000000Y-65820000D03*
%TD*%
M02*
