%TF.GenerationSoftware,KiCad,Pcbnew,(6.0.5)*%
%TF.CreationDate,2022-05-25T19:28:13+08:00*%
%TF.ProjectId,uinio,75696e69-6f2e-46b6-9963-61645f706362,rev?*%
%TF.SameCoordinates,Original*%
%TF.FileFunction,Copper,L2,Bot*%
%TF.FilePolarity,Positive*%
%FSLAX46Y46*%
G04 Gerber Fmt 4.6, Leading zero omitted, Abs format (unit mm)*
G04 Created by KiCad (PCBNEW (6.0.5)) date 2022-05-25 19:28:13*
%MOMM*%
%LPD*%
G01*
G04 APERTURE LIST*
%TA.AperFunction,ComponentPad*%
%ADD10R,1.800000X1.800000*%
%TD*%
%TA.AperFunction,ComponentPad*%
%ADD11C,1.800000*%
%TD*%
%TA.AperFunction,ComponentPad*%
%ADD12C,1.600000*%
%TD*%
%TA.AperFunction,ComponentPad*%
%ADD13O,1.600000X1.600000*%
%TD*%
%TA.AperFunction,SMDPad,CuDef*%
%ADD14R,3.510000X2.540000*%
%TD*%
%TA.AperFunction,ViaPad*%
%ADD15C,0.800000*%
%TD*%
%TA.AperFunction,Conductor*%
%ADD16C,0.250000*%
%TD*%
G04 APERTURE END LIST*
D10*
%TO.P,D1,1,K*%
%TO.N,GND*%
X178500000Y-74225000D03*
D11*
%TO.P,D1,2,A*%
%TO.N,/LED*%
X178500000Y-76765000D03*
%TD*%
D12*
%TO.P,R1,1*%
%TO.N,/LED*%
X184850000Y-88500000D03*
D13*
%TO.P,R1,2*%
%TO.N,VCC*%
X172150000Y-88500000D03*
%TD*%
D14*
%TO.P,BT1,1,+*%
%TO.N,VCC*%
X147000000Y-95180000D03*
%TO.P,BT1,2,-*%
%TO.N,GND*%
X147000000Y-65820000D03*
%TD*%
D15*
%TO.N,GND*%
X157500000Y-65900000D03*
X170950000Y-74200000D03*
%TD*%
D16*
%TO.N,VCC*%
X148300000Y-95200000D02*
X165800000Y-95200000D01*
X147000000Y-95180000D02*
X148280000Y-95180000D01*
X172150000Y-88850000D02*
X172150000Y-88500000D01*
X148280000Y-95180000D02*
X148300000Y-95200000D01*
X165800000Y-95200000D02*
X172150000Y-88850000D01*
%TO.N,GND*%
X157420000Y-65820000D02*
X147000000Y-65820000D01*
X170975000Y-74225000D02*
X170950000Y-74200000D01*
X178500000Y-74225000D02*
X170975000Y-74225000D01*
X157500000Y-65900000D02*
X157420000Y-65820000D01*
%TO.N,/LED*%
X184850000Y-88500000D02*
X184850000Y-83115000D01*
X184850000Y-83115000D02*
X178500000Y-76765000D01*
%TD*%
%TA.AperFunction,Conductor*%
%TO.N,GND*%
G36*
X194433621Y-61028502D02*
G01*
X194480114Y-61082158D01*
X194491500Y-61134500D01*
X194491500Y-98865500D01*
X194471498Y-98933621D01*
X194417842Y-98980114D01*
X194365500Y-98991500D01*
X131634500Y-98991500D01*
X131566379Y-98971498D01*
X131519886Y-98917842D01*
X131508500Y-98865500D01*
X131508500Y-96498134D01*
X144736500Y-96498134D01*
X144743255Y-96560316D01*
X144794385Y-96696705D01*
X144881739Y-96813261D01*
X144998295Y-96900615D01*
X145134684Y-96951745D01*
X145196866Y-96958500D01*
X148803134Y-96958500D01*
X148865316Y-96951745D01*
X149001705Y-96900615D01*
X149118261Y-96813261D01*
X149205615Y-96696705D01*
X149256745Y-96560316D01*
X149263500Y-96498134D01*
X149263500Y-95959500D01*
X149283502Y-95891379D01*
X149337158Y-95844886D01*
X149389500Y-95833500D01*
X165721233Y-95833500D01*
X165732416Y-95834027D01*
X165739909Y-95835702D01*
X165747835Y-95835453D01*
X165747836Y-95835453D01*
X165807986Y-95833562D01*
X165811945Y-95833500D01*
X165839856Y-95833500D01*
X165843791Y-95833003D01*
X165843856Y-95832995D01*
X165855693Y-95832062D01*
X165887951Y-95831048D01*
X165891970Y-95830922D01*
X165899889Y-95830673D01*
X165919343Y-95825021D01*
X165938700Y-95821013D01*
X165950930Y-95819468D01*
X165950931Y-95819468D01*
X165958797Y-95818474D01*
X165966168Y-95815555D01*
X165966170Y-95815555D01*
X165999912Y-95802196D01*
X166011142Y-95798351D01*
X166045983Y-95788229D01*
X166045984Y-95788229D01*
X166053593Y-95786018D01*
X166060412Y-95781985D01*
X166060417Y-95781983D01*
X166071028Y-95775707D01*
X166088776Y-95767012D01*
X166107617Y-95759552D01*
X166143387Y-95733564D01*
X166153307Y-95727048D01*
X166184535Y-95708580D01*
X166184538Y-95708578D01*
X166191362Y-95704542D01*
X166205683Y-95690221D01*
X166220717Y-95677380D01*
X166230694Y-95670131D01*
X166237107Y-95665472D01*
X166265298Y-95631395D01*
X166273288Y-95622616D01*
X172046298Y-89849607D01*
X172108610Y-89815581D01*
X172139018Y-89813648D01*
X172139018Y-89813019D01*
X172144525Y-89813019D01*
X172150000Y-89813498D01*
X172378087Y-89793543D01*
X172383400Y-89792119D01*
X172383402Y-89792119D01*
X172593933Y-89735707D01*
X172593935Y-89735706D01*
X172599243Y-89734284D01*
X172604225Y-89731961D01*
X172801762Y-89639849D01*
X172801767Y-89639846D01*
X172806749Y-89637523D01*
X172911611Y-89564098D01*
X172989789Y-89509357D01*
X172989792Y-89509355D01*
X172994300Y-89506198D01*
X173156198Y-89344300D01*
X173287523Y-89156749D01*
X173289846Y-89151767D01*
X173289849Y-89151762D01*
X173381961Y-88954225D01*
X173381961Y-88954224D01*
X173384284Y-88949243D01*
X173443543Y-88728087D01*
X173463498Y-88500000D01*
X173443543Y-88271913D01*
X173384284Y-88050757D01*
X173381961Y-88045775D01*
X173289849Y-87848238D01*
X173289846Y-87848233D01*
X173287523Y-87843251D01*
X173156198Y-87655700D01*
X172994300Y-87493802D01*
X172989792Y-87490645D01*
X172989789Y-87490643D01*
X172837228Y-87383819D01*
X172806749Y-87362477D01*
X172801767Y-87360154D01*
X172801762Y-87360151D01*
X172604225Y-87268039D01*
X172604224Y-87268039D01*
X172599243Y-87265716D01*
X172593935Y-87264294D01*
X172593933Y-87264293D01*
X172383402Y-87207881D01*
X172383400Y-87207881D01*
X172378087Y-87206457D01*
X172150000Y-87186502D01*
X171921913Y-87206457D01*
X171916600Y-87207881D01*
X171916598Y-87207881D01*
X171706067Y-87264293D01*
X171706065Y-87264294D01*
X171700757Y-87265716D01*
X171695776Y-87268039D01*
X171695775Y-87268039D01*
X171498238Y-87360151D01*
X171498233Y-87360154D01*
X171493251Y-87362477D01*
X171462772Y-87383819D01*
X171310211Y-87490643D01*
X171310208Y-87490645D01*
X171305700Y-87493802D01*
X171143802Y-87655700D01*
X171012477Y-87843251D01*
X171010154Y-87848233D01*
X171010151Y-87848238D01*
X170918039Y-88045775D01*
X170915716Y-88050757D01*
X170856457Y-88271913D01*
X170836502Y-88500000D01*
X170856457Y-88728087D01*
X170915716Y-88949243D01*
X170918039Y-88954225D01*
X170918041Y-88954230D01*
X170954479Y-89032373D01*
X170965140Y-89102565D01*
X170936159Y-89167377D01*
X170929379Y-89174717D01*
X165574500Y-94529595D01*
X165512188Y-94563621D01*
X165485405Y-94566500D01*
X149389500Y-94566500D01*
X149321379Y-94546498D01*
X149274886Y-94492842D01*
X149263500Y-94440500D01*
X149263500Y-93861866D01*
X149256745Y-93799684D01*
X149205615Y-93663295D01*
X149118261Y-93546739D01*
X149001705Y-93459385D01*
X148865316Y-93408255D01*
X148803134Y-93401500D01*
X145196866Y-93401500D01*
X145134684Y-93408255D01*
X144998295Y-93459385D01*
X144881739Y-93546739D01*
X144794385Y-93663295D01*
X144743255Y-93799684D01*
X144736500Y-93861866D01*
X144736500Y-96498134D01*
X131508500Y-96498134D01*
X131508500Y-76730469D01*
X177087095Y-76730469D01*
X177087392Y-76735622D01*
X177087392Y-76735625D01*
X177093067Y-76834041D01*
X177100427Y-76961697D01*
X177101564Y-76966743D01*
X177101565Y-76966749D01*
X177122252Y-77058541D01*
X177151346Y-77187642D01*
X177153288Y-77192424D01*
X177153289Y-77192428D01*
X177159193Y-77206967D01*
X177238484Y-77402237D01*
X177359501Y-77599719D01*
X177511147Y-77774784D01*
X177689349Y-77922730D01*
X177889322Y-78039584D01*
X178105694Y-78122209D01*
X178110760Y-78123240D01*
X178110761Y-78123240D01*
X178115401Y-78124184D01*
X178332656Y-78168385D01*
X178463324Y-78173176D01*
X178558949Y-78176683D01*
X178558953Y-78176683D01*
X178564113Y-78176872D01*
X178569233Y-78176216D01*
X178569235Y-78176216D01*
X178788719Y-78148099D01*
X178788720Y-78148099D01*
X178793847Y-78147442D01*
X178798798Y-78145957D01*
X178798801Y-78145956D01*
X178869985Y-78124600D01*
X178940980Y-78124184D01*
X178995287Y-78156191D01*
X184179595Y-83340500D01*
X184213621Y-83402812D01*
X184216500Y-83429595D01*
X184216500Y-87280606D01*
X184196498Y-87348727D01*
X184162771Y-87383819D01*
X184010211Y-87490643D01*
X184010208Y-87490645D01*
X184005700Y-87493802D01*
X183843802Y-87655700D01*
X183712477Y-87843251D01*
X183710154Y-87848233D01*
X183710151Y-87848238D01*
X183618039Y-88045775D01*
X183615716Y-88050757D01*
X183556457Y-88271913D01*
X183536502Y-88500000D01*
X183556457Y-88728087D01*
X183615716Y-88949243D01*
X183618039Y-88954224D01*
X183618039Y-88954225D01*
X183710151Y-89151762D01*
X183710154Y-89151767D01*
X183712477Y-89156749D01*
X183843802Y-89344300D01*
X184005700Y-89506198D01*
X184010208Y-89509355D01*
X184010211Y-89509357D01*
X184088389Y-89564098D01*
X184193251Y-89637523D01*
X184198233Y-89639846D01*
X184198238Y-89639849D01*
X184395775Y-89731961D01*
X184400757Y-89734284D01*
X184406065Y-89735706D01*
X184406067Y-89735707D01*
X184616598Y-89792119D01*
X184616600Y-89792119D01*
X184621913Y-89793543D01*
X184850000Y-89813498D01*
X185078087Y-89793543D01*
X185083400Y-89792119D01*
X185083402Y-89792119D01*
X185293933Y-89735707D01*
X185293935Y-89735706D01*
X185299243Y-89734284D01*
X185304225Y-89731961D01*
X185501762Y-89639849D01*
X185501767Y-89639846D01*
X185506749Y-89637523D01*
X185611611Y-89564098D01*
X185689789Y-89509357D01*
X185689792Y-89509355D01*
X185694300Y-89506198D01*
X185856198Y-89344300D01*
X185987523Y-89156749D01*
X185989846Y-89151767D01*
X185989849Y-89151762D01*
X186081961Y-88954225D01*
X186081961Y-88954224D01*
X186084284Y-88949243D01*
X186143543Y-88728087D01*
X186163498Y-88500000D01*
X186143543Y-88271913D01*
X186084284Y-88050757D01*
X186081961Y-88045775D01*
X185989849Y-87848238D01*
X185989846Y-87848233D01*
X185987523Y-87843251D01*
X185856198Y-87655700D01*
X185694300Y-87493802D01*
X185689792Y-87490645D01*
X185689789Y-87490643D01*
X185537229Y-87383819D01*
X185492901Y-87328362D01*
X185483500Y-87280606D01*
X185483500Y-83193767D01*
X185484027Y-83182584D01*
X185485702Y-83175091D01*
X185483562Y-83107014D01*
X185483500Y-83103055D01*
X185483500Y-83075144D01*
X185482995Y-83071144D01*
X185482062Y-83059301D01*
X185480922Y-83023029D01*
X185480673Y-83015110D01*
X185475022Y-82995658D01*
X185471014Y-82976306D01*
X185469467Y-82964063D01*
X185468474Y-82956203D01*
X185465556Y-82948832D01*
X185452200Y-82915097D01*
X185448355Y-82903870D01*
X185447721Y-82901687D01*
X185436018Y-82861407D01*
X185425707Y-82843972D01*
X185417012Y-82826224D01*
X185409552Y-82807383D01*
X185383564Y-82771613D01*
X185377048Y-82761693D01*
X185358580Y-82730465D01*
X185358578Y-82730462D01*
X185354542Y-82723638D01*
X185340221Y-82709317D01*
X185327380Y-82694283D01*
X185320131Y-82684306D01*
X185315472Y-82677893D01*
X185281395Y-82649702D01*
X185272616Y-82641712D01*
X179891299Y-77260395D01*
X179857273Y-77198083D01*
X179859836Y-77134671D01*
X179879903Y-77068624D01*
X179881408Y-77063671D01*
X179911640Y-76834041D01*
X179913327Y-76765000D01*
X179907032Y-76688434D01*
X179894773Y-76539318D01*
X179894772Y-76539312D01*
X179894349Y-76534167D01*
X179837925Y-76309533D01*
X179835866Y-76304797D01*
X179747630Y-76101868D01*
X179747628Y-76101865D01*
X179745570Y-76097131D01*
X179619764Y-75902665D01*
X179529486Y-75803450D01*
X179498434Y-75739605D01*
X179506829Y-75669106D01*
X179552005Y-75614338D01*
X179578449Y-75600669D01*
X179638054Y-75578324D01*
X179653649Y-75569786D01*
X179755724Y-75493285D01*
X179768285Y-75480724D01*
X179844786Y-75378649D01*
X179853324Y-75363054D01*
X179898478Y-75242606D01*
X179902105Y-75227351D01*
X179907631Y-75176486D01*
X179908000Y-75169672D01*
X179908000Y-74497115D01*
X179903525Y-74481876D01*
X179902135Y-74480671D01*
X179894452Y-74479000D01*
X177110116Y-74479000D01*
X177094877Y-74483475D01*
X177093672Y-74484865D01*
X177092001Y-74492548D01*
X177092001Y-75169669D01*
X177092371Y-75176490D01*
X177097895Y-75227352D01*
X177101521Y-75242604D01*
X177146676Y-75363054D01*
X177155214Y-75378649D01*
X177231715Y-75480724D01*
X177244276Y-75493285D01*
X177346351Y-75569786D01*
X177361946Y-75578324D01*
X177421540Y-75600665D01*
X177478304Y-75643307D01*
X177503004Y-75709868D01*
X177487796Y-75779217D01*
X177468404Y-75805698D01*
X177401639Y-75875564D01*
X177398725Y-75879836D01*
X177398724Y-75879837D01*
X177383152Y-75902665D01*
X177271119Y-76066899D01*
X177173602Y-76276981D01*
X177111707Y-76500169D01*
X177087095Y-76730469D01*
X131508500Y-76730469D01*
X131508500Y-73952885D01*
X177092000Y-73952885D01*
X177096475Y-73968124D01*
X177097865Y-73969329D01*
X177105548Y-73971000D01*
X178227885Y-73971000D01*
X178243124Y-73966525D01*
X178244329Y-73965135D01*
X178246000Y-73957452D01*
X178246000Y-73952885D01*
X178754000Y-73952885D01*
X178758475Y-73968124D01*
X178759865Y-73969329D01*
X178767548Y-73971000D01*
X179889884Y-73971000D01*
X179905123Y-73966525D01*
X179906328Y-73965135D01*
X179907999Y-73957452D01*
X179907999Y-73280331D01*
X179907629Y-73273510D01*
X179902105Y-73222648D01*
X179898479Y-73207396D01*
X179853324Y-73086946D01*
X179844786Y-73071351D01*
X179768285Y-72969276D01*
X179755724Y-72956715D01*
X179653649Y-72880214D01*
X179638054Y-72871676D01*
X179517606Y-72826522D01*
X179502351Y-72822895D01*
X179451486Y-72817369D01*
X179444672Y-72817000D01*
X178772115Y-72817000D01*
X178756876Y-72821475D01*
X178755671Y-72822865D01*
X178754000Y-72830548D01*
X178754000Y-73952885D01*
X178246000Y-73952885D01*
X178246000Y-72835116D01*
X178241525Y-72819877D01*
X178240135Y-72818672D01*
X178232452Y-72817001D01*
X177555331Y-72817001D01*
X177548510Y-72817371D01*
X177497648Y-72822895D01*
X177482396Y-72826521D01*
X177361946Y-72871676D01*
X177346351Y-72880214D01*
X177244276Y-72956715D01*
X177231715Y-72969276D01*
X177155214Y-73071351D01*
X177146676Y-73086946D01*
X177101522Y-73207394D01*
X177097895Y-73222649D01*
X177092369Y-73273514D01*
X177092000Y-73280328D01*
X177092000Y-73952885D01*
X131508500Y-73952885D01*
X131508500Y-67134669D01*
X144737001Y-67134669D01*
X144737371Y-67141490D01*
X144742895Y-67192352D01*
X144746521Y-67207604D01*
X144791676Y-67328054D01*
X144800214Y-67343649D01*
X144876715Y-67445724D01*
X144889276Y-67458285D01*
X144991351Y-67534786D01*
X145006946Y-67543324D01*
X145127394Y-67588478D01*
X145142649Y-67592105D01*
X145193514Y-67597631D01*
X145200328Y-67598000D01*
X146727885Y-67598000D01*
X146743124Y-67593525D01*
X146744329Y-67592135D01*
X146746000Y-67584452D01*
X146746000Y-67579884D01*
X147254000Y-67579884D01*
X147258475Y-67595123D01*
X147259865Y-67596328D01*
X147267548Y-67597999D01*
X148799669Y-67597999D01*
X148806490Y-67597629D01*
X148857352Y-67592105D01*
X148872604Y-67588479D01*
X148993054Y-67543324D01*
X149008649Y-67534786D01*
X149110724Y-67458285D01*
X149123285Y-67445724D01*
X149199786Y-67343649D01*
X149208324Y-67328054D01*
X149253478Y-67207606D01*
X149257105Y-67192351D01*
X149262631Y-67141486D01*
X149263000Y-67134672D01*
X149263000Y-66092115D01*
X149258525Y-66076876D01*
X149257135Y-66075671D01*
X149249452Y-66074000D01*
X147272115Y-66074000D01*
X147256876Y-66078475D01*
X147255671Y-66079865D01*
X147254000Y-66087548D01*
X147254000Y-67579884D01*
X146746000Y-67579884D01*
X146746000Y-66092115D01*
X146741525Y-66076876D01*
X146740135Y-66075671D01*
X146732452Y-66074000D01*
X144755116Y-66074000D01*
X144739877Y-66078475D01*
X144738672Y-66079865D01*
X144737001Y-66087548D01*
X144737001Y-67134669D01*
X131508500Y-67134669D01*
X131508500Y-65547885D01*
X144737000Y-65547885D01*
X144741475Y-65563124D01*
X144742865Y-65564329D01*
X144750548Y-65566000D01*
X146727885Y-65566000D01*
X146743124Y-65561525D01*
X146744329Y-65560135D01*
X146746000Y-65552452D01*
X146746000Y-65547885D01*
X147254000Y-65547885D01*
X147258475Y-65563124D01*
X147259865Y-65564329D01*
X147267548Y-65566000D01*
X149244884Y-65566000D01*
X149260123Y-65561525D01*
X149261328Y-65560135D01*
X149262999Y-65552452D01*
X149262999Y-64505331D01*
X149262629Y-64498510D01*
X149257105Y-64447648D01*
X149253479Y-64432396D01*
X149208324Y-64311946D01*
X149199786Y-64296351D01*
X149123285Y-64194276D01*
X149110724Y-64181715D01*
X149008649Y-64105214D01*
X148993054Y-64096676D01*
X148872606Y-64051522D01*
X148857351Y-64047895D01*
X148806486Y-64042369D01*
X148799672Y-64042000D01*
X147272115Y-64042000D01*
X147256876Y-64046475D01*
X147255671Y-64047865D01*
X147254000Y-64055548D01*
X147254000Y-65547885D01*
X146746000Y-65547885D01*
X146746000Y-64060116D01*
X146741525Y-64044877D01*
X146740135Y-64043672D01*
X146732452Y-64042001D01*
X145200331Y-64042001D01*
X145193510Y-64042371D01*
X145142648Y-64047895D01*
X145127396Y-64051521D01*
X145006946Y-64096676D01*
X144991351Y-64105214D01*
X144889276Y-64181715D01*
X144876715Y-64194276D01*
X144800214Y-64296351D01*
X144791676Y-64311946D01*
X144746522Y-64432394D01*
X144742895Y-64447649D01*
X144737369Y-64498514D01*
X144737000Y-64505328D01*
X144737000Y-65547885D01*
X131508500Y-65547885D01*
X131508500Y-61134500D01*
X131528502Y-61066379D01*
X131582158Y-61019886D01*
X131634500Y-61008500D01*
X194365500Y-61008500D01*
X194433621Y-61028502D01*
G37*
%TD.AperFunction*%
%TD*%
M02*
