%TF.GenerationSoftware,KiCad,Pcbnew,(5.1.9)-1*%
%TF.CreationDate,2021-02-20T19:07:58+08:00*%
%TF.ProjectId,test,74657374-2e6b-4696-9361-645f70636258,rev?*%
%TF.SameCoordinates,Original*%
%TF.FileFunction,Legend,Top*%
%TF.FilePolarity,Positive*%
%FSLAX46Y46*%
G04 Gerber Fmt 4.6, Leading zero omitted, Abs format (unit mm)*
G04 Created by KiCad (PCBNEW (5.1.9)-1) date 2021-02-20 19:07:58*
%MOMM*%
%LPD*%
G01*
G04 APERTURE LIST*
%ADD10C,0.150000*%
%ADD11C,0.120000*%
%ADD12C,1.200000*%
%ADD13O,3.600000X2.000000*%
%ADD14O,1.800000X1.800000*%
G04 APERTURE END LIST*
D10*
X108307142Y-104717619D02*
X108354761Y-104670000D01*
X108450000Y-104622380D01*
X108688095Y-104622380D01*
X108783333Y-104670000D01*
X108830952Y-104717619D01*
X108878571Y-104812857D01*
X108878571Y-104908095D01*
X108830952Y-105050952D01*
X108259523Y-105622380D01*
X108878571Y-105622380D01*
X109783333Y-104622380D02*
X109307142Y-104622380D01*
X109259523Y-105098571D01*
X109307142Y-105050952D01*
X109402380Y-105003333D01*
X109640476Y-105003333D01*
X109735714Y-105050952D01*
X109783333Y-105098571D01*
X109830952Y-105193809D01*
X109830952Y-105431904D01*
X109783333Y-105527142D01*
X109735714Y-105574761D01*
X109640476Y-105622380D01*
X109402380Y-105622380D01*
X109307142Y-105574761D01*
X109259523Y-105527142D01*
X110259523Y-105527142D02*
X110307142Y-105574761D01*
X110259523Y-105622380D01*
X110211904Y-105574761D01*
X110259523Y-105527142D01*
X110259523Y-105622380D01*
X111259523Y-105622380D02*
X110688095Y-105622380D01*
X110973809Y-105622380D02*
X110973809Y-104622380D01*
X110878571Y-104765238D01*
X110783333Y-104860476D01*
X110688095Y-104908095D01*
X111878571Y-104622380D02*
X111973809Y-104622380D01*
X112069047Y-104670000D01*
X112116666Y-104717619D01*
X112164285Y-104812857D01*
X112211904Y-105003333D01*
X112211904Y-105241428D01*
X112164285Y-105431904D01*
X112116666Y-105527142D01*
X112069047Y-105574761D01*
X111973809Y-105622380D01*
X111878571Y-105622380D01*
X111783333Y-105574761D01*
X111735714Y-105527142D01*
X111688095Y-105431904D01*
X111640476Y-105241428D01*
X111640476Y-105003333D01*
X111688095Y-104812857D01*
X111735714Y-104717619D01*
X111783333Y-104670000D01*
X111878571Y-104622380D01*
X112830952Y-104622380D02*
X112926190Y-104622380D01*
X113021428Y-104670000D01*
X113069047Y-104717619D01*
X113116666Y-104812857D01*
X113164285Y-105003333D01*
X113164285Y-105241428D01*
X113116666Y-105431904D01*
X113069047Y-105527142D01*
X113021428Y-105574761D01*
X112926190Y-105622380D01*
X112830952Y-105622380D01*
X112735714Y-105574761D01*
X112688095Y-105527142D01*
X112640476Y-105431904D01*
X112592857Y-105241428D01*
X112592857Y-105003333D01*
X112640476Y-104812857D01*
X112688095Y-104717619D01*
X112735714Y-104670000D01*
X112830952Y-104622380D01*
X114354761Y-105622380D02*
X114354761Y-104955714D01*
X114354761Y-105050952D02*
X114402380Y-105003333D01*
X114497619Y-104955714D01*
X114640476Y-104955714D01*
X114735714Y-105003333D01*
X114783333Y-105098571D01*
X114783333Y-105622380D01*
X114783333Y-105098571D02*
X114830952Y-105003333D01*
X114926190Y-104955714D01*
X115069047Y-104955714D01*
X115164285Y-105003333D01*
X115211904Y-105098571D01*
X115211904Y-105622380D01*
X115688095Y-105622380D02*
X115688095Y-104955714D01*
X115688095Y-105050952D02*
X115735714Y-105003333D01*
X115830952Y-104955714D01*
X115973809Y-104955714D01*
X116069047Y-105003333D01*
X116116666Y-105098571D01*
X116116666Y-105622380D01*
X116116666Y-105098571D02*
X116164285Y-105003333D01*
X116259523Y-104955714D01*
X116402380Y-104955714D01*
X116497619Y-105003333D01*
X116545238Y-105098571D01*
X116545238Y-105622380D01*
D11*
X99900000Y-103900000D02*
X125000000Y-103900000D01*
X99900000Y-103900000D02*
X99900000Y-104486421D01*
X125000000Y-103900000D02*
X125000000Y-104486421D01*
X125000000Y-103900000D02*
X123873496Y-104486421D01*
X125000000Y-103900000D02*
X123873496Y-103313579D01*
X99900000Y-103900000D02*
X101026504Y-104486421D01*
X99900000Y-103900000D02*
X101026504Y-103313579D01*
D10*
X138277619Y-88428571D02*
X138277619Y-87857142D01*
X138277619Y-88142857D02*
X139277619Y-88142857D01*
X139134761Y-88047619D01*
X139039523Y-87952380D01*
X138991904Y-87857142D01*
X139277619Y-89285714D02*
X139277619Y-89095238D01*
X139230000Y-89000000D01*
X139182380Y-88952380D01*
X139039523Y-88857142D01*
X138849047Y-88809523D01*
X138468095Y-88809523D01*
X138372857Y-88857142D01*
X138325238Y-88904761D01*
X138277619Y-89000000D01*
X138277619Y-89190476D01*
X138325238Y-89285714D01*
X138372857Y-89333333D01*
X138468095Y-89380952D01*
X138706190Y-89380952D01*
X138801428Y-89333333D01*
X138849047Y-89285714D01*
X138896666Y-89190476D01*
X138896666Y-89000000D01*
X138849047Y-88904761D01*
X138801428Y-88857142D01*
X138706190Y-88809523D01*
X138372857Y-89809523D02*
X138325238Y-89857142D01*
X138277619Y-89809523D01*
X138325238Y-89761904D01*
X138372857Y-89809523D01*
X138277619Y-89809523D01*
X139277619Y-90476190D02*
X139277619Y-90571428D01*
X139230000Y-90666666D01*
X139182380Y-90714285D01*
X139087142Y-90761904D01*
X138896666Y-90809523D01*
X138658571Y-90809523D01*
X138468095Y-90761904D01*
X138372857Y-90714285D01*
X138325238Y-90666666D01*
X138277619Y-90571428D01*
X138277619Y-90476190D01*
X138325238Y-90380952D01*
X138372857Y-90333333D01*
X138468095Y-90285714D01*
X138658571Y-90238095D01*
X138896666Y-90238095D01*
X139087142Y-90285714D01*
X139182380Y-90333333D01*
X139230000Y-90380952D01*
X139277619Y-90476190D01*
X139277619Y-91428571D02*
X139277619Y-91523809D01*
X139230000Y-91619047D01*
X139182380Y-91666666D01*
X139087142Y-91714285D01*
X138896666Y-91761904D01*
X138658571Y-91761904D01*
X138468095Y-91714285D01*
X138372857Y-91666666D01*
X138325238Y-91619047D01*
X138277619Y-91523809D01*
X138277619Y-91428571D01*
X138325238Y-91333333D01*
X138372857Y-91285714D01*
X138468095Y-91238095D01*
X138658571Y-91190476D01*
X138896666Y-91190476D01*
X139087142Y-91238095D01*
X139182380Y-91285714D01*
X139230000Y-91333333D01*
X139277619Y-91428571D01*
X139277619Y-92380952D02*
X139277619Y-92476190D01*
X139230000Y-92571428D01*
X139182380Y-92619047D01*
X139087142Y-92666666D01*
X138896666Y-92714285D01*
X138658571Y-92714285D01*
X138468095Y-92666666D01*
X138372857Y-92619047D01*
X138325238Y-92571428D01*
X138277619Y-92476190D01*
X138277619Y-92380952D01*
X138325238Y-92285714D01*
X138372857Y-92238095D01*
X138468095Y-92190476D01*
X138658571Y-92142857D01*
X138896666Y-92142857D01*
X139087142Y-92190476D01*
X139182380Y-92238095D01*
X139230000Y-92285714D01*
X139277619Y-92380952D01*
X138277619Y-93904761D02*
X138944285Y-93904761D01*
X138849047Y-93904761D02*
X138896666Y-93952380D01*
X138944285Y-94047619D01*
X138944285Y-94190476D01*
X138896666Y-94285714D01*
X138801428Y-94333333D01*
X138277619Y-94333333D01*
X138801428Y-94333333D02*
X138896666Y-94380952D01*
X138944285Y-94476190D01*
X138944285Y-94619047D01*
X138896666Y-94714285D01*
X138801428Y-94761904D01*
X138277619Y-94761904D01*
X138277619Y-95238095D02*
X138944285Y-95238095D01*
X138849047Y-95238095D02*
X138896666Y-95285714D01*
X138944285Y-95380952D01*
X138944285Y-95523809D01*
X138896666Y-95619047D01*
X138801428Y-95666666D01*
X138277619Y-95666666D01*
X138801428Y-95666666D02*
X138896666Y-95714285D01*
X138944285Y-95809523D01*
X138944285Y-95952380D01*
X138896666Y-96047619D01*
X138801428Y-96095238D01*
X138277619Y-96095238D01*
D11*
X140000000Y-84000000D02*
X140000000Y-100000000D01*
X140000000Y-84000000D02*
X139413579Y-84000000D01*
X140000000Y-100000000D02*
X139413579Y-100000000D01*
X140000000Y-100000000D02*
X139413579Y-98873496D01*
X140000000Y-100000000D02*
X140586421Y-98873496D01*
X140000000Y-84000000D02*
X139413579Y-85126504D01*
X140000000Y-84000000D02*
X140586421Y-85126504D01*
%TO.C,D2*%
X119665000Y-89512500D02*
X119665000Y-91797500D01*
X119665000Y-91797500D02*
X121135000Y-91797500D01*
X121135000Y-91797500D02*
X121135000Y-89512500D01*
%TO.C,C1*%
X115865580Y-96810000D02*
X115584420Y-96810000D01*
X115865580Y-95790000D02*
X115584420Y-95790000D01*
%TO.C,C2*%
X115559420Y-86690000D02*
X115840580Y-86690000D01*
X115559420Y-87710000D02*
X115840580Y-87710000D01*
%TO.C,J1*%
X104220000Y-96400000D02*
X104220000Y-87600000D01*
X101050000Y-98145000D02*
X100000000Y-98145000D01*
X101050000Y-85855000D02*
X100000000Y-85855000D01*
X104220000Y-96400000D02*
X104975000Y-96400000D01*
%TO.C,D1*%
X121135000Y-94287500D02*
X121135000Y-92002500D01*
X121135000Y-92002500D02*
X119665000Y-92002500D01*
X119665000Y-92002500D02*
X119665000Y-94287500D01*
%TO.C,J2*%
X125040000Y-85470000D02*
X125040000Y-98290000D01*
X125040000Y-98290000D02*
X127700000Y-98290000D01*
X127700000Y-98290000D02*
X127700000Y-85470000D01*
X127700000Y-85470000D02*
X125040000Y-85470000D01*
X127700000Y-86420000D02*
X133700000Y-86420000D01*
X133700000Y-86420000D02*
X133700000Y-87180000D01*
X133700000Y-87180000D02*
X127700000Y-87180000D01*
X127700000Y-86480000D02*
X133700000Y-86480000D01*
X127700000Y-86600000D02*
X133700000Y-86600000D01*
X127700000Y-86720000D02*
X133700000Y-86720000D01*
X127700000Y-86840000D02*
X133700000Y-86840000D01*
X127700000Y-86960000D02*
X133700000Y-86960000D01*
X127700000Y-87080000D02*
X133700000Y-87080000D01*
X124710000Y-86420000D02*
X125040000Y-86420000D01*
X124710000Y-87180000D02*
X125040000Y-87180000D01*
X125040000Y-88070000D02*
X127700000Y-88070000D01*
X127700000Y-88960000D02*
X133700000Y-88960000D01*
X133700000Y-88960000D02*
X133700000Y-89720000D01*
X133700000Y-89720000D02*
X127700000Y-89720000D01*
X124642929Y-88960000D02*
X125040000Y-88960000D01*
X124642929Y-89720000D02*
X125040000Y-89720000D01*
X125040000Y-90610000D02*
X127700000Y-90610000D01*
X127700000Y-91500000D02*
X133700000Y-91500000D01*
X133700000Y-91500000D02*
X133700000Y-92260000D01*
X133700000Y-92260000D02*
X127700000Y-92260000D01*
X124642929Y-91500000D02*
X125040000Y-91500000D01*
X124642929Y-92260000D02*
X125040000Y-92260000D01*
X125040000Y-93150000D02*
X127700000Y-93150000D01*
X127700000Y-94040000D02*
X133700000Y-94040000D01*
X133700000Y-94040000D02*
X133700000Y-94800000D01*
X133700000Y-94800000D02*
X127700000Y-94800000D01*
X124642929Y-94040000D02*
X125040000Y-94040000D01*
X124642929Y-94800000D02*
X125040000Y-94800000D01*
X125040000Y-95690000D02*
X127700000Y-95690000D01*
X127700000Y-96580000D02*
X133700000Y-96580000D01*
X133700000Y-96580000D02*
X133700000Y-97340000D01*
X133700000Y-97340000D02*
X127700000Y-97340000D01*
X124642929Y-96580000D02*
X125040000Y-96580000D01*
X124642929Y-97340000D02*
X125040000Y-97340000D01*
X122330000Y-86800000D02*
X122330000Y-85530000D01*
X122330000Y-85530000D02*
X123600000Y-85530000D01*
%TO.C,R1*%
X119877500Y-97037258D02*
X119877500Y-96562742D01*
X120922500Y-97037258D02*
X120922500Y-96562742D01*
%TO.C,R2*%
X120922500Y-86762742D02*
X120922500Y-87237258D01*
X119877500Y-86762742D02*
X119877500Y-87237258D01*
%TO.C,U1*%
X113800000Y-94460000D02*
X115750000Y-94460000D01*
X113800000Y-94460000D02*
X111850000Y-94460000D01*
X113800000Y-89340000D02*
X115750000Y-89340000D01*
X113800000Y-89340000D02*
X110350000Y-89340000D01*
%TO.C,D2*%
D10*
X119422380Y-91050595D02*
X118422380Y-91050595D01*
X118422380Y-90812500D01*
X118470000Y-90669642D01*
X118565238Y-90574404D01*
X118660476Y-90526785D01*
X118850952Y-90479166D01*
X118993809Y-90479166D01*
X119184285Y-90526785D01*
X119279523Y-90574404D01*
X119374761Y-90669642D01*
X119422380Y-90812500D01*
X119422380Y-91050595D01*
X118517619Y-90098214D02*
X118470000Y-90050595D01*
X118422380Y-89955357D01*
X118422380Y-89717261D01*
X118470000Y-89622023D01*
X118517619Y-89574404D01*
X118612857Y-89526785D01*
X118708095Y-89526785D01*
X118850952Y-89574404D01*
X119422380Y-90145833D01*
X119422380Y-89526785D01*
%TO.C,C1*%
X112833333Y-96757142D02*
X112785714Y-96804761D01*
X112642857Y-96852380D01*
X112547619Y-96852380D01*
X112404761Y-96804761D01*
X112309523Y-96709523D01*
X112261904Y-96614285D01*
X112214285Y-96423809D01*
X112214285Y-96280952D01*
X112261904Y-96090476D01*
X112309523Y-95995238D01*
X112404761Y-95900000D01*
X112547619Y-95852380D01*
X112642857Y-95852380D01*
X112785714Y-95900000D01*
X112833333Y-95947619D01*
X113785714Y-96852380D02*
X113214285Y-96852380D01*
X113500000Y-96852380D02*
X113500000Y-95852380D01*
X113404761Y-95995238D01*
X113309523Y-96090476D01*
X113214285Y-96138095D01*
%TO.C,C2*%
X112708333Y-87657142D02*
X112660714Y-87704761D01*
X112517857Y-87752380D01*
X112422619Y-87752380D01*
X112279761Y-87704761D01*
X112184523Y-87609523D01*
X112136904Y-87514285D01*
X112089285Y-87323809D01*
X112089285Y-87180952D01*
X112136904Y-86990476D01*
X112184523Y-86895238D01*
X112279761Y-86800000D01*
X112422619Y-86752380D01*
X112517857Y-86752380D01*
X112660714Y-86800000D01*
X112708333Y-86847619D01*
X113089285Y-86847619D02*
X113136904Y-86800000D01*
X113232142Y-86752380D01*
X113470238Y-86752380D01*
X113565476Y-86800000D01*
X113613095Y-86847619D01*
X113660714Y-86942857D01*
X113660714Y-87038095D01*
X113613095Y-87180952D01*
X113041666Y-87752380D01*
X113660714Y-87752380D01*
%TO.C,J1*%
X102766666Y-99452380D02*
X102766666Y-100166666D01*
X102719047Y-100309523D01*
X102623809Y-100404761D01*
X102480952Y-100452380D01*
X102385714Y-100452380D01*
X103766666Y-100452380D02*
X103195238Y-100452380D01*
X103480952Y-100452380D02*
X103480952Y-99452380D01*
X103385714Y-99595238D01*
X103290476Y-99690476D01*
X103195238Y-99738095D01*
%TO.C,D1*%
X122282380Y-94225595D02*
X121282380Y-94225595D01*
X121282380Y-93987500D01*
X121330000Y-93844642D01*
X121425238Y-93749404D01*
X121520476Y-93701785D01*
X121710952Y-93654166D01*
X121853809Y-93654166D01*
X122044285Y-93701785D01*
X122139523Y-93749404D01*
X122234761Y-93844642D01*
X122282380Y-93987500D01*
X122282380Y-94225595D01*
X122282380Y-92701785D02*
X122282380Y-93273214D01*
X122282380Y-92987500D02*
X121282380Y-92987500D01*
X121425238Y-93082738D01*
X121520476Y-93177976D01*
X121568095Y-93273214D01*
%TO.C,J2*%
X127651666Y-83982380D02*
X127651666Y-84696666D01*
X127604047Y-84839523D01*
X127508809Y-84934761D01*
X127365952Y-84982380D01*
X127270714Y-84982380D01*
X128080238Y-84077619D02*
X128127857Y-84030000D01*
X128223095Y-83982380D01*
X128461190Y-83982380D01*
X128556428Y-84030000D01*
X128604047Y-84077619D01*
X128651666Y-84172857D01*
X128651666Y-84268095D01*
X128604047Y-84410952D01*
X128032619Y-84982380D01*
X128651666Y-84982380D01*
%TO.C,R1*%
X119422380Y-96966666D02*
X118946190Y-97300000D01*
X119422380Y-97538095D02*
X118422380Y-97538095D01*
X118422380Y-97157142D01*
X118470000Y-97061904D01*
X118517619Y-97014285D01*
X118612857Y-96966666D01*
X118755714Y-96966666D01*
X118850952Y-97014285D01*
X118898571Y-97061904D01*
X118946190Y-97157142D01*
X118946190Y-97538095D01*
X119422380Y-96014285D02*
X119422380Y-96585714D01*
X119422380Y-96300000D02*
X118422380Y-96300000D01*
X118565238Y-96395238D01*
X118660476Y-96490476D01*
X118708095Y-96585714D01*
%TO.C,R2*%
X122282380Y-87166666D02*
X121806190Y-87500000D01*
X122282380Y-87738095D02*
X121282380Y-87738095D01*
X121282380Y-87357142D01*
X121330000Y-87261904D01*
X121377619Y-87214285D01*
X121472857Y-87166666D01*
X121615714Y-87166666D01*
X121710952Y-87214285D01*
X121758571Y-87261904D01*
X121806190Y-87357142D01*
X121806190Y-87738095D01*
X121377619Y-86785714D02*
X121330000Y-86738095D01*
X121282380Y-86642857D01*
X121282380Y-86404761D01*
X121330000Y-86309523D01*
X121377619Y-86261904D01*
X121472857Y-86214285D01*
X121568095Y-86214285D01*
X121710952Y-86261904D01*
X122282380Y-86833333D01*
X122282380Y-86214285D01*
%TO.C,U1*%
X113038095Y-87952380D02*
X113038095Y-88761904D01*
X113085714Y-88857142D01*
X113133333Y-88904761D01*
X113228571Y-88952380D01*
X113419047Y-88952380D01*
X113514285Y-88904761D01*
X113561904Y-88857142D01*
X113609523Y-88761904D01*
X113609523Y-87952380D01*
X114609523Y-88952380D02*
X114038095Y-88952380D01*
X114323809Y-88952380D02*
X114323809Y-87952380D01*
X114228571Y-88095238D01*
X114133333Y-88190476D01*
X114038095Y-88238095D01*
%TD*%
%LPC*%
%TO.C,D2*%
G36*
G01*
X120681250Y-90012500D02*
X120118750Y-90012500D01*
G75*
G02*
X119875000Y-89768750I0J243750D01*
G01*
X119875000Y-89281250D01*
G75*
G02*
X120118750Y-89037500I243750J0D01*
G01*
X120681250Y-89037500D01*
G75*
G02*
X120925000Y-89281250I0J-243750D01*
G01*
X120925000Y-89768750D01*
G75*
G02*
X120681250Y-90012500I-243750J0D01*
G01*
G37*
G36*
G01*
X120681250Y-91587500D02*
X120118750Y-91587500D01*
G75*
G02*
X119875000Y-91343750I0J243750D01*
G01*
X119875000Y-90856250D01*
G75*
G02*
X120118750Y-90612500I243750J0D01*
G01*
X120681250Y-90612500D01*
G75*
G02*
X120925000Y-90856250I0J-243750D01*
G01*
X120925000Y-91343750D01*
G75*
G02*
X120681250Y-91587500I-243750J0D01*
G01*
G37*
%TD*%
%TO.C,C1*%
G36*
G01*
X115450000Y-96025000D02*
X115450000Y-96575000D01*
G75*
G02*
X115200000Y-96825000I-250000J0D01*
G01*
X114700000Y-96825000D01*
G75*
G02*
X114450000Y-96575000I0J250000D01*
G01*
X114450000Y-96025000D01*
G75*
G02*
X114700000Y-95775000I250000J0D01*
G01*
X115200000Y-95775000D01*
G75*
G02*
X115450000Y-96025000I0J-250000D01*
G01*
G37*
G36*
G01*
X117000000Y-96025000D02*
X117000000Y-96575000D01*
G75*
G02*
X116750000Y-96825000I-250000J0D01*
G01*
X116250000Y-96825000D01*
G75*
G02*
X116000000Y-96575000I0J250000D01*
G01*
X116000000Y-96025000D01*
G75*
G02*
X116250000Y-95775000I250000J0D01*
G01*
X116750000Y-95775000D01*
G75*
G02*
X117000000Y-96025000I0J-250000D01*
G01*
G37*
%TD*%
%TO.C,C2*%
G36*
G01*
X115975000Y-87475000D02*
X115975000Y-86925000D01*
G75*
G02*
X116225000Y-86675000I250000J0D01*
G01*
X116725000Y-86675000D01*
G75*
G02*
X116975000Y-86925000I0J-250000D01*
G01*
X116975000Y-87475000D01*
G75*
G02*
X116725000Y-87725000I-250000J0D01*
G01*
X116225000Y-87725000D01*
G75*
G02*
X115975000Y-87475000I0J250000D01*
G01*
G37*
G36*
G01*
X114425000Y-87475000D02*
X114425000Y-86925000D01*
G75*
G02*
X114675000Y-86675000I250000J0D01*
G01*
X115175000Y-86675000D01*
G75*
G02*
X115425000Y-86925000I0J-250000D01*
G01*
X115425000Y-87475000D01*
G75*
G02*
X115175000Y-87725000I-250000J0D01*
G01*
X114675000Y-87725000D01*
G75*
G02*
X114425000Y-87475000I0J250000D01*
G01*
G37*
%TD*%
D12*
%TO.C,J1*%
X103100000Y-89700000D03*
X103100000Y-94300000D03*
D13*
X103100000Y-86300000D03*
X103100000Y-97700000D03*
G36*
G01*
X107150000Y-87950000D02*
X107150000Y-89050000D01*
G75*
G02*
X107100000Y-89100000I-50000J0D01*
G01*
X104600000Y-89100000D01*
G75*
G02*
X104550000Y-89050000I0J50000D01*
G01*
X104550000Y-87950000D01*
G75*
G02*
X104600000Y-87900000I50000J0D01*
G01*
X107100000Y-87900000D01*
G75*
G02*
X107150000Y-87950000I0J-50000D01*
G01*
G37*
G36*
G01*
X107150000Y-94950000D02*
X107150000Y-96050000D01*
G75*
G02*
X107100000Y-96100000I-50000J0D01*
G01*
X104600000Y-96100000D01*
G75*
G02*
X104550000Y-96050000I0J50000D01*
G01*
X104550000Y-94950000D01*
G75*
G02*
X104600000Y-94900000I50000J0D01*
G01*
X107100000Y-94900000D01*
G75*
G02*
X107150000Y-94950000I0J-50000D01*
G01*
G37*
G36*
G01*
X107150000Y-90450000D02*
X107150000Y-91550000D01*
G75*
G02*
X107100000Y-91600000I-50000J0D01*
G01*
X104600000Y-91600000D01*
G75*
G02*
X104550000Y-91550000I0J50000D01*
G01*
X104550000Y-90450000D01*
G75*
G02*
X104600000Y-90400000I50000J0D01*
G01*
X107100000Y-90400000D01*
G75*
G02*
X107150000Y-90450000I0J-50000D01*
G01*
G37*
G36*
G01*
X107150000Y-92450000D02*
X107150000Y-93550000D01*
G75*
G02*
X107100000Y-93600000I-50000J0D01*
G01*
X104600000Y-93600000D01*
G75*
G02*
X104550000Y-93550000I0J50000D01*
G01*
X104550000Y-92450000D01*
G75*
G02*
X104600000Y-92400000I50000J0D01*
G01*
X107100000Y-92400000D01*
G75*
G02*
X107150000Y-92450000I0J-50000D01*
G01*
G37*
%TD*%
%TO.C,D1*%
G36*
G01*
X120118750Y-93787500D02*
X120681250Y-93787500D01*
G75*
G02*
X120925000Y-94031250I0J-243750D01*
G01*
X120925000Y-94518750D01*
G75*
G02*
X120681250Y-94762500I-243750J0D01*
G01*
X120118750Y-94762500D01*
G75*
G02*
X119875000Y-94518750I0J243750D01*
G01*
X119875000Y-94031250D01*
G75*
G02*
X120118750Y-93787500I243750J0D01*
G01*
G37*
G36*
G01*
X120118750Y-92212500D02*
X120681250Y-92212500D01*
G75*
G02*
X120925000Y-92456250I0J-243750D01*
G01*
X120925000Y-92943750D01*
G75*
G02*
X120681250Y-93187500I-243750J0D01*
G01*
X120118750Y-93187500D01*
G75*
G02*
X119875000Y-92943750I0J243750D01*
G01*
X119875000Y-92456250D01*
G75*
G02*
X120118750Y-92212500I243750J0D01*
G01*
G37*
%TD*%
D14*
%TO.C,J2*%
X123600000Y-96960000D03*
X123600000Y-94420000D03*
X123600000Y-91880000D03*
X123600000Y-89340000D03*
G36*
G01*
X122700000Y-87650000D02*
X122700000Y-85950000D01*
G75*
G02*
X122750000Y-85900000I50000J0D01*
G01*
X124450000Y-85900000D01*
G75*
G02*
X124500000Y-85950000I0J-50000D01*
G01*
X124500000Y-87650000D01*
G75*
G02*
X124450000Y-87700000I-50000J0D01*
G01*
X122750000Y-87700000D01*
G75*
G02*
X122700000Y-87650000I0J50000D01*
G01*
G37*
%TD*%
%TO.C,R1*%
G36*
G01*
X120700000Y-96425000D02*
X120100000Y-96425000D01*
G75*
G02*
X119875000Y-96200000I0J225000D01*
G01*
X119875000Y-95750000D01*
G75*
G02*
X120100000Y-95525000I225000J0D01*
G01*
X120700000Y-95525000D01*
G75*
G02*
X120925000Y-95750000I0J-225000D01*
G01*
X120925000Y-96200000D01*
G75*
G02*
X120700000Y-96425000I-225000J0D01*
G01*
G37*
G36*
G01*
X120700000Y-98075000D02*
X120100000Y-98075000D01*
G75*
G02*
X119875000Y-97850000I0J225000D01*
G01*
X119875000Y-97400000D01*
G75*
G02*
X120100000Y-97175000I225000J0D01*
G01*
X120700000Y-97175000D01*
G75*
G02*
X120925000Y-97400000I0J-225000D01*
G01*
X120925000Y-97850000D01*
G75*
G02*
X120700000Y-98075000I-225000J0D01*
G01*
G37*
%TD*%
%TO.C,R2*%
G36*
G01*
X120100000Y-87375000D02*
X120700000Y-87375000D01*
G75*
G02*
X120925000Y-87600000I0J-225000D01*
G01*
X120925000Y-88050000D01*
G75*
G02*
X120700000Y-88275000I-225000J0D01*
G01*
X120100000Y-88275000D01*
G75*
G02*
X119875000Y-88050000I0J225000D01*
G01*
X119875000Y-87600000D01*
G75*
G02*
X120100000Y-87375000I225000J0D01*
G01*
G37*
G36*
G01*
X120100000Y-85725000D02*
X120700000Y-85725000D01*
G75*
G02*
X120925000Y-85950000I0J-225000D01*
G01*
X120925000Y-86400000D01*
G75*
G02*
X120700000Y-86625000I-225000J0D01*
G01*
X120100000Y-86625000D01*
G75*
G02*
X119875000Y-86400000I0J225000D01*
G01*
X119875000Y-85950000D01*
G75*
G02*
X120100000Y-85725000I225000J0D01*
G01*
G37*
%TD*%
%TO.C,U1*%
G36*
G01*
X115250000Y-90170000D02*
X115250000Y-89820000D01*
G75*
G02*
X115425000Y-89645000I175000J0D01*
G01*
X117125000Y-89645000D01*
G75*
G02*
X117300000Y-89820000I0J-175000D01*
G01*
X117300000Y-90170000D01*
G75*
G02*
X117125000Y-90345000I-175000J0D01*
G01*
X115425000Y-90345000D01*
G75*
G02*
X115250000Y-90170000I0J175000D01*
G01*
G37*
G36*
G01*
X115250000Y-91440000D02*
X115250000Y-91090000D01*
G75*
G02*
X115425000Y-90915000I175000J0D01*
G01*
X117125000Y-90915000D01*
G75*
G02*
X117300000Y-91090000I0J-175000D01*
G01*
X117300000Y-91440000D01*
G75*
G02*
X117125000Y-91615000I-175000J0D01*
G01*
X115425000Y-91615000D01*
G75*
G02*
X115250000Y-91440000I0J175000D01*
G01*
G37*
G36*
G01*
X115250000Y-92710000D02*
X115250000Y-92360000D01*
G75*
G02*
X115425000Y-92185000I175000J0D01*
G01*
X117125000Y-92185000D01*
G75*
G02*
X117300000Y-92360000I0J-175000D01*
G01*
X117300000Y-92710000D01*
G75*
G02*
X117125000Y-92885000I-175000J0D01*
G01*
X115425000Y-92885000D01*
G75*
G02*
X115250000Y-92710000I0J175000D01*
G01*
G37*
G36*
G01*
X115250000Y-93980000D02*
X115250000Y-93630000D01*
G75*
G02*
X115425000Y-93455000I175000J0D01*
G01*
X117125000Y-93455000D01*
G75*
G02*
X117300000Y-93630000I0J-175000D01*
G01*
X117300000Y-93980000D01*
G75*
G02*
X117125000Y-94155000I-175000J0D01*
G01*
X115425000Y-94155000D01*
G75*
G02*
X115250000Y-93980000I0J175000D01*
G01*
G37*
G36*
G01*
X110300000Y-93980000D02*
X110300000Y-93630000D01*
G75*
G02*
X110475000Y-93455000I175000J0D01*
G01*
X112175000Y-93455000D01*
G75*
G02*
X112350000Y-93630000I0J-175000D01*
G01*
X112350000Y-93980000D01*
G75*
G02*
X112175000Y-94155000I-175000J0D01*
G01*
X110475000Y-94155000D01*
G75*
G02*
X110300000Y-93980000I0J175000D01*
G01*
G37*
G36*
G01*
X110300000Y-92710000D02*
X110300000Y-92360000D01*
G75*
G02*
X110475000Y-92185000I175000J0D01*
G01*
X112175000Y-92185000D01*
G75*
G02*
X112350000Y-92360000I0J-175000D01*
G01*
X112350000Y-92710000D01*
G75*
G02*
X112175000Y-92885000I-175000J0D01*
G01*
X110475000Y-92885000D01*
G75*
G02*
X110300000Y-92710000I0J175000D01*
G01*
G37*
G36*
G01*
X110300000Y-91440000D02*
X110300000Y-91090000D01*
G75*
G02*
X110475000Y-90915000I175000J0D01*
G01*
X112175000Y-90915000D01*
G75*
G02*
X112350000Y-91090000I0J-175000D01*
G01*
X112350000Y-91440000D01*
G75*
G02*
X112175000Y-91615000I-175000J0D01*
G01*
X110475000Y-91615000D01*
G75*
G02*
X110300000Y-91440000I0J175000D01*
G01*
G37*
G36*
G01*
X110300000Y-90170000D02*
X110300000Y-89820000D01*
G75*
G02*
X110475000Y-89645000I175000J0D01*
G01*
X112175000Y-89645000D01*
G75*
G02*
X112350000Y-89820000I0J-175000D01*
G01*
X112350000Y-90170000D01*
G75*
G02*
X112175000Y-90345000I-175000J0D01*
G01*
X110475000Y-90345000D01*
G75*
G02*
X110300000Y-90170000I0J175000D01*
G01*
G37*
%TD*%
M02*
