%TF.GenerationSoftware,KiCad,Pcbnew,(5.1.9)-1*%
%TF.CreationDate,2021-02-20T19:07:58+08:00*%
%TF.ProjectId,test,74657374-2e6b-4696-9361-645f70636258,rev?*%
%TF.SameCoordinates,Original*%
%TF.FileFunction,Copper,L2,Bot*%
%TF.FilePolarity,Positive*%
%FSLAX46Y46*%
G04 Gerber Fmt 4.6, Leading zero omitted, Abs format (unit mm)*
G04 Created by KiCad (PCBNEW (5.1.9)-1) date 2021-02-20 19:07:58*
%MOMM*%
%LPD*%
G01*
G04 APERTURE LIST*
%TA.AperFunction,ComponentPad*%
%ADD10O,3.500000X1.900000*%
%TD*%
%TA.AperFunction,ComponentPad*%
%ADD11O,1.700000X1.700000*%
%TD*%
%TA.AperFunction,ComponentPad*%
%ADD12R,1.700000X1.700000*%
%TD*%
%TA.AperFunction,ViaPad*%
%ADD13C,0.700000*%
%TD*%
%TA.AperFunction,Conductor*%
%ADD14C,0.500000*%
%TD*%
%TA.AperFunction,Conductor*%
%ADD15C,0.025400*%
%TD*%
%TA.AperFunction,Conductor*%
%ADD16C,0.100000*%
%TD*%
G04 APERTURE END LIST*
D10*
%TO.P,J1,5*%
%TO.N,GND*%
X103100000Y-86300000D03*
X103100000Y-97700000D03*
%TD*%
D11*
%TO.P,J2,5*%
%TO.N,+5V*%
X123600000Y-96960000D03*
%TO.P,J2,4*%
%TO.N,/TXD*%
X123600000Y-94420000D03*
%TO.P,J2,3*%
%TO.N,/RXD*%
X123600000Y-91880000D03*
%TO.P,J2,2*%
%TO.N,GND*%
X123600000Y-89340000D03*
D12*
%TO.P,J2,1*%
%TO.N,Net-(J2-Pad1)*%
X123600000Y-86800000D03*
%TD*%
D13*
%TO.N,+5V*%
X114050000Y-92700000D03*
%TO.N,Net-(J2-Pad1)*%
X113625000Y-93800000D03*
%TD*%
D14*
%TO.N,+5V*%
X119950000Y-86900000D02*
X119950000Y-86200000D01*
X114150000Y-92700000D02*
X119950000Y-86900000D01*
X114050000Y-92700000D02*
X114150000Y-92700000D01*
%TO.N,Net-(J2-Pad1)*%
X121575000Y-88825000D02*
X122500000Y-87900000D01*
X122500000Y-87900000D02*
X123600000Y-86800000D01*
X121575000Y-90475000D02*
X121575000Y-88825000D01*
X116900000Y-95150000D02*
X121575000Y-90475000D01*
X114875000Y-95150000D02*
X116900000Y-95150000D01*
X113625000Y-93800000D02*
X114875000Y-95150000D01*
%TD*%
D15*
%TO.N,+5V*%
X114754206Y-92431214D02*
X114701684Y-92482734D01*
X114646237Y-92535294D01*
X114596210Y-92581668D01*
X114550964Y-92623455D01*
X114550863Y-92623549D01*
X114509765Y-92662342D01*
X114509526Y-92662575D01*
X114471895Y-92700012D01*
X114471524Y-92700397D01*
X114436679Y-92738114D01*
X114436215Y-92738644D01*
X114403477Y-92778279D01*
X114402987Y-92778913D01*
X114371675Y-92822103D01*
X114371220Y-92822774D01*
X114345230Y-92863915D01*
X113919502Y-92786706D01*
X114013315Y-92364207D01*
X114050923Y-92357434D01*
X114052114Y-92357160D01*
X114094208Y-92345309D01*
X114095472Y-92344880D01*
X114134812Y-92329185D01*
X114136017Y-92328630D01*
X114173678Y-92308827D01*
X114174706Y-92308223D01*
X114211764Y-92284048D01*
X114212558Y-92283485D01*
X114250088Y-92254676D01*
X114250650Y-92254219D01*
X114289727Y-92220511D01*
X114290092Y-92220184D01*
X114331791Y-92181314D01*
X114332000Y-92181114D01*
X114377397Y-92136820D01*
X114377491Y-92136727D01*
X114418682Y-92095690D01*
X114754206Y-92431214D01*
%TA.AperFunction,Conductor*%
D16*
G36*
X114754206Y-92431214D02*
G01*
X114701684Y-92482734D01*
X114646237Y-92535294D01*
X114596210Y-92581668D01*
X114550964Y-92623455D01*
X114550863Y-92623549D01*
X114509765Y-92662342D01*
X114509526Y-92662575D01*
X114471895Y-92700012D01*
X114471524Y-92700397D01*
X114436679Y-92738114D01*
X114436215Y-92738644D01*
X114403477Y-92778279D01*
X114402987Y-92778913D01*
X114371675Y-92822103D01*
X114371220Y-92822774D01*
X114345230Y-92863915D01*
X113919502Y-92786706D01*
X114013315Y-92364207D01*
X114050923Y-92357434D01*
X114052114Y-92357160D01*
X114094208Y-92345309D01*
X114095472Y-92344880D01*
X114134812Y-92329185D01*
X114136017Y-92328630D01*
X114173678Y-92308827D01*
X114174706Y-92308223D01*
X114211764Y-92284048D01*
X114212558Y-92283485D01*
X114250088Y-92254676D01*
X114250650Y-92254219D01*
X114289727Y-92220511D01*
X114290092Y-92220184D01*
X114331791Y-92181314D01*
X114332000Y-92181114D01*
X114377397Y-92136820D01*
X114377491Y-92136727D01*
X114418682Y-92095690D01*
X114754206Y-92431214D01*
G37*
%TD.AperFunction*%
%TD*%
D15*
%TO.N,Net-(J2-Pad1)*%
X123866430Y-87593545D02*
X123712113Y-87642014D01*
X123566796Y-87679184D01*
X123434875Y-87708206D01*
X123312630Y-87734816D01*
X123312163Y-87734926D01*
X123195934Y-87764864D01*
X123194988Y-87765148D01*
X123080977Y-87804183D01*
X123079724Y-87804688D01*
X122964104Y-87858599D01*
X122962811Y-87859296D01*
X122841756Y-87933858D01*
X122840637Y-87934633D01*
X122710320Y-88035624D01*
X122709456Y-88036357D01*
X122575020Y-88161223D01*
X122238777Y-87824980D01*
X122363642Y-87690543D01*
X122364375Y-87689679D01*
X122465366Y-87559362D01*
X122466141Y-87558243D01*
X122540703Y-87437188D01*
X122541400Y-87435895D01*
X122595311Y-87320275D01*
X122595816Y-87319022D01*
X122634851Y-87205011D01*
X122635135Y-87204065D01*
X122665073Y-87087836D01*
X122665183Y-87087369D01*
X122691793Y-86965124D01*
X122720815Y-86833203D01*
X122757985Y-86687886D01*
X122806455Y-86533570D01*
X123887564Y-86512436D01*
X123866430Y-87593545D01*
%TA.AperFunction,Conductor*%
D16*
G36*
X123866430Y-87593545D02*
G01*
X123712113Y-87642014D01*
X123566796Y-87679184D01*
X123434875Y-87708206D01*
X123312630Y-87734816D01*
X123312163Y-87734926D01*
X123195934Y-87764864D01*
X123194988Y-87765148D01*
X123080977Y-87804183D01*
X123079724Y-87804688D01*
X122964104Y-87858599D01*
X122962811Y-87859296D01*
X122841756Y-87933858D01*
X122840637Y-87934633D01*
X122710320Y-88035624D01*
X122709456Y-88036357D01*
X122575020Y-88161223D01*
X122238777Y-87824980D01*
X122363642Y-87690543D01*
X122364375Y-87689679D01*
X122465366Y-87559362D01*
X122466141Y-87558243D01*
X122540703Y-87437188D01*
X122541400Y-87435895D01*
X122595311Y-87320275D01*
X122595816Y-87319022D01*
X122634851Y-87205011D01*
X122635135Y-87204065D01*
X122665073Y-87087836D01*
X122665183Y-87087369D01*
X122691793Y-86965124D01*
X122720815Y-86833203D01*
X122757985Y-86687886D01*
X122806455Y-86533570D01*
X123887564Y-86512436D01*
X123866430Y-87593545D01*
G37*
%TD.AperFunction*%
%TD*%
D15*
%TO.N,Net-(J2-Pad1)*%
X113950537Y-93710116D02*
X113964163Y-93749860D01*
X113964513Y-93750765D01*
X113983184Y-93794117D01*
X113983632Y-93795051D01*
X114005007Y-93835286D01*
X114005512Y-93836152D01*
X114030017Y-93874612D01*
X114030509Y-93875328D01*
X114058567Y-93913356D01*
X114058979Y-93913885D01*
X114091014Y-93952822D01*
X114091309Y-93953168D01*
X114127747Y-93994358D01*
X114127919Y-93994549D01*
X114169183Y-94039332D01*
X114169249Y-94039403D01*
X114215748Y-94089103D01*
X114259252Y-94135780D01*
X113911071Y-94458170D01*
X113867874Y-94411210D01*
X113821890Y-94361031D01*
X113821825Y-94360960D01*
X113780344Y-94316378D01*
X113780167Y-94316191D01*
X113741898Y-94276697D01*
X113741575Y-94276377D01*
X113705214Y-94241445D01*
X113704719Y-94240993D01*
X113668958Y-94210097D01*
X113668282Y-94209552D01*
X113631818Y-94182166D01*
X113630993Y-94181596D01*
X113592519Y-94157193D01*
X113591622Y-94156674D01*
X113549832Y-94134728D01*
X113548956Y-94134310D01*
X113510376Y-94117672D01*
X113518552Y-93685036D01*
X113950537Y-93710116D01*
%TA.AperFunction,Conductor*%
D16*
G36*
X113950537Y-93710116D02*
G01*
X113964163Y-93749860D01*
X113964513Y-93750765D01*
X113983184Y-93794117D01*
X113983632Y-93795051D01*
X114005007Y-93835286D01*
X114005512Y-93836152D01*
X114030017Y-93874612D01*
X114030509Y-93875328D01*
X114058567Y-93913356D01*
X114058979Y-93913885D01*
X114091014Y-93952822D01*
X114091309Y-93953168D01*
X114127747Y-93994358D01*
X114127919Y-93994549D01*
X114169183Y-94039332D01*
X114169249Y-94039403D01*
X114215748Y-94089103D01*
X114259252Y-94135780D01*
X113911071Y-94458170D01*
X113867874Y-94411210D01*
X113821890Y-94361031D01*
X113821825Y-94360960D01*
X113780344Y-94316378D01*
X113780167Y-94316191D01*
X113741898Y-94276697D01*
X113741575Y-94276377D01*
X113705214Y-94241445D01*
X113704719Y-94240993D01*
X113668958Y-94210097D01*
X113668282Y-94209552D01*
X113631818Y-94182166D01*
X113630993Y-94181596D01*
X113592519Y-94157193D01*
X113591622Y-94156674D01*
X113549832Y-94134728D01*
X113548956Y-94134310D01*
X113510376Y-94117672D01*
X113518552Y-93685036D01*
X113950537Y-93710116D01*
G37*
%TD.AperFunction*%
%TD*%
M02*
