%TF.GenerationSoftware,KiCad,Pcbnew,(5.1.9)-1*%
%TF.CreationDate,2021-02-20T19:07:58+08:00*%
%TF.ProjectId,test,74657374-2e6b-4696-9361-645f70636258,rev?*%
%TF.SameCoordinates,Original*%
%TF.FileFunction,Legend,Bot*%
%TF.FilePolarity,Positive*%
%FSLAX46Y46*%
G04 Gerber Fmt 4.6, Leading zero omitted, Abs format (unit mm)*
G04 Created by KiCad (PCBNEW (5.1.9)-1) date 2021-02-20 19:07:58*
%MOMM*%
%LPD*%
G01*
G04 APERTURE LIST*
%ADD10C,0.150000*%
%ADD11C,1.200000*%
%ADD12O,3.600000X2.000000*%
%ADD13O,1.800000X1.800000*%
G04 APERTURE END LIST*
D10*
X121636904Y-88950000D02*
X121732142Y-88902380D01*
X121875000Y-88902380D01*
X122017857Y-88950000D01*
X122113095Y-89045238D01*
X122160714Y-89140476D01*
X122208333Y-89330952D01*
X122208333Y-89473809D01*
X122160714Y-89664285D01*
X122113095Y-89759523D01*
X122017857Y-89854761D01*
X121875000Y-89902380D01*
X121779761Y-89902380D01*
X121636904Y-89854761D01*
X121589285Y-89807142D01*
X121589285Y-89473809D01*
X121779761Y-89473809D01*
X121160714Y-89902380D02*
X121160714Y-88902380D01*
X120589285Y-89902380D01*
X120589285Y-88902380D01*
X120113095Y-89902380D02*
X120113095Y-88902380D01*
X119875000Y-88902380D01*
X119732142Y-88950000D01*
X119636904Y-89045238D01*
X119589285Y-89140476D01*
X119541666Y-89330952D01*
X119541666Y-89473809D01*
X119589285Y-89664285D01*
X119636904Y-89759523D01*
X119732142Y-89854761D01*
X119875000Y-89902380D01*
X120113095Y-89902380D01*
X122236904Y-93827380D02*
X121665476Y-93827380D01*
X121951190Y-94827380D02*
X121951190Y-93827380D01*
X121427380Y-93827380D02*
X120760714Y-94827380D01*
X120760714Y-93827380D02*
X121427380Y-94827380D01*
X120379761Y-94827380D02*
X120379761Y-93827380D01*
X120141666Y-93827380D01*
X119998809Y-93875000D01*
X119903571Y-93970238D01*
X119855952Y-94065476D01*
X119808333Y-94255952D01*
X119808333Y-94398809D01*
X119855952Y-94589285D01*
X119903571Y-94684523D01*
X119998809Y-94779761D01*
X120141666Y-94827380D01*
X120379761Y-94827380D01*
X121522619Y-87277380D02*
X121855952Y-86801190D01*
X122094047Y-87277380D02*
X122094047Y-86277380D01*
X121713095Y-86277380D01*
X121617857Y-86325000D01*
X121570238Y-86372619D01*
X121522619Y-86467857D01*
X121522619Y-86610714D01*
X121570238Y-86705952D01*
X121617857Y-86753571D01*
X121713095Y-86801190D01*
X122094047Y-86801190D01*
X121236904Y-86277380D02*
X120665476Y-86277380D01*
X120951190Y-87277380D02*
X120951190Y-86277380D01*
X120379761Y-87229761D02*
X120236904Y-87277380D01*
X119998809Y-87277380D01*
X119903571Y-87229761D01*
X119855952Y-87182142D01*
X119808333Y-87086904D01*
X119808333Y-86991666D01*
X119855952Y-86896428D01*
X119903571Y-86848809D01*
X119998809Y-86801190D01*
X120189285Y-86753571D01*
X120284523Y-86705952D01*
X120332142Y-86658333D01*
X120379761Y-86563095D01*
X120379761Y-86467857D01*
X120332142Y-86372619D01*
X120284523Y-86325000D01*
X120189285Y-86277380D01*
X119951190Y-86277380D01*
X119808333Y-86325000D01*
X121541666Y-92327380D02*
X121875000Y-91851190D01*
X122113095Y-92327380D02*
X122113095Y-91327380D01*
X121732142Y-91327380D01*
X121636904Y-91375000D01*
X121589285Y-91422619D01*
X121541666Y-91517857D01*
X121541666Y-91660714D01*
X121589285Y-91755952D01*
X121636904Y-91803571D01*
X121732142Y-91851190D01*
X122113095Y-91851190D01*
X121208333Y-91327380D02*
X120541666Y-92327380D01*
X120541666Y-91327380D02*
X121208333Y-92327380D01*
X120160714Y-92327380D02*
X120160714Y-91327380D01*
X119922619Y-91327380D01*
X119779761Y-91375000D01*
X119684523Y-91470238D01*
X119636904Y-91565476D01*
X119589285Y-91755952D01*
X119589285Y-91898809D01*
X119636904Y-92089285D01*
X119684523Y-92184523D01*
X119779761Y-92279761D01*
X119922619Y-92327380D01*
X120160714Y-92327380D01*
%LPC*%
D11*
%TO.C,J1*%
X103100000Y-89700000D03*
X103100000Y-94300000D03*
D12*
X103100000Y-86300000D03*
X103100000Y-97700000D03*
%TD*%
D13*
%TO.C,J2*%
X123600000Y-96960000D03*
X123600000Y-94420000D03*
X123600000Y-91880000D03*
X123600000Y-89340000D03*
G36*
G01*
X122700000Y-87650000D02*
X122700000Y-85950000D01*
G75*
G02*
X122750000Y-85900000I50000J0D01*
G01*
X124450000Y-85900000D01*
G75*
G02*
X124500000Y-85950000I0J-50000D01*
G01*
X124500000Y-87650000D01*
G75*
G02*
X124450000Y-87700000I-50000J0D01*
G01*
X122750000Y-87700000D01*
G75*
G02*
X122700000Y-87650000I0J50000D01*
G01*
G37*
%TD*%
M02*
