%TF.GenerationSoftware,KiCad,Pcbnew,(5.1.9)-1*%
%TF.CreationDate,2021-02-20T19:07:58+08:00*%
%TF.ProjectId,test,74657374-2e6b-4696-9361-645f70636258,rev?*%
%TF.SameCoordinates,Original*%
%TF.FileFunction,Paste,Top*%
%TF.FilePolarity,Positive*%
%FSLAX46Y46*%
G04 Gerber Fmt 4.6, Leading zero omitted, Abs format (unit mm)*
G04 Created by KiCad (PCBNEW (5.1.9)-1) date 2021-02-20 19:07:58*
%MOMM*%
%LPD*%
G01*
G04 APERTURE LIST*
%ADD10R,2.500000X1.100000*%
G04 APERTURE END LIST*
%TO.C,D2*%
G36*
G01*
X120656250Y-89962500D02*
X120143750Y-89962500D01*
G75*
G02*
X119925000Y-89743750I0J218750D01*
G01*
X119925000Y-89306250D01*
G75*
G02*
X120143750Y-89087500I218750J0D01*
G01*
X120656250Y-89087500D01*
G75*
G02*
X120875000Y-89306250I0J-218750D01*
G01*
X120875000Y-89743750D01*
G75*
G02*
X120656250Y-89962500I-218750J0D01*
G01*
G37*
G36*
G01*
X120656250Y-91537500D02*
X120143750Y-91537500D01*
G75*
G02*
X119925000Y-91318750I0J218750D01*
G01*
X119925000Y-90881250D01*
G75*
G02*
X120143750Y-90662500I218750J0D01*
G01*
X120656250Y-90662500D01*
G75*
G02*
X120875000Y-90881250I0J-218750D01*
G01*
X120875000Y-91318750D01*
G75*
G02*
X120656250Y-91537500I-218750J0D01*
G01*
G37*
%TD*%
%TO.C,C1*%
G36*
G01*
X115400000Y-96050000D02*
X115400000Y-96550000D01*
G75*
G02*
X115175000Y-96775000I-225000J0D01*
G01*
X114725000Y-96775000D01*
G75*
G02*
X114500000Y-96550000I0J225000D01*
G01*
X114500000Y-96050000D01*
G75*
G02*
X114725000Y-95825000I225000J0D01*
G01*
X115175000Y-95825000D01*
G75*
G02*
X115400000Y-96050000I0J-225000D01*
G01*
G37*
G36*
G01*
X116950000Y-96050000D02*
X116950000Y-96550000D01*
G75*
G02*
X116725000Y-96775000I-225000J0D01*
G01*
X116275000Y-96775000D01*
G75*
G02*
X116050000Y-96550000I0J225000D01*
G01*
X116050000Y-96050000D01*
G75*
G02*
X116275000Y-95825000I225000J0D01*
G01*
X116725000Y-95825000D01*
G75*
G02*
X116950000Y-96050000I0J-225000D01*
G01*
G37*
%TD*%
%TO.C,C2*%
G36*
G01*
X116025000Y-87450000D02*
X116025000Y-86950000D01*
G75*
G02*
X116250000Y-86725000I225000J0D01*
G01*
X116700000Y-86725000D01*
G75*
G02*
X116925000Y-86950000I0J-225000D01*
G01*
X116925000Y-87450000D01*
G75*
G02*
X116700000Y-87675000I-225000J0D01*
G01*
X116250000Y-87675000D01*
G75*
G02*
X116025000Y-87450000I0J225000D01*
G01*
G37*
G36*
G01*
X114475000Y-87450000D02*
X114475000Y-86950000D01*
G75*
G02*
X114700000Y-86725000I225000J0D01*
G01*
X115150000Y-86725000D01*
G75*
G02*
X115375000Y-86950000I0J-225000D01*
G01*
X115375000Y-87450000D01*
G75*
G02*
X115150000Y-87675000I-225000J0D01*
G01*
X114700000Y-87675000D01*
G75*
G02*
X114475000Y-87450000I0J225000D01*
G01*
G37*
%TD*%
D10*
%TO.C,J1*%
X105850000Y-88500000D03*
X105850000Y-95500000D03*
X105850000Y-91000000D03*
X105850000Y-93000000D03*
%TD*%
%TO.C,D1*%
G36*
G01*
X120143750Y-93837500D02*
X120656250Y-93837500D01*
G75*
G02*
X120875000Y-94056250I0J-218750D01*
G01*
X120875000Y-94493750D01*
G75*
G02*
X120656250Y-94712500I-218750J0D01*
G01*
X120143750Y-94712500D01*
G75*
G02*
X119925000Y-94493750I0J218750D01*
G01*
X119925000Y-94056250D01*
G75*
G02*
X120143750Y-93837500I218750J0D01*
G01*
G37*
G36*
G01*
X120143750Y-92262500D02*
X120656250Y-92262500D01*
G75*
G02*
X120875000Y-92481250I0J-218750D01*
G01*
X120875000Y-92918750D01*
G75*
G02*
X120656250Y-93137500I-218750J0D01*
G01*
X120143750Y-93137500D01*
G75*
G02*
X119925000Y-92918750I0J218750D01*
G01*
X119925000Y-92481250D01*
G75*
G02*
X120143750Y-92262500I218750J0D01*
G01*
G37*
%TD*%
%TO.C,R1*%
G36*
G01*
X120675000Y-96375000D02*
X120125000Y-96375000D01*
G75*
G02*
X119925000Y-96175000I0J200000D01*
G01*
X119925000Y-95775000D01*
G75*
G02*
X120125000Y-95575000I200000J0D01*
G01*
X120675000Y-95575000D01*
G75*
G02*
X120875000Y-95775000I0J-200000D01*
G01*
X120875000Y-96175000D01*
G75*
G02*
X120675000Y-96375000I-200000J0D01*
G01*
G37*
G36*
G01*
X120675000Y-98025000D02*
X120125000Y-98025000D01*
G75*
G02*
X119925000Y-97825000I0J200000D01*
G01*
X119925000Y-97425000D01*
G75*
G02*
X120125000Y-97225000I200000J0D01*
G01*
X120675000Y-97225000D01*
G75*
G02*
X120875000Y-97425000I0J-200000D01*
G01*
X120875000Y-97825000D01*
G75*
G02*
X120675000Y-98025000I-200000J0D01*
G01*
G37*
%TD*%
%TO.C,R2*%
G36*
G01*
X120125000Y-87425000D02*
X120675000Y-87425000D01*
G75*
G02*
X120875000Y-87625000I0J-200000D01*
G01*
X120875000Y-88025000D01*
G75*
G02*
X120675000Y-88225000I-200000J0D01*
G01*
X120125000Y-88225000D01*
G75*
G02*
X119925000Y-88025000I0J200000D01*
G01*
X119925000Y-87625000D01*
G75*
G02*
X120125000Y-87425000I200000J0D01*
G01*
G37*
G36*
G01*
X120125000Y-85775000D02*
X120675000Y-85775000D01*
G75*
G02*
X120875000Y-85975000I0J-200000D01*
G01*
X120875000Y-86375000D01*
G75*
G02*
X120675000Y-86575000I-200000J0D01*
G01*
X120125000Y-86575000D01*
G75*
G02*
X119925000Y-86375000I0J200000D01*
G01*
X119925000Y-85975000D01*
G75*
G02*
X120125000Y-85775000I200000J0D01*
G01*
G37*
%TD*%
%TO.C,U1*%
G36*
G01*
X115300000Y-90145000D02*
X115300000Y-89845000D01*
G75*
G02*
X115450000Y-89695000I150000J0D01*
G01*
X117100000Y-89695000D01*
G75*
G02*
X117250000Y-89845000I0J-150000D01*
G01*
X117250000Y-90145000D01*
G75*
G02*
X117100000Y-90295000I-150000J0D01*
G01*
X115450000Y-90295000D01*
G75*
G02*
X115300000Y-90145000I0J150000D01*
G01*
G37*
G36*
G01*
X115300000Y-91415000D02*
X115300000Y-91115000D01*
G75*
G02*
X115450000Y-90965000I150000J0D01*
G01*
X117100000Y-90965000D01*
G75*
G02*
X117250000Y-91115000I0J-150000D01*
G01*
X117250000Y-91415000D01*
G75*
G02*
X117100000Y-91565000I-150000J0D01*
G01*
X115450000Y-91565000D01*
G75*
G02*
X115300000Y-91415000I0J150000D01*
G01*
G37*
G36*
G01*
X115300000Y-92685000D02*
X115300000Y-92385000D01*
G75*
G02*
X115450000Y-92235000I150000J0D01*
G01*
X117100000Y-92235000D01*
G75*
G02*
X117250000Y-92385000I0J-150000D01*
G01*
X117250000Y-92685000D01*
G75*
G02*
X117100000Y-92835000I-150000J0D01*
G01*
X115450000Y-92835000D01*
G75*
G02*
X115300000Y-92685000I0J150000D01*
G01*
G37*
G36*
G01*
X115300000Y-93955000D02*
X115300000Y-93655000D01*
G75*
G02*
X115450000Y-93505000I150000J0D01*
G01*
X117100000Y-93505000D01*
G75*
G02*
X117250000Y-93655000I0J-150000D01*
G01*
X117250000Y-93955000D01*
G75*
G02*
X117100000Y-94105000I-150000J0D01*
G01*
X115450000Y-94105000D01*
G75*
G02*
X115300000Y-93955000I0J150000D01*
G01*
G37*
G36*
G01*
X110350000Y-93955000D02*
X110350000Y-93655000D01*
G75*
G02*
X110500000Y-93505000I150000J0D01*
G01*
X112150000Y-93505000D01*
G75*
G02*
X112300000Y-93655000I0J-150000D01*
G01*
X112300000Y-93955000D01*
G75*
G02*
X112150000Y-94105000I-150000J0D01*
G01*
X110500000Y-94105000D01*
G75*
G02*
X110350000Y-93955000I0J150000D01*
G01*
G37*
G36*
G01*
X110350000Y-92685000D02*
X110350000Y-92385000D01*
G75*
G02*
X110500000Y-92235000I150000J0D01*
G01*
X112150000Y-92235000D01*
G75*
G02*
X112300000Y-92385000I0J-150000D01*
G01*
X112300000Y-92685000D01*
G75*
G02*
X112150000Y-92835000I-150000J0D01*
G01*
X110500000Y-92835000D01*
G75*
G02*
X110350000Y-92685000I0J150000D01*
G01*
G37*
G36*
G01*
X110350000Y-91415000D02*
X110350000Y-91115000D01*
G75*
G02*
X110500000Y-90965000I150000J0D01*
G01*
X112150000Y-90965000D01*
G75*
G02*
X112300000Y-91115000I0J-150000D01*
G01*
X112300000Y-91415000D01*
G75*
G02*
X112150000Y-91565000I-150000J0D01*
G01*
X110500000Y-91565000D01*
G75*
G02*
X110350000Y-91415000I0J150000D01*
G01*
G37*
G36*
G01*
X110350000Y-90145000D02*
X110350000Y-89845000D01*
G75*
G02*
X110500000Y-89695000I150000J0D01*
G01*
X112150000Y-89695000D01*
G75*
G02*
X112300000Y-89845000I0J-150000D01*
G01*
X112300000Y-90145000D01*
G75*
G02*
X112150000Y-90295000I-150000J0D01*
G01*
X110500000Y-90295000D01*
G75*
G02*
X110350000Y-90145000I0J150000D01*
G01*
G37*
%TD*%
M02*
