<?xml version="1.0" standalone="no"?><!DOCTYPE svg PUBLIC "-//W3C//DTD SVG 1.1//EN" "http://www.w3.org/Graphics/SVG/1.1/DTD/svg11.dtd"><svg t="1552962140325" class="icon" style="" viewBox="0 0 1055 1024" version="1.1" xmlns="http://www.w3.org/2000/svg" p-id="2375" xmlns:xlink="http://www.w3.org/1999/xlink" width="206.0546875" height="200"><defs><style type="text/css"></style></defs><path d="M287.34318 609.277884l33.948908 44.418839-7.836774 67.913489 407.512283 2.617483-20.892842-36.582064 20.892842-73.132781zM269.052148 392.465676l80.98523-10.454258v-86.204521h-75.765938zM582.523135 327.153996h232.485758v49.63813H582.523135z" fill="#C0EAFF" p-id="2376"></path><path d="M822.861341 627.58459H232.485758a15.673549 15.673549 0 0 1-15.67355-15.67355v-114.934137a15.673549 15.673549 0 0 1 15.67355-15.673549H728.820045a15.673549 15.673549 0 0 1 12.131327 5.752192l94.041296 114.934138a15.689223 15.689223 0 0 1-12.131327 25.594906z m-574.702034-31.347099H789.790152l-68.399369-83.587039H248.159307v83.587039z" fill="#1F87DD" p-id="2377"></path><path d="M723.58508 742.550074H305.634212a88.916045 88.916045 0 0 1-88.822004-88.822004v-43.102261a15.673549 15.673549 0 0 1 31.347099 0v43.102261a57.553273 57.553273 0 0 0 57.474905 57.474906h417.950868a57.5376 57.5376 0 0 0 57.474905-57.474906v-37.882969a15.673549 15.673549 0 0 1 31.347099 0v37.882969a88.916045 88.916045 0 0 1-88.822004 88.822004z" fill="#1F87DD" p-id="2378"></path><path d="M284.725698 732.095817c-33.133883 0-60.076715-26.958505-60.076715-60.076715s26.942831-60.076715 60.076715-60.076715 60.076715 26.958505 60.076714 60.076715-26.942831 60.076715-60.076714 60.076715z m0-88.822004c-15.845958 0-28.729616 12.883658-28.729616 28.729616s12.883658 28.729616 28.729616 28.729616c15.845958 0 28.729616-12.883658 28.729616-28.729616s-12.883658-28.729616-28.729616-28.729616zM744.477921 732.095817c-33.133883 0-60.076715-26.958505-60.076715-60.076715s26.958505-60.076715 60.076715-60.076715 60.076715 26.958505 60.076714 60.076715-26.942831 60.076715-60.076714 60.076715z m0-88.822004c-15.845958 0-28.729616 12.883658-28.729616 28.729616s12.883658 28.729616 28.729616 28.729616 28.729616-12.883658 28.729616-28.729616-12.867984-28.729616-28.729616-28.729616zM602.365849 738.631687a15.673549 15.673549 0 0 1-15.67355-15.673549v-23.510324a15.673549 15.673549 0 0 1 31.347099 0v23.510324a15.673549 15.673549 0 0 1-15.673549 15.673549zM546.473972 738.631687a15.673549 15.673549 0 0 1-15.67355-15.673549v-23.510324a15.673549 15.673549 0 0 1 31.347099 0v23.510324a15.673549 15.673549 0 0 1-15.673549 15.673549zM490.566421 738.631687a15.673549 15.673549 0 0 1-15.673549-15.673549v-23.510324a15.673549 15.673549 0 0 1 31.347099 0v23.510324a15.673549 15.673549 0 0 1-15.67355 15.673549zM434.674544 738.631687a15.673549 15.673549 0 0 1-15.673549-15.673549v-23.510324a15.673549 15.673549 0 0 1 31.347099 0v23.510324a15.673549 15.673549 0 0 1-15.67355 15.673549zM378.766994 738.631687a15.673549 15.673549 0 0 1-15.67355-15.673549v-23.510324a15.673549 15.673549 0 0 1 31.347099 0v23.510324a15.673549 15.673549 0 0 1-15.673549 15.673549zM658.273399 738.631687a15.673549 15.673549 0 0 1-15.673549-15.673549v-23.510324a15.673549 15.673549 0 0 1 31.347099 0v23.510324a15.673549 15.673549 0 0 1-15.67355 15.673549zM767.988245 568.824453h-274.287114a15.673549 15.673549 0 0 1 0-31.347099h274.287114a15.673549 15.673549 0 0 1 0 31.347099zM577.303843 506.130256a15.673549 15.673549 0 0 1-15.673549-15.67355V312.797024h-18.291032a15.673549 15.673549 0 0 1 0-31.347098h33.964581a15.673549 15.673549 0 0 1 15.67355 15.673549v193.333231a15.673549 15.673549 0 0 1-15.67355 15.67355zM478.027582 312.797024h-15.67355a15.673549 15.673549 0 0 1 0-31.347098h15.67355a15.673549 15.673549 0 0 1 0 31.347098zM274.27144 508.747739a15.673549 15.673549 0 0 1-15.673549-15.67355V297.123475a15.673549 15.673549 0 0 1 15.673549-15.673549h125.388395a15.673549 15.673549 0 0 1 0 31.347098h-109.714845v180.277165a15.673549 15.673549 0 0 1-15.67355 15.67355z" fill="#1F87DD" p-id="2379"></path><path d="M822.845668 393.782254H637.380558a15.673549 15.673549 0 0 1 0-31.347099h169.79156v-20.892841h-227.266465a15.673549 15.673549 0 0 1 0-31.347099h242.940015a15.673549 15.673549 0 0 1 15.673549 15.67355v52.23994a15.673549 15.673549 0 0 1-15.673549 15.673549zM352.639187 396.399737h-78.367747a15.673549 15.673549 0 0 1 0-31.347099h62.694198v-65.31168a15.673549 15.673549 0 0 1 31.347098 0v80.985229a15.673549 15.673549 0 0 1-15.673549 15.67355z" fill="#1F87DD" p-id="2380"></path></svg>