%TF.GenerationSoftware,KiCad,Pcbnew,(6.0.5)*%
%TF.CreationDate,2022-05-28T00:56:08+08:00*%
%TF.ProjectId,RaspberryPi_Shield,52617370-6265-4727-9279-50695f536869,rev?*%
%TF.SameCoordinates,Original*%
%TF.FileFunction,Paste,Bot*%
%TF.FilePolarity,Positive*%
%FSLAX46Y46*%
G04 Gerber Fmt 4.6, Leading zero omitted, Abs format (unit mm)*
G04 Created by KiCad (PCBNEW (6.0.5)) date 2022-05-28 00:56:08*
%MOMM*%
%LPD*%
G01*
G04 APERTURE LIST*
%ADD10C,0.800000*%
G04 APERTURE END LIST*
D10*
X167809523Y-93809523D02*
X167809523Y-97047619D01*
X167619047Y-97428571D01*
X167428571Y-97619047D01*
X167047619Y-97809523D01*
X166285714Y-97809523D01*
X165904761Y-97619047D01*
X165714285Y-97428571D01*
X165523809Y-97047619D01*
X165523809Y-93809523D01*
X163619047Y-97809523D02*
X163619047Y-95142857D01*
X163619047Y-93809523D02*
X163809523Y-94000000D01*
X163619047Y-94190476D01*
X163428571Y-94000000D01*
X163619047Y-93809523D01*
X163619047Y-94190476D01*
X161714285Y-95142857D02*
X161714285Y-97809523D01*
X161714285Y-95523809D02*
X161523809Y-95333333D01*
X161142857Y-95142857D01*
X160571428Y-95142857D01*
X160190476Y-95333333D01*
X160000000Y-95714285D01*
X160000000Y-97809523D01*
X158095238Y-97809523D02*
X158095238Y-93809523D01*
X155428571Y-93809523D02*
X154666666Y-93809523D01*
X154285714Y-94000000D01*
X153904761Y-94380952D01*
X153714285Y-95142857D01*
X153714285Y-96476190D01*
X153904761Y-97238095D01*
X154285714Y-97619047D01*
X154666666Y-97809523D01*
X155428571Y-97809523D01*
X155809523Y-97619047D01*
X156190476Y-97238095D01*
X156380952Y-96476190D01*
X156380952Y-95142857D01*
X156190476Y-94380952D01*
X155809523Y-94000000D01*
X155428571Y-93809523D01*
X152000000Y-97428571D02*
X151809523Y-97619047D01*
X152000000Y-97809523D01*
X152190476Y-97619047D01*
X152000000Y-97428571D01*
X152000000Y-97809523D01*
X148380952Y-97619047D02*
X148761904Y-97809523D01*
X149523809Y-97809523D01*
X149904761Y-97619047D01*
X150095238Y-97428571D01*
X150285714Y-97047619D01*
X150285714Y-95904761D01*
X150095238Y-95523809D01*
X149904761Y-95333333D01*
X149523809Y-95142857D01*
X148761904Y-95142857D01*
X148380952Y-95333333D01*
X146095238Y-97809523D02*
X146476190Y-97619047D01*
X146666666Y-97428571D01*
X146857142Y-97047619D01*
X146857142Y-95904761D01*
X146666666Y-95523809D01*
X146476190Y-95333333D01*
X146095238Y-95142857D01*
X145523809Y-95142857D01*
X145142857Y-95333333D01*
X144952380Y-95523809D01*
X144761904Y-95904761D01*
X144761904Y-97047619D01*
X144952380Y-97428571D01*
X145142857Y-97619047D01*
X145523809Y-97809523D01*
X146095238Y-97809523D01*
X143047619Y-97809523D02*
X143047619Y-95142857D01*
X143047619Y-95523809D02*
X142857142Y-95333333D01*
X142476190Y-95142857D01*
X141904761Y-95142857D01*
X141523809Y-95333333D01*
X141333333Y-95714285D01*
X141333333Y-97809523D01*
X141333333Y-95714285D02*
X141142857Y-95333333D01*
X140761904Y-95142857D01*
X140190476Y-95142857D01*
X139809523Y-95333333D01*
X139619047Y-95714285D01*
X139619047Y-97809523D01*
X134666666Y-97809523D02*
X134666666Y-93809523D01*
X134666666Y-95333333D02*
X134285714Y-95142857D01*
X133523809Y-95142857D01*
X133142857Y-95333333D01*
X132952380Y-95523809D01*
X132761904Y-95904761D01*
X132761904Y-97047619D01*
X132952380Y-97428571D01*
X133142857Y-97619047D01*
X133523809Y-97809523D01*
X134285714Y-97809523D01*
X134666666Y-97619047D01*
X131428571Y-95142857D02*
X130476190Y-97809523D01*
X129523809Y-95142857D02*
X130476190Y-97809523D01*
X130857142Y-98761904D01*
X131047619Y-98952380D01*
X131428571Y-99142857D01*
X124952380Y-97809523D02*
X124952380Y-93809523D01*
X124952380Y-95714285D02*
X122666666Y-95714285D01*
X122666666Y-97809523D02*
X122666666Y-93809523D01*
X119047619Y-97809523D02*
X119047619Y-95714285D01*
X119238095Y-95333333D01*
X119619047Y-95142857D01*
X120380952Y-95142857D01*
X120761904Y-95333333D01*
X119047619Y-97619047D02*
X119428571Y-97809523D01*
X120380952Y-97809523D01*
X120761904Y-97619047D01*
X120952380Y-97238095D01*
X120952380Y-96857142D01*
X120761904Y-96476190D01*
X120380952Y-96285714D01*
X119428571Y-96285714D01*
X119047619Y-96095238D01*
X117142857Y-95142857D02*
X117142857Y-97809523D01*
X117142857Y-95523809D02*
X116952380Y-95333333D01*
X116571428Y-95142857D01*
X116000000Y-95142857D01*
X115619047Y-95333333D01*
X115428571Y-95714285D01*
X115428571Y-97809523D01*
X113523809Y-97809523D02*
X113523809Y-93809523D01*
X113142857Y-96285714D02*
X112000000Y-97809523D01*
X112000000Y-95142857D02*
X113523809Y-96666666D01*
M02*
