%TF.GenerationSoftware,KiCad,Pcbnew,(6.0.5)*%
%TF.CreationDate,2022-05-28T00:56:08+08:00*%
%TF.ProjectId,RaspberryPi_Shield,52617370-6265-4727-9279-50695f536869,rev?*%
%TF.SameCoordinates,Original*%
%TF.FileFunction,Legend,Top*%
%TF.FilePolarity,Positive*%
%FSLAX46Y46*%
G04 Gerber Fmt 4.6, Leading zero omitted, Abs format (unit mm)*
G04 Created by KiCad (PCBNEW (6.0.5)) date 2022-05-28 00:56:08*
%MOMM*%
%LPD*%
G01*
G04 APERTURE LIST*
%ADD10C,1.000000*%
%ADD11C,0.300000*%
%ADD12C,6.000000*%
G04 APERTURE END LIST*
D10*
X120892857Y-99035714D02*
X119392857Y-96892857D01*
X118321428Y-99035714D02*
X118321428Y-94535714D01*
X120035714Y-94535714D01*
X120464285Y-94750000D01*
X120678571Y-94964285D01*
X120892857Y-95392857D01*
X120892857Y-96035714D01*
X120678571Y-96464285D01*
X120464285Y-96678571D01*
X120035714Y-96892857D01*
X118321428Y-96892857D01*
X124750000Y-99035714D02*
X124750000Y-96678571D01*
X124535714Y-96250000D01*
X124107142Y-96035714D01*
X123250000Y-96035714D01*
X122821428Y-96250000D01*
X124750000Y-98821428D02*
X124321428Y-99035714D01*
X123250000Y-99035714D01*
X122821428Y-98821428D01*
X122607142Y-98392857D01*
X122607142Y-97964285D01*
X122821428Y-97535714D01*
X123250000Y-97321428D01*
X124321428Y-97321428D01*
X124750000Y-97107142D01*
X126678571Y-98821428D02*
X127107142Y-99035714D01*
X127964285Y-99035714D01*
X128392857Y-98821428D01*
X128607142Y-98392857D01*
X128607142Y-98178571D01*
X128392857Y-97750000D01*
X127964285Y-97535714D01*
X127321428Y-97535714D01*
X126892857Y-97321428D01*
X126678571Y-96892857D01*
X126678571Y-96678571D01*
X126892857Y-96250000D01*
X127321428Y-96035714D01*
X127964285Y-96035714D01*
X128392857Y-96250000D01*
X130535714Y-96035714D02*
X130535714Y-100535714D01*
X130535714Y-96250000D02*
X130964285Y-96035714D01*
X131821428Y-96035714D01*
X132250000Y-96250000D01*
X132464285Y-96464285D01*
X132678571Y-96892857D01*
X132678571Y-98178571D01*
X132464285Y-98607142D01*
X132250000Y-98821428D01*
X131821428Y-99035714D01*
X130964285Y-99035714D01*
X130535714Y-98821428D01*
X134607142Y-99035714D02*
X134607142Y-94535714D01*
X134607142Y-96250000D02*
X135035714Y-96035714D01*
X135892857Y-96035714D01*
X136321428Y-96250000D01*
X136535714Y-96464285D01*
X136750000Y-96892857D01*
X136750000Y-98178571D01*
X136535714Y-98607142D01*
X136321428Y-98821428D01*
X135892857Y-99035714D01*
X135035714Y-99035714D01*
X134607142Y-98821428D01*
X140392857Y-98821428D02*
X139964285Y-99035714D01*
X139107142Y-99035714D01*
X138678571Y-98821428D01*
X138464285Y-98392857D01*
X138464285Y-96678571D01*
X138678571Y-96250000D01*
X139107142Y-96035714D01*
X139964285Y-96035714D01*
X140392857Y-96250000D01*
X140607142Y-96678571D01*
X140607142Y-97107142D01*
X138464285Y-97535714D01*
X142535714Y-99035714D02*
X142535714Y-96035714D01*
X142535714Y-96892857D02*
X142750000Y-96464285D01*
X142964285Y-96250000D01*
X143392857Y-96035714D01*
X143821428Y-96035714D01*
X145321428Y-99035714D02*
X145321428Y-96035714D01*
X145321428Y-96892857D02*
X145535714Y-96464285D01*
X145750000Y-96250000D01*
X146178571Y-96035714D01*
X146607142Y-96035714D01*
X147678571Y-96035714D02*
X148750000Y-99035714D01*
X149821428Y-96035714D02*
X148750000Y-99035714D01*
X148321428Y-100107142D01*
X148107142Y-100321428D01*
X147678571Y-100535714D01*
X154964285Y-99035714D02*
X154964285Y-94535714D01*
X156678571Y-94535714D01*
X157107142Y-94750000D01*
X157321428Y-94964285D01*
X157535714Y-95392857D01*
X157535714Y-96035714D01*
X157321428Y-96464285D01*
X157107142Y-96678571D01*
X156678571Y-96892857D01*
X154964285Y-96892857D01*
X159464285Y-99035714D02*
X159464285Y-96035714D01*
X159464285Y-94535714D02*
X159250000Y-94750000D01*
X159464285Y-94964285D01*
X159678571Y-94750000D01*
X159464285Y-94535714D01*
X159464285Y-94964285D01*
X166964285Y-96035714D02*
X166964285Y-99035714D01*
X165892857Y-94321428D02*
X164821428Y-97535714D01*
X167607142Y-97535714D01*
X170821428Y-96678571D02*
X171464285Y-96892857D01*
X171678571Y-97107142D01*
X171892857Y-97535714D01*
X171892857Y-98178571D01*
X171678571Y-98607142D01*
X171464285Y-98821428D01*
X171035714Y-99035714D01*
X169321428Y-99035714D01*
X169321428Y-94535714D01*
X170821428Y-94535714D01*
X171250000Y-94750000D01*
X171464285Y-94964285D01*
X171678571Y-95392857D01*
X171678571Y-95821428D01*
X171464285Y-96250000D01*
X171250000Y-96464285D01*
X170821428Y-96678571D01*
X169321428Y-96678571D01*
D11*
%TO.C,G\u002A\u002A\u002A*%
X108657428Y-96238000D02*
X108512285Y-96165428D01*
X108294571Y-96165428D01*
X108076857Y-96238000D01*
X107931714Y-96383142D01*
X107859142Y-96528285D01*
X107786571Y-96818571D01*
X107786571Y-97036285D01*
X107859142Y-97326571D01*
X107931714Y-97471714D01*
X108076857Y-97616857D01*
X108294571Y-97689428D01*
X108439714Y-97689428D01*
X108657428Y-97616857D01*
X108730000Y-97544285D01*
X108730000Y-97036285D01*
X108439714Y-97036285D01*
X109600857Y-96165428D02*
X109600857Y-96528285D01*
X109238000Y-96383142D02*
X109600857Y-96528285D01*
X109963714Y-96383142D01*
X109383142Y-96818571D02*
X109600857Y-96528285D01*
X109818571Y-96818571D01*
X110762000Y-96165428D02*
X110762000Y-96528285D01*
X110399142Y-96383142D02*
X110762000Y-96528285D01*
X111124857Y-96383142D01*
X110544285Y-96818571D02*
X110762000Y-96528285D01*
X110979714Y-96818571D01*
X111923142Y-96165428D02*
X111923142Y-96528285D01*
X111560285Y-96383142D02*
X111923142Y-96528285D01*
X112286000Y-96383142D01*
X111705428Y-96818571D02*
X111923142Y-96528285D01*
X112140857Y-96818571D01*
G36*
X105914602Y-91813006D02*
G01*
X106125960Y-91642549D01*
X106405173Y-91518472D01*
X106556647Y-91479166D01*
X106764162Y-91426304D01*
X106970842Y-91358580D01*
X107052766Y-91325703D01*
X107166432Y-91283495D01*
X107293530Y-91257066D01*
X107458245Y-91244084D01*
X107684757Y-91242217D01*
X107880056Y-91245947D01*
X108367239Y-91275180D01*
X108771539Y-91339150D01*
X109107718Y-91442380D01*
X109390539Y-91589393D01*
X109632934Y-91782955D01*
X109891011Y-92030396D01*
X110142388Y-91788101D01*
X110394486Y-91589060D01*
X110692799Y-91439090D01*
X111050361Y-91334202D01*
X111480208Y-91270410D01*
X111916499Y-91245406D01*
X112191860Y-91240717D01*
X112389061Y-91244968D01*
X112531949Y-91260582D01*
X112644367Y-91289984D01*
X112735991Y-91328686D01*
X112915414Y-91399049D01*
X113126540Y-91460441D01*
X113208696Y-91478393D01*
X113500606Y-91555788D01*
X113721557Y-91670174D01*
X113900419Y-91836585D01*
X113903571Y-91840315D01*
X114004391Y-92026318D01*
X114039433Y-92242428D01*
X114005680Y-92448928D01*
X113956982Y-92543615D01*
X113900355Y-92709656D01*
X113908996Y-92806243D01*
X113913662Y-92998592D01*
X113865100Y-93226313D01*
X113774987Y-93445815D01*
X113709687Y-93550302D01*
X113618487Y-93690465D01*
X113518884Y-93868544D01*
X113478708Y-93948756D01*
X113372594Y-94123287D01*
X113239832Y-94280860D01*
X113182189Y-94332056D01*
X113035738Y-94446402D01*
X112899338Y-94555334D01*
X112874668Y-94575466D01*
X112746576Y-94680711D01*
X112952902Y-94953314D01*
X113079852Y-95149906D01*
X113190567Y-95370625D01*
X113243451Y-95512456D01*
X113374096Y-95876080D01*
X113540441Y-96216309D01*
X113724835Y-96498350D01*
X113774081Y-96558461D01*
X113998686Y-96887122D01*
X114148635Y-97256958D01*
X114221867Y-97647677D01*
X114216323Y-98038983D01*
X114129944Y-98410582D01*
X113991062Y-98696361D01*
X113891058Y-98873257D01*
X113806435Y-99055152D01*
X113782128Y-99120211D01*
X113713943Y-99295746D01*
X113634445Y-99460875D01*
X113626781Y-99474511D01*
X113561405Y-99621866D01*
X113501948Y-99809845D01*
X113483383Y-99888291D01*
X113365600Y-100232060D01*
X113167028Y-100563710D01*
X112907623Y-100859803D01*
X112607344Y-101096902D01*
X112337958Y-101233392D01*
X112160477Y-101313709D01*
X111944978Y-101430353D01*
X111735845Y-101559173D01*
X111720850Y-101569193D01*
X111552757Y-101678058D01*
X111414023Y-101760120D01*
X111328407Y-101801571D01*
X111316821Y-101804024D01*
X111244647Y-101832858D01*
X111130910Y-101904949D01*
X111090097Y-101934959D01*
X110746734Y-102140975D01*
X110358616Y-102279667D01*
X109955205Y-102344009D01*
X109565964Y-102326975D01*
X109498546Y-102314487D01*
X109325460Y-102261502D01*
X109124039Y-102176628D01*
X109013033Y-102119709D01*
X108818014Y-102010839D01*
X108592271Y-101885345D01*
X108441248Y-101801689D01*
X108239134Y-101682671D01*
X108034621Y-101550751D01*
X107910055Y-101462576D01*
X107769881Y-101367560D01*
X107651465Y-101306008D01*
X107602253Y-101292958D01*
X107487864Y-101261319D01*
X107323305Y-101177629D01*
X107133917Y-101058726D01*
X106945039Y-100921448D01*
X106782011Y-100782634D01*
X106692672Y-100688532D01*
X106572683Y-100517117D01*
X106455696Y-100308345D01*
X106356557Y-100093747D01*
X106290108Y-99904853D01*
X106270429Y-99791584D01*
X106247662Y-99697400D01*
X106187194Y-99535465D01*
X106098771Y-99328557D01*
X105992141Y-99099458D01*
X105877052Y-98870947D01*
X105874126Y-98865393D01*
X105752518Y-98633887D01*
X105670068Y-98465872D01*
X105619347Y-98333855D01*
X105592928Y-98210346D01*
X105583383Y-98067855D01*
X105583285Y-97878890D01*
X105584152Y-97792153D01*
X105600478Y-97450973D01*
X105649100Y-97179208D01*
X105740530Y-96946410D01*
X105885279Y-96722130D01*
X106003564Y-96577285D01*
X106120845Y-96429914D01*
X106210792Y-96295288D01*
X106246487Y-96221999D01*
X106303476Y-96091644D01*
X106371054Y-95977867D01*
X106439630Y-95840486D01*
X106491718Y-95671371D01*
X106496382Y-95648051D01*
X106603546Y-95317287D01*
X106796882Y-94993709D01*
X106893812Y-94873993D01*
X107057822Y-94687197D01*
X106911863Y-94578709D01*
X106711535Y-94414268D01*
X106525630Y-94234057D01*
X106373145Y-94059086D01*
X106273075Y-93910364D01*
X106246073Y-93842364D01*
X106189231Y-93699992D01*
X106114836Y-93600449D01*
X105997412Y-93440549D01*
X105911894Y-93222278D01*
X105871674Y-92987788D01*
X105875918Y-92848475D01*
X105881951Y-92673148D01*
X105838636Y-92559404D01*
X105825086Y-92542979D01*
X105771516Y-92435424D01*
X105741521Y-92282956D01*
X105739793Y-92251142D01*
X105747772Y-92207512D01*
X106312251Y-92207512D01*
X106437809Y-92342287D01*
X106571495Y-92512131D01*
X106654056Y-92671212D01*
X106681276Y-92802152D01*
X106648941Y-92887574D01*
X106575855Y-92911469D01*
X106496206Y-92942341D01*
X106488092Y-93025509D01*
X106545397Y-93146802D01*
X106662006Y-93292048D01*
X106793370Y-93415534D01*
X106884262Y-93506186D01*
X106898663Y-93571647D01*
X106876459Y-93608682D01*
X106861621Y-93696252D01*
X106929439Y-93802744D01*
X107065974Y-93913652D01*
X107257289Y-94014471D01*
X107272395Y-94020785D01*
X107432281Y-94107279D01*
X107494823Y-94194079D01*
X107495583Y-94204379D01*
X107542043Y-94303158D01*
X107666801Y-94376496D01*
X107848622Y-94422194D01*
X108066269Y-94438054D01*
X108298505Y-94421876D01*
X108524094Y-94371461D01*
X108647799Y-94323689D01*
X108841138Y-94208327D01*
X108989186Y-94071344D01*
X109070732Y-93934542D01*
X109080081Y-93879324D01*
X109044761Y-93813050D01*
X108950224Y-93696277D01*
X108813606Y-93546463D01*
X108652039Y-93381065D01*
X108482659Y-93217542D01*
X108322599Y-93073350D01*
X108188995Y-92965948D01*
X108171310Y-92953407D01*
X108011761Y-92852768D01*
X107804546Y-92734847D01*
X107596360Y-92626107D01*
X107427893Y-92536812D01*
X107302449Y-92458821D01*
X107242438Y-92406383D01*
X107240242Y-92399702D01*
X107253179Y-92364059D01*
X107304125Y-92353296D01*
X107411283Y-92368700D01*
X107592854Y-92411559D01*
X107663184Y-92429607D01*
X108109468Y-92584994D01*
X108515152Y-92814185D01*
X108902630Y-93130245D01*
X108961731Y-93187097D01*
X109150033Y-93364664D01*
X109282706Y-93471650D01*
X109370124Y-93515518D01*
X109412466Y-93511357D01*
X109509599Y-93412946D01*
X109591547Y-93256479D01*
X109618813Y-93155193D01*
X110162195Y-93155193D01*
X110234740Y-93355644D01*
X110259243Y-93390090D01*
X110345306Y-93482143D01*
X110411790Y-93524446D01*
X110415402Y-93524749D01*
X110471799Y-93490752D01*
X110579956Y-93399850D01*
X110720641Y-93268680D01*
X110787635Y-93202752D01*
X111158105Y-92891407D01*
X111581554Y-92635832D01*
X112024016Y-92455740D01*
X112123599Y-92427407D01*
X112335537Y-92375606D01*
X112466907Y-92353829D01*
X112534523Y-92361050D01*
X112555199Y-92396241D01*
X112555332Y-92401047D01*
X112512272Y-92447705D01*
X112400606Y-92515864D01*
X112278080Y-92575412D01*
X112084706Y-92672001D01*
X111862791Y-92798899D01*
X111694007Y-92906384D01*
X111502387Y-93048976D01*
X111301612Y-93219159D01*
X111107753Y-93400686D01*
X110936881Y-93577310D01*
X110805066Y-93732785D01*
X110728379Y-93850862D01*
X110715493Y-93895635D01*
X110757059Y-94004916D01*
X110864139Y-94134178D01*
X111010308Y-94258742D01*
X111169139Y-94353928D01*
X111233301Y-94379220D01*
X111468820Y-94424569D01*
X111740446Y-94432970D01*
X111995116Y-94404504D01*
X112095372Y-94377900D01*
X112241990Y-94296800D01*
X112289806Y-94207792D01*
X112347076Y-94111200D01*
X112495368Y-94026558D01*
X112524862Y-94014856D01*
X112712846Y-93923055D01*
X112852872Y-93816146D01*
X112929538Y-93709901D01*
X112927440Y-93620094D01*
X112920210Y-93610001D01*
X112901851Y-93555007D01*
X112937705Y-93478787D01*
X113038304Y-93362819D01*
X113091582Y-93308588D01*
X113242993Y-93137970D01*
X113312945Y-93012255D01*
X113300211Y-92935461D01*
X113213032Y-92911469D01*
X113142719Y-92899314D01*
X113121168Y-92843613D01*
X113133929Y-92727845D01*
X113185975Y-92565273D01*
X113276444Y-92398171D01*
X113297417Y-92368945D01*
X113431106Y-92193669D01*
X113236142Y-92112208D01*
X113023314Y-92057172D01*
X112759972Y-92056314D01*
X112742724Y-92057810D01*
X112576667Y-92071002D01*
X112490665Y-92066689D01*
X112463023Y-92037062D01*
X112472044Y-91974316D01*
X112475221Y-91961551D01*
X112485789Y-91879486D01*
X112444318Y-91845173D01*
X112325929Y-91838230D01*
X112324685Y-91838230D01*
X112149420Y-91859337D01*
X111970327Y-91910578D01*
X111959723Y-91914890D01*
X111803262Y-91974015D01*
X111720223Y-91984677D01*
X111693593Y-91946046D01*
X111697056Y-91902113D01*
X111680876Y-91829862D01*
X111648189Y-91817787D01*
X111544146Y-91825930D01*
X111483871Y-91830564D01*
X111386114Y-91867682D01*
X111257147Y-91952291D01*
X111203104Y-91996563D01*
X111090549Y-92088020D01*
X111028031Y-92113585D01*
X110994555Y-92080864D01*
X110991432Y-92073223D01*
X110942326Y-92006110D01*
X110863213Y-92006760D01*
X110741630Y-92079058D01*
X110601040Y-92194934D01*
X110392717Y-92421207D01*
X110246554Y-92669194D01*
X110167924Y-92920116D01*
X110162195Y-93155193D01*
X109618813Y-93155193D01*
X109637451Y-93085957D01*
X109641131Y-93028997D01*
X109599477Y-92812559D01*
X109491103Y-92573985D01*
X109336303Y-92344766D01*
X109155373Y-92156394D01*
X109018400Y-92062741D01*
X108910513Y-92014490D01*
X108849188Y-92021058D01*
X108800623Y-92074624D01*
X108753929Y-92123973D01*
X108703395Y-92119181D01*
X108621995Y-92051645D01*
X108571199Y-92001597D01*
X108459875Y-91902469D01*
X108370740Y-91844068D01*
X108347880Y-91837532D01*
X108253860Y-91824470D01*
X108167119Y-91804496D01*
X108081503Y-91792147D01*
X108068875Y-91837507D01*
X108081126Y-91881854D01*
X108082972Y-91970312D01*
X108011108Y-91989111D01*
X107866773Y-91938092D01*
X107821033Y-91915204D01*
X107666597Y-91862460D01*
X107491700Y-91838652D01*
X107482025Y-91838545D01*
X107357873Y-91844264D01*
X107311141Y-91874630D01*
X107317192Y-91948610D01*
X107320664Y-91962792D01*
X107333741Y-92032946D01*
X107312628Y-92066921D01*
X107235323Y-92072950D01*
X107079821Y-92059270D01*
X107066531Y-92057900D01*
X106802933Y-92054488D01*
X106567357Y-92110278D01*
X106546693Y-92117978D01*
X106312251Y-92207512D01*
X105747772Y-92207512D01*
X105782183Y-92019363D01*
X105914602Y-91813006D01*
G37*
%TD*%
%LPC*%
D12*
X98700000Y-72100000D03*
X98700000Y-121100000D03*
X156700000Y-121100000D03*
X156700000Y-72100000D03*
M02*
